<svg width="32" height="32" viewBox="0 0 32 32" fill="none" xmlns="http://www.w3.org/2000/svg">
    <path d="M0 6C0 2.68629 2.68629 0 6 0H26C29.3137 0 32 2.68629 32 6V26C32 29.3137 29.3137 32 26 32H6C2.68629 32 0 29.3137 0 26V6Z" fill="#AEFA49"/>
    <path fill-rule="evenodd" clip-rule="evenodd" d="M24.5908 19.043C24.9563 19.0456 25.0325 19.3278 24.9883 19.6309L24.9854 24.6631C24.9854 24.7525 24.9499 24.8391 24.8867 24.9023C24.8236 24.9654 24.7377 25.001 24.6484 25.001H19.3682C19.2814 25.001 19.1983 24.9659 19.1367 24.9043C19.0751 24.8426 19.0398 24.7585 19.0391 24.6709L19.0264 20.248L19.0596 19.3252C19.0623 19.2506 19.094 19.18 19.1475 19.1279C19.2009 19.0759 19.2722 19.0466 19.3467 19.0459C21.119 19.0302 22.8673 19.029 24.5908 19.043ZM12.6406 19.0635C12.8234 19.0809 12.9162 19.1595 12.918 19.2988C12.9302 21.0921 12.9302 22.8981 12.918 24.7158C12.9172 24.7887 12.8877 24.8588 12.8359 24.9102C12.7841 24.9615 12.7135 24.9902 12.6406 24.9902H7.28223C7.20751 24.9902 7.13588 24.9601 7.08301 24.9072C7.03021 24.8544 7.00011 24.7827 7 24.708V19.3223C7 19.2597 7.02416 19.1995 7.06738 19.1543C7.1107 19.109 7.16983 19.0818 7.23242 19.0791L7.69434 19.0615L12.6406 19.0635ZM18.5508 13.0645C18.6526 13.0645 18.7503 13.1052 18.8223 13.1768C18.8941 13.2483 18.9346 13.3452 18.9346 13.4463C18.9415 15.0043 18.9415 16.7358 18.9346 18.6406C18.9328 18.8531 18.8153 18.9781 18.582 19.0146C16.8062 19.0129 15.0425 19.0103 13.291 19.0068C13.0979 19.0068 12.9853 18.8844 12.9521 18.6406L12.9541 13.4463C12.9541 13.3451 12.9949 13.2483 13.0664 13.1768C13.1379 13.1052 13.2348 13.0645 13.3359 13.0645H18.5508ZM24.6699 7C24.8488 7 24.9941 7.14519 24.9941 7.32422V12.6357C24.9941 12.8148 24.8488 12.96 24.6699 12.96H19.3633C19.1845 12.9599 19.04 12.8147 19.04 12.6357V7.32422C19.04 7.14523 19.1845 7.00006 19.3633 7H24.6699ZM12.6328 7.01074C12.7958 7.01074 12.9287 7.14252 12.9287 7.30566V12.6494C12.9284 12.8123 12.7956 12.9443 12.6328 12.9443H7.29492C7.13219 12.9442 7.00026 12.8123 7 12.6494V7.30566C7 7.14258 7.13202 7.01084 7.29492 7.01074H12.6328Z" fill="black"/>
</svg>
