<svg width="37" height="18" viewBox="0 0 37 18" fill="none" xmlns="http://www.w3.org/2000/svg">
    <rect x="0.5" y="1" width="36" height="16" rx="7.5" stroke="#8257FD"/>
    <path d="M6.96367 12.5L6.96367 5.3L9.79367 5.3C10.2503 5.3 10.6337 5.39333 10.9437 5.58C11.2537 5.76667 11.487 6.00833 11.6437 6.305C11.8003 6.59833 11.8787 6.90833 11.8787 7.235C11.8787 7.63167 11.7803 7.97167 11.5837 8.255C11.3903 8.53833 11.1287 8.73167 10.7987 8.835L10.7887 8.59C11.2487 8.70333 11.602 8.925 11.8487 9.255C12.0953 9.58167 12.2187 9.96333 12.2187 10.4C12.2187 10.8233 12.1337 11.1917 11.9637 11.505C11.797 11.8183 11.552 12.0633 11.2287 12.24C10.9087 12.4133 10.5203 12.5 10.0637 12.5L6.96367 12.5ZM8.02367 11.505L9.90367 11.505C10.1403 11.505 10.352 11.46 10.5387 11.37C10.7287 11.28 10.877 11.1517 10.9837 10.985C11.0937 10.815 11.1487 10.6133 11.1487 10.38C11.1487 10.1633 11.1003 9.96833 11.0037 9.795C10.9103 9.61833 10.7737 9.48 10.5937 9.38C10.417 9.27667 10.2087 9.225 9.96867 9.225L8.02367 9.225L8.02367 11.505ZM8.02367 8.24L9.77867 8.24C9.97201 8.24 10.1453 8.20167 10.2987 8.125C10.4553 8.045 10.5787 7.93167 10.6687 7.785C10.762 7.635 10.8087 7.455 10.8087 7.245C10.8087 6.965 10.7153 6.735 10.5287 6.555C10.342 6.375 10.092 6.285 9.77867 6.285L8.02367 6.285L8.02367 8.24ZM13.2137 12.5L13.2137 5.3L17.8137 5.3V6.285L14.2587 6.285L14.2587 8.305L17.2137 8.305V9.29L14.2587 9.29L14.2587 11.515L17.8137 11.515L17.8137 12.5L13.2137 12.5ZM20.8095 12.5L20.8095 6.285L18.4145 6.285V5.3L24.2495 5.3V6.285L21.8545 6.285L21.8545 12.5L20.8095 12.5ZM24.3543 12.5L26.6943 5.3L28.1993 5.3L30.5393 12.5L29.4543 12.5L27.2993 5.93L27.5693 5.93L25.4393 12.5L24.3543 12.5ZM25.5693 10.875L25.5693 9.895L29.3293 9.895L29.3293 10.875L25.5693 10.875Z" fill="#8257FD"/>
</svg>
