<svg width="24" height="24" viewBox="0 0 24 24" fill="none" xmlns="http://www.w3.org/2000/svg">
    <g clip-path="url(#clip0_2579_26747)">
        <rect width="24" height="24" fill="black"/>
        <path d="M16.8356 4.81778L13.4933 9.77778C13.2622 10.1156 13.7067 10.5244 14.0267 10.24L17.3156 7.37778C17.4044 7.30667 17.5289 7.36 17.5289 7.48444V16.4267C17.5289 16.5511 17.3689 16.6044 17.2978 16.5156L7.34222 4.60444C7.02222 4.21333 6.56 4 6.04444 4H5.68889C4.76444 4 4 4.76444 4 5.70667V18.2933C4 19.2356 4.76444 20 5.70667 20C6.29333 20 6.84444 19.6978 7.16444 19.1822L10.5067 14.2222C10.7378 13.8844 10.2933 13.4756 9.97333 13.76L6.68444 16.6044C6.59556 16.6756 6.47111 16.6222 6.47111 16.4978V7.57333C6.47111 7.44889 6.63111 7.39556 6.70222 7.48444L16.6578 19.3956C16.9778 19.7867 17.4578 20 17.9556 20H18.3111C19.2533 20 20.0178 19.2356 20.0178 18.2933V5.70667C20 4.76444 19.2356 4 18.2933 4C17.7067 4 17.1556 4.30222 16.8356 4.81778V4.81778Z"
              fill="white"/>
    </g>
    <defs>
        <clipPath id="clip0_2579_26747">
            <rect width="24" height="24" rx="4" fill="white"/>
        </clipPath>
    </defs>
</svg>
