<svg width="32" height="32" viewBox="0 0 32 32" fill="none" xmlns="http://www.w3.org/2000/svg">
    <g clip-path="url(#clip0_3064_29287)">
        <path d="M32 32H0V0H32V32ZM16.3164 26.9238C15.9285 26.6825 15.3388 26.9039 15.2373 27.3584C15.0533 27.8171 15.4963 28.3737 15.9883 28.3164C16.2535 28.3243 16.4576 28.1342 16.6162 27.9463L16.6426 27.8408C16.6654 27.749 16.6879 27.6568 16.7129 27.5654V27.5625C16.6477 27.3192 16.5712 27.0342 16.3164 26.9238ZM9.74121 26.4717C9.37879 26.3919 9.13201 26.6971 9.0293 27.0049C9.06662 27.4461 9.54791 27.8305 9.96387 27.5508C10.4265 27.3054 10.2692 26.509 9.74121 26.4717ZM22.3613 26.3984C21.944 26.4864 21.6424 26.9534 21.8984 27.3428C22.1611 27.7934 22.9311 27.6318 22.9805 27.1064C23.0509 26.7186 22.6959 26.4664 22.3613 26.3984ZM12.2178 24.167C12.2684 23.5404 11.515 23.0309 10.9551 23.3252C10.5605 23.4732 10.3983 23.9092 10.3916 24.2998C10.5263 24.6598 10.8013 25.0375 11.2227 25.0469C11.7319 25.1229 12.2348 24.6842 12.2178 24.167ZM21.6191 24.1631C21.6738 23.4924 20.8547 22.9786 20.2773 23.3359C19.7147 23.6226 19.651 24.4902 20.1709 24.8516C20.7081 25.3115 21.6334 24.8628 21.6191 24.1631ZM16.9922 23.2598C17.0547 22.5346 16.2162 21.9615 15.5576 22.252C14.7643 22.5053 14.6457 23.7214 15.3604 24.1348C16.0044 24.6157 17.0415 24.061 16.9922 23.2598ZM6.73438 21.916C6.84771 21.328 6.12376 20.8294 5.62109 21.1641C5.14275 21.4082 5.12548 22.1704 5.58789 22.4385C6.01986 22.7331 6.67429 22.4359 6.73438 21.916ZM26.0996 21.0293C25.5625 20.9404 25.0909 21.5826 25.3506 22.0664C25.5266 22.5571 26.259 22.6743 26.583 22.2637C26.8089 22.0539 26.7679 21.7347 26.7324 21.458L26.7266 21.4131L26.6973 21.3828C26.5333 21.2128 26.3523 21.0255 26.0996 21.0293ZM15.6973 19.6123C15.6906 18.5203 14.5502 17.6361 13.4902 17.9121C12.6986 18.0843 12.0874 18.8371 12.0898 19.6475C12.0632 20.494 12.7211 21.3022 13.5596 21.4385C14.6448 21.6918 15.7663 20.7148 15.6973 19.6123ZM19.9229 19.625C19.9413 18.5078 18.7663 17.6079 17.6904 17.9092C17.0519 18.0692 16.5125 18.5947 16.3711 19.2412C16.0925 20.2105 16.8292 21.309 17.8291 21.4385C18.8918 21.6531 19.9802 20.7077 19.9229 19.625ZM9.59473 18.5801C8.78955 18.6627 8.36546 19.7423 8.93164 20.333C9.41697 20.949 10.513 20.7436 10.7344 19.9902C11.0368 19.2836 10.3387 18.4534 9.59473 18.5801ZM23.3369 19.6309C23.3876 18.9095 22.5732 18.3359 21.9092 18.6133C21.1067 18.8694 20.9735 20.0918 21.708 20.5078C22.3573 20.9704 23.362 20.4241 23.3369 19.6309ZM13.3438 15.1357C12.9637 14.424 12.0773 14.0583 11.3027 14.2715C10.2521 14.5248 9.63472 15.8198 10.1426 16.7852C10.5839 17.8372 12.1137 18.148 12.9443 17.376C13.5922 16.8506 13.761 15.853 13.3438 15.1357ZM21.748 15.0293C21.3427 14.3427 20.4574 14.0517 19.7041 14.2676C18.6442 14.5569 18.0844 15.9009 18.6416 16.8516C19.1016 17.7701 20.3958 18.0799 21.2305 17.4922C22.0278 16.9855 22.284 15.8146 21.748 15.0293ZM7.45703 16.3135C7.72766 15.6496 6.987 14.911 6.31641 15.1641C5.67374 15.3454 5.48302 16.2776 5.99902 16.6963C6.43905 17.1424 7.29156 16.9185 7.45703 16.3135ZM25.4258 15.0488C24.8564 15.0795 24.4511 15.5723 24.4697 16.127C24.5803 16.3854 24.7161 16.6558 24.9785 16.7891C25.5411 17.0997 26.3354 16.6521 26.293 15.9922C26.3303 15.4923 25.8843 15.121 25.4258 15.0488ZM3.83203 16.1104C3.9238 15.6625 3.42505 15.3133 3.02246 15.4893C2.69065 15.64 2.54561 16.0944 2.78809 16.3877C3.06275 16.8104 3.8107 16.6157 3.83203 16.1104ZM29.2803 15.7529C29.1668 15.4224 28.7117 15.2772 28.4277 15.4785C27.9561 15.7306 28.1414 16.6022 28.7129 16.5508C29.1209 16.6121 29.4709 16.1156 29.2803 15.7529ZM15.4717 11.5117C15.0676 10.656 13.9413 10.3252 13.1055 10.7197C12.2135 11.1184 11.803 12.2932 12.2656 13.1572C12.6776 14.0519 13.8788 14.4186 14.7295 13.9346C15.5801 13.5052 15.9463 12.345 15.4717 11.5117ZM19.6172 11.3555C19.1865 10.6838 18.2893 10.3584 17.5361 10.6289C16.5948 10.9142 16.0373 12.0564 16.4199 12.9697C16.7575 13.9881 18.0897 14.4616 19.0029 13.9043C19.8829 13.4323 20.1838 12.1781 19.6172 11.3555ZM9.75586 11.3105C9.24259 11.3466 8.73489 11.6974 8.6709 12.2373C8.5469 12.872 9.11345 13.515 9.75879 13.459C10.3467 13.4616 10.7745 12.9195 10.8105 12.3662C10.7504 11.8064 10.3091 11.3772 9.75586 11.3105ZM23.3242 12.3643C23.3535 11.6043 22.4332 11.0411 21.7705 11.4277C21.0587 11.7624 21.0053 12.8732 21.6904 13.2666C22.3503 13.7399 23.3693 13.1708 23.3242 12.3643ZM6.68652 10.4424C6.89036 9.85576 6.16398 9.25103 5.62402 9.58301C5.15352 9.80043 5.088 10.528 5.50391 10.832C5.89324 11.156 6.57452 10.9491 6.68652 10.4424ZM26.7451 10.2119C26.7984 9.63468 26.0443 9.22671 25.5869 9.58105C25.1177 9.86901 25.1678 10.6388 25.6689 10.8643C26.1223 11.1363 26.7758 10.7386 26.7451 10.2119ZM16 7.6748C15.4454 7.71483 14.9146 8.14977 14.9199 8.73242C14.8882 9.2082 15.2299 9.5973 15.6338 9.7959C15.6741 9.79833 15.7148 9.80144 15.7559 9.80469C15.9849 9.82284 16.2221 9.84168 16.4277 9.72656C16.9583 9.49195 17.2198 8.78834 16.9268 8.27637C16.7681 7.9057 16.368 7.74814 16 7.6748ZM21.4854 7.44531C21.1854 6.78531 20.1172 6.80571 19.8545 7.48438C19.5257 8.14561 20.1898 8.90115 20.8896 8.77051C21.4175 8.59571 21.7813 7.95855 21.4854 7.44531ZM12.1855 7.95605C12.2762 7.27072 11.4344 6.71456 10.8438 7.08789C10.292 7.37062 10.2148 8.21434 10.7158 8.58105C11.2358 9.04903 12.1548 8.64799 12.1855 7.95605ZM10.1855 4.98926C10.2215 4.60527 9.77422 4.28143 9.4209 4.42676C8.93086 4.55908 8.87628 5.33132 9.35156 5.51562C9.71156 5.71429 10.2229 5.40659 10.1855 4.98926ZM22.9678 4.98633C22.9063 4.59577 22.5291 4.21864 22.1172 4.41992C21.5867 4.59471 21.6736 5.46264 22.2256 5.5293C22.6028 5.62513 22.8811 5.3196 22.9678 4.98633ZM16.6543 4.73438C16.9635 4.15321 16.2551 3.45093 15.6738 3.75293C15.2005 3.94093 15.0802 4.62697 15.4482 4.97363C15.7963 5.33328 16.4757 5.20758 16.6543 4.73438Z"
              fill="#366ECB"/>
    </g>
    <defs>
        <clipPath id="clip0_3064_29287">
            <rect width="32" height="32" rx="8" fill="white"/>
        </clipPath>
    </defs>
</svg>
