<svg width="32" height="32" viewBox="0 0 32 32" fill="none" xmlns="http://www.w3.org/2000/svg">
    <g clip-path="url(#clip0_4146_24704)">
        <rect width="32" height="32" fill="#05163D"/>
        <path d="M4.92041 10.9848V21.6009C4.92041 22.2745 5.27955 22.9033 5.86948 23.2365L15.0555 28.5413C15.6396 28.881 16.3643 28.881 16.9478 28.5413L26.1396 23.2365C26.7237 22.8968 27.0887 22.2745 27.0887 21.6009V10.9848C27.0887 10.3113 26.7296 9.68247 26.1396 9.34278L16.9478 4.03797C16.3643 3.69828 15.6396 3.69828 15.0555 4.03797L5.86365 9.34278C5.28604 9.68247 4.92041 10.3048 4.92041 10.9848Z" fill="#05163D"/>
        <path d="M18.0125 18.3491L16.6971 21.9412C16.6589 22.0372 16.6589 22.1526 16.6971 22.2491L18.9486 28.433L21.5592 26.9258L18.4287 18.3433C18.358 18.1508 18.0825 18.1508 18.0118 18.3498L18.0125 18.3491Z" fill="#12AAFF"/>
        <path d="M20.6363 12.2997C20.5657 12.1006 20.2902 12.1006 20.213 12.2997L18.8983 15.8917C18.8601 15.9942 18.8601 16.1031 18.8983 16.1997L22.5935 26.3282L25.204 24.821L20.637 12.2997H20.6363Z" fill="#12AAFF"/>
        <path d="M16.0052 4.42921C16.0694 4.42921 16.1336 4.44866 16.1913 4.48042L26.1338 10.2215C26.2492 10.2857 26.3199 10.4076 26.3199 10.5424V22.0246C26.3199 22.1594 26.2492 22.2813 26.1338 22.3455L16.1913 28.0931C16.1336 28.1248 16.0694 28.1443 16.0052 28.1443C15.941 28.1443 15.8769 28.1248 15.8192 28.0931L5.87663 22.352C5.76124 22.2878 5.69057 22.1659 5.69057 22.0311V10.5424C5.69057 10.4076 5.76124 10.2857 5.87663 10.2215L15.8192 4.48042C15.8769 4.44866 15.941 4.42921 16.0052 4.42921ZM16.0052 2.75537C15.6526 2.75537 15.2934 2.85132 14.979 3.03089L5.03647 8.77198C4.40764 9.1376 4.01025 9.81116 4.01025 10.5424V22.0246C4.01025 22.7558 4.40181 23.4359 5.03647 23.8015L14.979 29.5426C15.2934 29.7286 15.6461 29.8181 16.0052 29.8181C16.3644 29.8181 16.717 29.7222 17.0314 29.5426L26.974 23.8015C27.6093 23.4359 28.0002 22.7623 28.0002 22.0246V10.5424C28.0002 9.81116 27.6086 9.13112 26.974 8.7655L17.0314 3.03089C16.7105 2.85132 16.3579 2.75537 16.0052 2.75537Z" fill="#9DCCED"/>
        <path d="M9.42969 26.341L10.347 23.8394L12.1816 25.366L10.4689 26.9374L9.42969 26.341Z" fill="#05163D"/>
        <path d="M15.1652 9.72721H12.6441C12.458 9.72721 12.2849 9.8426 12.2207 10.0222L6.81934 24.8397L9.42993 26.3469L15.383 10.028C15.4342 9.8802 15.3253 9.72656 15.1645 9.72656L15.1652 9.72721Z" fill="white"/>
        <path d="M19.5776 9.72803H17.0565C16.8704 9.72803 16.6973 9.84342 16.6332 10.023L10.4688 26.9383L13.0793 28.4456L19.7889 10.0295C19.8466 9.88167 19.7313 9.72803 19.577 9.72803H19.5776Z" fill="white"/>
    </g>
    <defs>
        <clipPath id="clip0_4146_24704">
            <rect width="32" height="32" rx="8" fill="white"/>
        </clipPath>
    </defs>
</svg>
