<svg width="32" height="32" viewBox="0 0 32 32" fill="none" xmlns="http://www.w3.org/2000/svg">
    <g clip-path="url(#clip0_1777_16766)">
        <rect width="32" height="32" rx="4" fill="#2D374B"/>
        <path d="M19.5244 15.1761L21.743 11.4114L27.7232 20.7257L27.726 22.5132L27.7066 10.2128C27.6924 9.91215 27.5327 9.63711 27.278 9.47488L16.5115 3.2818C16.2598 3.15797 15.9402 3.1594 15.6888 3.28572C15.6549 3.30264 15.6229 3.32119 15.5925 3.34141L15.5549 3.36499L5.10437 9.421L5.06386 9.43941C5.01172 9.46337 4.95895 9.49386 4.90954 9.52927C4.71135 9.67133 4.57981 9.88147 4.53724 10.1172C4.53083 10.1529 4.5261 10.1892 4.52393 10.226L4.54035 20.2496L10.1106 11.616C10.8119 10.4713 12.3398 10.1025 13.7583 10.1225L15.423 10.1665L5.61395 25.8974L6.77024 26.5631L16.6967 10.1825L21.0843 10.1665L11.1834 26.9605L15.3094 29.3337L15.8023 29.6172C16.0109 29.702 16.2567 29.7063 16.467 29.6303L27.3848 23.3032L25.2975 24.5128L19.5244 15.1761ZM20.3708 27.3678L16.2036 20.8273L18.7475 16.5106L24.2204 25.137L20.3708 27.3678Z"
              fill="#2D374B"/>
        <path d="M16.2036 20.827L20.3708 27.3675L24.2204 25.1366L18.7474 16.5103L16.2036 20.827Z" fill="#28A0F0"/>
        <path d="M27.726 22.513L27.7232 20.7254L21.743 11.4111L19.5244 15.1758L25.2974 24.5125L27.3847 23.3029C27.5895 23.1366 27.7133 22.8926 27.7264 22.6293L27.726 22.513Z"
              fill="#28A0F0"/>
        <path d="M2.6665 24.1987L5.61411 25.8972L15.4231 10.1663L13.7584 10.1224C12.3399 10.1023 10.8119 10.4711 10.1107 11.6158L4.54045 20.2495L2.6665 23.1287V24.1987Z"
              fill="white"/>
        <path d="M21.0846 10.1665L16.697 10.1824L6.77051 26.563L10.2401 28.5607L11.1837 26.9605L21.0846 10.1665Z" fill="white"/>
        <path d="M29.5752 10.1438C29.5385 9.22619 29.0417 8.38619 28.2635 7.89716L17.3558 1.62442C16.586 1.23681 15.6243 1.23631 14.8532 1.62417C14.762 1.67016 4.24575 7.76916 4.24575 7.76916C4.1002 7.83897 3.96 7.92211 3.82815 8.01651C3.13345 8.51438 2.71 9.2881 2.6665 10.1381V23.1288L4.54045 20.2495L4.52409 10.2259C4.52626 10.1893 4.53087 10.1532 4.5374 10.1176C4.57978 9.88174 4.71145 9.67135 4.9097 9.52917C4.95917 9.49376 15.6551 3.30254 15.6891 3.28555C15.9405 3.1593 16.26 3.1578 16.5117 3.28163L27.2782 9.4746C27.5329 9.63682 27.6926 9.91186 27.7068 10.2125V22.6293C27.6938 22.8926 27.5897 23.1366 27.385 23.3029L25.2976 24.5125L24.2206 25.1367L20.371 27.3676L16.4671 29.63C16.2569 29.706 16.011 29.7017 15.8025 29.6169L11.1836 26.9603L10.24 28.5606L14.3909 30.9504C14.5282 31.0285 14.6504 31.0977 14.7508 31.154C14.9062 31.2411 15.0121 31.2995 15.0495 31.3176C15.3445 31.4609 15.769 31.5443 16.1515 31.5443C16.5022 31.5443 16.8442 31.4799 17.1678 31.3532L28.507 24.7863C29.1578 24.2821 29.5407 23.5216 29.5752 22.6978V10.1438Z"
              fill="#96BEDC"/>
    </g>
    <defs>
        <clipPath id="clip0_1777_16766">
            <rect width="32" height="32" rx="6" fill="white"/>
        </clipPath>
    </defs>
</svg>
