<svg width="32" height="32" viewBox="0 0 32 32" fill="none" xmlns="http://www.w3.org/2000/svg">
    <g clip-path="url(#clip0_2383_24756)">
        <rect width="32" height="32" fill="black"/>
        <path d="M16.0001 7.42613C16.3854 7.42491 16.7633 7.53156 17.0911 7.734C17.419 7.93645 17.6835 8.2266 17.855 8.57163L23.6883 20.2383C23.8466 20.5545 23.9214 20.9059 23.9056 21.2592C23.8898 21.6124 23.784 21.9558 23.5981 22.2566C23.4123 22.5575 23.1526 22.8058 22.8437 22.978C22.5348 23.1502 22.1871 23.2405 21.8335 23.2405H10.1668C9.81327 23.2404 9.46559 23.15 9.15681 22.9777C8.84804 22.8055 8.58842 22.5572 8.40263 22.2564C8.21684 21.9555 8.11105 21.6122 8.09529 21.259C8.07954 20.9058 8.15435 20.5544 8.31262 20.2383L14.1453 8.57163C14.3167 8.2266 14.5813 7.93645 14.9091 7.734C15.2369 7.53156 15.6149 7.42491 16.0001 7.42613V7.42613ZM16.0001 6C15.3503 5.99994 14.7132 6.18081 14.1603 6.52237C13.6074 6.86392 13.1606 7.35267 12.8698 7.93386L7.03645 19.6005C6.76944 20.1341 6.6433 20.7272 6.67001 21.3233C6.69672 21.9194 6.87539 22.4988 7.18906 23.0064C7.50272 23.514 7.94095 23.933 8.46213 24.2236C8.98331 24.5142 9.57013 24.6667 10.1668 24.6666H21.8335C22.4301 24.6665 23.0169 24.514 23.5379 24.2233C24.059 23.9327 24.4972 23.5137 24.8108 23.0061C25.1244 22.4985 25.303 21.9192 25.3297 21.3231C25.3563 20.7271 25.2302 20.1341 24.9632 19.6005L19.1305 7.93386C18.8397 7.35267 18.3929 6.86392 17.84 6.52237C17.2871 6.18081 16.65 5.99994 16.0001 6V6Z"
              fill="#89D05F"/>
    </g>
    <defs>
        <clipPath id="clip0_2383_24756">
            <rect width="32" height="32" rx="6" fill="white"/>
        </clipPath>
    </defs>
</svg>
