<svg width="32" height="32" viewBox="0 0 32 32" fill="none" xmlns="http://www.w3.org/2000/svg">
    <g clip-path="url(#clip0_4391_52223)">
        <path d="M28 0C30.2091 0 32 1.79086 32 4V28C32 30.2091 30.2091 32 28 32H4C1.79086 32 0 30.2091 0 28V4C0 1.79086 1.79086 0 4 0H28ZM15.0469 6.68652L15.4668 8.95703L13.9629 9.23535L13.5469 6.9668L11.2051 7.39844L11.627 9.67969L8.05859 10.3389L8.41406 12.249L8.96289 12.1533C9.31879 12.0773 9.57915 12.0682 9.71777 12.1162C9.85628 12.1495 9.96151 12.2227 10.0361 12.3252C10.1121 12.4292 10.1884 12.6895 10.2617 13.0947L11.6963 20.7881C11.7763 21.1893 11.797 21.4554 11.7637 21.582C11.7316 21.7005 11.6592 21.8087 11.5381 21.8926C11.422 21.9884 11.185 22.0631 10.8203 22.123L10.2754 22.2305L10.6338 24.1396L14.1953 23.4775L14.6221 25.751L16.96 25.3145L16.5342 23.0449L17.8662 22.7949C17.8865 22.7913 17.906 22.7859 17.9248 22.7812C17.9613 22.7723 17.9969 22.7637 18.0381 22.7637L18.4619 25.0391L20.7969 24.5986L20.3428 22.1357C20.7131 21.9865 21.037 21.8202 21.3154 21.6523C22.0619 21.1818 22.6029 20.5962 22.9229 19.8857C23.2507 19.2007 23.3511 18.4813 23.2139 17.751C23.0939 17.1338 22.8457 16.607 22.4658 16.1631C22.0779 15.7166 21.6112 15.407 21.0674 15.2217C20.6863 15.0858 20.1573 14.9931 19.4873 14.9531C20.047 14.6359 20.4828 14.2824 20.792 13.9053C21.1039 13.5267 21.314 13.1063 21.4326 12.665C21.5499 12.2133 21.5667 11.7603 21.4814 11.3086C21.3695 10.6834 21.0807 10.1365 20.6182 9.68066C20.1478 9.22635 19.547 8.92789 18.8115 8.7666C18.5317 8.7013 18.1954 8.6797 17.8369 8.67969L17.3838 6.25098L15.0469 6.68652ZM16.3154 16.6953C17.1017 16.5501 17.691 16.5088 18.1016 16.582C18.5094 16.6513 18.8324 16.8149 19.083 17.0615C19.3243 17.3095 19.4789 17.6348 19.5615 18.04C19.6468 18.5265 19.5873 18.952 19.3887 19.3545C19.1794 19.7463 18.8948 20.0336 18.5283 20.2148C18.1671 20.3988 17.6873 20.5409 17.1035 20.6582L16.0957 20.8389C15.7603 20.9067 15.55 20.9213 15.4658 20.9014C15.3885 20.8814 15.3202 20.8285 15.2695 20.7432C15.2362 20.6805 15.171 20.4259 15.083 20.0127L14.5273 17.0322L16.3154 16.6953ZM15.0264 11.3398C15.914 11.1719 16.5343 11.1175 16.8955 11.1602C17.2674 11.2148 17.5605 11.3445 17.7871 11.5645C18.0204 11.7844 18.1675 12.0792 18.2314 12.4404C18.302 12.7948 18.257 13.1228 18.1211 13.4199C17.9758 13.7224 17.7341 13.9753 17.377 14.1699C17.0197 14.3752 16.4473 14.5571 15.6582 14.7051L14.1416 14.9863L13.5137 11.6211L15.0264 11.3398Z"
              fill="#0AC18E"/>
    </g>
    <defs>
        <clipPath id="clip0_4391_52223">
            <rect width="32" height="32" rx="6" fill="white"/>
        </clipPath>
    </defs>
</svg>
