<svg width="32" height="32" viewBox="0 0 32 32" fill="none" xmlns="http://www.w3.org/2000/svg">
    <g clip-path="url(#clip0_1777_16762)">
        <rect width="32" height="32" rx="4" fill="#814625"/>
        <path fill-rule="evenodd" clip-rule="evenodd"
              d="M19.6746 9.00007C19.6747 10.2593 20.1087 10.472 20.255 10.5078C20.2791 10.5136 20.3025 10.4962 20.3025 10.4723V10.0704C20.3026 9.84871 20.4495 9.72705 20.5962 9.66089C20.7819 9.57734 20.9986 9.57734 21.1842 9.66089C21.331 9.72705 21.4778 9.84871 21.4779 10.0704V10.4723C21.4779 10.4957 21.5005 10.5134 21.5241 10.5078C21.6695 10.4728 22.1057 10.2623 22.1058 9.00007H23.1078C23.1104 9.02402 23.3304 11.0785 21.5463 11.4813V13.3783C23.3784 13.7562 23.1562 15.843 23.1533 15.869C23.229 15.8691 23.2901 15.9285 23.2901 16.0013V16.0855C23.29 16.1583 23.2289 16.2171 23.1533 16.2171C23.1533 16.2171 23.39 18.3282 21.5463 18.7085V20.5181C23.3409 20.9233 23.1078 23 23.1078 23H22.1058C22.1058 21.7408 21.6718 21.5282 21.5254 21.4923C21.5014 21.4865 21.478 21.5033 21.4779 21.5271V21.929C21.4778 22.1508 21.331 22.2724 21.1842 22.3386C20.9986 22.4222 20.7819 22.4222 20.5962 22.3386C20.4494 22.2724 20.3026 22.1508 20.3025 21.929V21.5271C20.3024 21.5037 20.2799 21.486 20.2563 21.4916C20.1109 21.5266 19.6746 21.7375 19.6746 23H18.6726C18.6726 23 18.4308 20.8452 20.3367 20.4973V18.711C18.4798 18.3375 18.7176 16.2171 18.7176 16.2171V15.869C18.7152 15.8474 18.4893 13.7466 20.3367 13.3751V11.5022C18.4418 11.1563 18.6699 9.02478 18.6726 9.00007H19.6746ZM20.3012 14.3613C20.1558 14.3963 19.7202 14.607 19.7202 15.869V16.2178C19.7202 17.4775 20.1545 17.6898 20.3006 17.7255C20.3246 17.7312 20.3481 17.7138 20.3481 17.6901V17.2888C20.3481 17.0667 20.4948 16.9448 20.6418 16.8786C20.8274 16.795 21.0435 16.795 21.2292 16.8786C21.376 16.9448 21.5228 17.0667 21.5228 17.2888V17.6901C21.5228 17.7136 21.546 17.7312 21.5697 17.7255C21.7152 17.6904 22.1507 17.4795 22.1507 16.2178H22.0279C21.9524 16.2176 21.8912 16.1582 21.8912 16.0855V16.0013C21.8912 15.9285 21.9524 15.8692 22.0279 15.869H22.1507C22.1507 14.6093 21.7165 14.397 21.5703 14.3613C21.5463 14.3555 21.5229 14.3729 21.5228 14.3967V14.7987C21.5227 15.0205 21.376 15.142 21.2292 15.2082C21.0435 15.2917 20.8274 15.2917 20.6418 15.2082C20.4949 15.142 20.3482 15.0205 20.3481 14.7987V14.3967C20.3481 14.3733 20.3249 14.3556 20.3012 14.3613Z"
              fill="white"/>
        <path fill-rule="evenodd" clip-rule="evenodd"
              d="M28.3594 9.8147C30.0818 10.2489 29.8656 12.261 29.8633 12.282C29.9389 12.282 30 12.3415 30 12.4143V12.4985C30 12.5713 29.9388 12.6307 29.8633 12.6308C29.8664 12.6593 30.0859 14.7322 28.2714 15.1183H28.2917V16.9058C29.9988 17.3541 29.7728 19.368 29.7728 19.368C29.8484 19.368 29.91 19.427 29.9101 19.4997V19.5845C29.91 19.6573 29.8484 19.7162 29.7728 19.7162C29.7728 19.7162 30.0004 21.7476 28.2689 22.1841V22.9987H26.9283V22.2044C25.1018 21.8153 25.337 19.7162 25.337 19.7162V19.368C25.337 19.368 25.0943 17.2 27.0194 16.8621V15.1183C25.2047 14.7322 25.4244 12.6591 25.4275 12.6308V12.282C25.4252 12.2606 25.2018 10.1816 27.0188 9.79444V9.00007H28.3594V9.8147ZM28.1891 17.8603C28.1655 17.8546 28.1423 17.8722 28.1423 17.8958V18.2971C28.1423 18.5191 27.9955 18.6405 27.8486 18.7066C27.6629 18.7902 27.4468 18.7902 27.2612 18.7066C27.1144 18.6405 26.9675 18.519 26.9675 18.2971V17.8958C26.9675 17.8719 26.944 17.8545 26.92 17.8603C26.7737 17.8961 26.3396 18.1082 26.3396 19.368V19.7162C26.3396 20.9779 26.7751 21.1887 26.9207 21.2239C26.9442 21.2296 26.9673 21.2125 26.9675 21.1891V20.7872C26.9675 20.5652 27.1144 20.4437 27.2612 20.3776C27.4468 20.294 27.6629 20.294 27.8486 20.3776C27.9955 20.4437 28.1423 20.5652 28.1423 20.7872V21.1891C28.1425 21.2128 28.1658 21.2296 28.1898 21.2239C28.3359 21.1882 28.7708 20.9762 28.7708 19.7162H28.648C28.5725 19.7162 28.5108 19.6573 28.5107 19.5845V19.4997C28.5108 19.427 28.5725 19.368 28.648 19.368H28.7708C28.7708 18.1059 28.3346 17.8955 28.1891 17.8603ZM27.0112 10.7743C26.8657 10.8093 26.4302 11.02 26.4301 12.282V12.6308C26.4302 13.8905 26.8644 14.1021 27.0106 14.1379C27.0346 14.1437 27.058 14.1268 27.058 14.103V13.7011C27.0581 13.4793 27.2049 13.3577 27.3517 13.2916C27.5374 13.2081 27.7535 13.208 27.9391 13.2916C28.086 13.3577 28.2327 13.4793 28.2328 13.7011V14.103C28.2328 14.1265 28.256 14.1442 28.2796 14.1385C28.4251 14.1034 28.8606 13.8925 28.8607 12.6308H28.7385C28.6628 12.6308 28.6012 12.5713 28.6012 12.4985V12.4143C28.6012 12.3414 28.6628 12.282 28.7385 12.282H28.8607C28.8606 11.0222 28.4264 10.81 28.2803 10.7743C28.2562 10.7685 28.2328 10.7859 28.2328 10.8097V11.211C28.2328 11.4331 28.086 11.555 27.9391 11.6212C27.7535 11.7047 27.5374 11.7047 27.3517 11.6212C27.2048 11.555 27.058 11.4331 27.058 11.211V10.8097C27.058 10.7863 27.0348 10.7686 27.0112 10.7743Z"
              fill="white"/>
        <path d="M10.9778 10.2033C10.9778 10.2033 13.2596 7.90676 15.2123 9.65899C16.9714 11.2376 15.4258 13.6968 15.1022 14.1689C15.1217 14.2391 15.1397 14.3099 15.156 14.3809C15.1634 14.4136 15.1699 14.4466 15.1756 14.4797C15.1879 14.551 15.204 14.6216 15.2268 14.6904C15.568 15.7213 16.8117 16.1801 16.8118 18.1426C16.8118 20.2908 15.3114 21.9834 12.2488 21.9835H11.0493C11.0437 21.9895 10.3925 22.6961 9.4062 22.6968C8.34369 22.6977 7.82629 21.9912 7.82065 21.9835H6.5636C3.50086 21.9835 2 20.2501 2 18.1426C2.00007 16.0352 3.43497 15.6617 3.64568 14.4518C3.6576 14.383 3.67525 14.315 3.69758 14.2486C3.68239 14.2282 1.5858 11.4048 3.53112 9.65899C5.47757 7.9124 7.75105 10.1887 7.76558 10.2033C8.84732 9.87825 9.95936 9.91337 10.9848 10.2135L10.9778 10.2033Z"
              fill="white"/>
    </g>
    <defs>
        <clipPath id="clip0_1777_16762">
            <rect width="32" height="32" rx="8" fill="white"/>
        </clipPath>
    </defs>
</svg>
