<svg width="32" height="32" viewBox="0 0 32 32" fill="none" xmlns="http://www.w3.org/2000/svg">
    <g clip-path="url(#clip0_2383_24744)">
        <rect width="32" height="32" fill="#008CE7"/>
        <path fill-rule="evenodd" clip-rule="evenodd"
              d="M19.4099 7H11.3988L10.7348 10.7404L17.9639 10.7492C21.5242 10.7492 22.577 12.0519 22.547 14.2148C22.5315 15.3228 22.055 17.1956 21.8491 17.8028C21.3005 19.4214 20.1736 21.2684 15.9479 21.2611L8.92078 21.2581L8.2554 25H16.2486C19.0681 25 20.268 24.6696 21.5368 24.078C24.3518 22.7678 26.0269 19.9676 26.6976 16.3131C27.6971 10.8712 26.4526 7 19.4099 7ZM5.353 16.2995C5.55186 15.4639 5.87155 14.1208 7.94287 14.1208H16.1453C16.1453 14.1208 16.0601 14.5625 15.8001 15.6535C15.7975 15.6641 15.7949 15.6749 15.7923 15.6858C15.5935 16.5214 15.2738 17.8646 13.2025 17.8646H5C5 17.8646 5.08523 17.4228 5.34528 16.3319C5.34783 16.3212 5.35041 16.3104 5.353 16.2995Z"
              fill="white"/>
    </g>
    <defs>
        <clipPath id="clip0_2383_24744">
            <rect width="32" height="32" rx="6" fill="white"/>
        </clipPath>
    </defs>
</svg>
