<svg width="32" height="32" viewBox="0 0 32 32" fill="none" xmlns="http://www.w3.org/2000/svg">
    <g clip-path="url(#clip0_4468_24246)">
        <rect width="32" height="32" fill="#BA9F33"/>
        <path fill-rule="evenodd" clip-rule="evenodd" d="M6.99561 14.2911C6.90499 14.2084 6.80924 14.1254 6.72118 14.0426C6.63311 13.9599 6.54266 13.8769 6.45204 13.7941L6.18272 13.5381C6.13869 13.4941 6.0921 13.4554 6.04807 13.4112C6.00404 13.3724 5.95232 13.3284 5.90829 13.2895C5.55092 12.9504 5.19149 12.6113 4.83907 12.272C5.20412 12.606 5.5615 12.9376 5.92655 13.2765L6.05336 13.4035C6.09739 13.4474 6.14398 13.4863 6.18801 13.5303L6.45716 13.7788C6.54778 13.8616 6.63584 13.9445 6.72647 14.0348C6.81709 14.1251 6.90516 14.2082 6.99578 14.2908L6.99561 14.2911ZM2.25261 14.2399C2.25261 14.2399 3.55224 14.3744 4.18661 14.465C4.77421 14.548 6.61246 14.8301 6.61246 14.8301L2.25261 14.2399ZM2.25261 14.2399C2.61767 14.271 2.98272 14.3097 3.34778 14.3486C3.53415 14.3667 3.71284 14.3874 3.89152 14.4055L4.16579 14.4367C4.25641 14.4495 4.34447 14.4625 4.4351 14.4754L5.52259 14.6488L6.06616 14.7395C6.24485 14.7705 6.42353 14.8043 6.6099 14.8354C6.43121 14.8173 6.24485 14.7914 6.06616 14.7654L5.52259 14.6878L4.4351 14.5273C4.34447 14.5144 4.25641 14.4961 4.16579 14.4833L3.89135 14.4517C3.71267 14.4336 3.5263 14.4077 3.34761 14.3869C2.98255 14.343 2.6175 14.2962 2.25244 14.2394L2.25261 14.2399ZM6.4831 15.1687C6.4831 15.1687 5.09541 15.521 4.62676 15.6556C4.16596 15.7824 2.77041 16.207 2.77041 16.207L6.48293 15.1689L6.4831 15.1687Z" fill="#CFB66C"/>
        <path fill-rule="evenodd" clip-rule="evenodd" d="M6.48286 15.1689C6.17481 15.2596 5.86846 15.3476 5.55597 15.4306L4.62908 15.6791C4.32103 15.7697 4.01468 15.8578 3.70748 15.9484L3.24668 16.0752C3.09394 16.1192 2.93863 16.158 2.78076 16.2022C2.93334 16.151 3.08882 16.0986 3.24156 16.0545L3.70236 15.9071C4.01042 15.8112 4.31676 15.7205 4.62396 15.6248C4.93713 15.5471 5.24536 15.4642 5.55853 15.3891C5.85618 15.314 6.16952 15.2391 6.48286 15.1691V15.1689ZM2.96457 17.0616C3.11715 17.0046 4.87774 16.1841 5.28683 15.9924C5.49163 15.8965 6.08692 15.6852 6.08692 15.6852L2.96457 17.0616Z" fill="#CFB66C"/>
        <path fill-rule="evenodd" clip-rule="evenodd" d="M2.96453 17.0615C3.09901 17.0103 3.22599 16.9476 3.35535 16.8881L3.7385 16.7094L4.50752 16.3392C4.76352 16.2175 5.01236 16.0832 5.27638 15.9688C5.41103 15.912 5.54569 15.8654 5.68017 15.8214L5.88497 15.7567C5.95478 15.7386 6.01963 15.7178 6.08977 15.6997C5.83377 15.8214 5.56429 15.925 5.30795 16.0439C5.05195 16.1709 4.79015 16.2745 4.52596 16.3883L3.74413 16.7326C3.48165 16.8389 3.22565 16.9527 2.96436 17.0615H2.96453ZM3.13519 17.7783C3.13519 17.7783 4.7299 16.8437 5.27877 16.5433C5.56617 16.3829 6.49562 15.9219 6.49562 15.9219L3.13519 17.7783Z" fill="#CFB66C"/>
        <path fill-rule="evenodd" clip-rule="evenodd" d="M3.13525 17.7785C3.4044 17.6127 3.67883 17.4445 3.95326 17.2736L4.36286 17.025C4.50264 16.9422 4.63729 16.8645 4.7798 16.7818C4.91957 16.6988 5.05423 16.616 5.19657 16.5384C5.26432 16.4966 5.33532 16.4602 5.40887 16.4297L5.6263 16.321C5.91371 16.1812 6.20111 16.0387 6.50404 15.917C6.22961 16.0906 5.94733 16.2382 5.66522 16.3908C5.52544 16.4684 5.38293 16.5384 5.24316 16.616C5.10338 16.6937 4.96873 16.7766 4.82622 16.8517C4.68644 16.9345 4.55179 17.0122 4.40945 17.0873L3.98739 17.3177L3.1356 17.7785H3.13525ZM6.48271 16.1266C6.48271 16.1266 5.49114 16.8877 5.17011 17.1311C4.84909 17.3745 3.90411 18.058 3.90411 18.058L6.48271 16.1266Z" fill="#CFB66C"/>
        <path fill-rule="evenodd" clip-rule="evenodd" d="M12.1734 22.2655L11.666 21.305L11.9611 20.1037L14.0659 19.2908L13.1701 17.4527L13.6128 15.5964L14.444 13.9341L17.0123 13.5303L18.8996 11.731L22.9747 12.039L23.7746 16.3963L22.2342 21.8824L21.3566 24.7226L17.7993 24.8573L16.1476 23.713L14.2136 22.905L12.1734 22.2655Z" fill="#E2CC85"/>
        <path fill-rule="evenodd" clip-rule="evenodd" d="M18.413 22.2342C18.413 22.2342 17.921 22.4594 17.0818 22.4075C16.839 22.0814 15.1381 21.9287 15.1381 21.9287C15.1381 21.9287 14.9258 21.864 14.5503 22.0193C14.1725 22.1729 13.8151 22.1539 13.4811 22.2367C13.1471 22.3195 12.8155 21.8846 12.5595 21.794C12.3035 21.6983 11.964 21.4679 11.964 21.4679L11.2472 21.3979L9.80783 20.7895L7.52106 18.5112L6.89967 19.484L6.70801 20.6879L7.39938 22.1145L9.26084 23.8103L12.8906 24.7319L15.042 24.098L17.7372 22.9588L18.413 22.234V22.2342Z" fill="#F1D789"/>
        <path fill-rule="evenodd" clip-rule="evenodd" d="M5.51706 14.1824L5.97786 12.787L6.5269 11.8859L8.295 11.7383L7.76423 13.2866L6.28609 15.9171L6.89963 18.2653L5.81232 18.8088L5.47815 18.2963L5.20901 17.1209L5.19092 15.8005L5.51706 14.1824Z" fill="#F4ECB4"/>
        <path fill-rule="evenodd" clip-rule="evenodd" d="M7.5005 22.1383L7.16138 21.6646C7.16138 21.6646 7.07076 21.4393 7.12264 21.2425C7.17384 21.0432 7.1665 21.0302 7.14073 20.9551C7.11496 20.88 6.89736 20.6211 6.91033 20.3984C6.92313 20.1731 6.89224 20.098 7.05779 19.9195C7.23118 19.7461 7.17947 19.4457 7.17947 19.4457L7.40475 19.5855L7.45595 19.5078C7.45595 19.5078 7.53872 19.5725 7.53872 19.6736C7.55682 19.5338 7.48172 18.8864 7.65256 18.739C7.8234 18.5915 8.12633 19.4302 8.12633 19.4302L7.93996 18.2133L7.4609 16.9656L6.6091 15.8264L6.5579 14.5706V14.4619C6.5579 14.4619 6.16691 15.0627 6.05819 15.5371C5.98054 15.8633 6.16691 16.2594 6.12816 16.728C6.09693 17.1941 6.05819 17.1578 6.17203 17.3424C6.28586 17.5271 6.56302 17.9068 6.45431 18.1813C6.35856 18.4169 6.03225 18.2512 6.03225 18.2512C6.03225 18.2512 5.96757 18.4427 5.8795 18.5127C5.84844 18.3989 5.81482 18.3263 5.7527 18.2567C5.74741 18.3007 5.73461 18.3603 5.73461 18.3603C5.73461 18.3603 5.6776 18.1816 5.6206 17.9563C5.54312 17.6561 5.46018 17.26 5.38508 17.0477C5.35402 17.1694 5.27637 17.5395 5.27637 17.5395L5.3204 18.1092L5.53271 18.8911L5.73751 19.4031L5.93685 20.0296L6.11007 20.4504L6.24985 20.7715L6.37154 21.4939L6.95914 22.1151L7.27248 22.2551L7.50015 22.1385L7.5005 22.1383Z" fill="#F3E19D"/>
        <path fill-rule="evenodd" clip-rule="evenodd" d="M5.82534 13.0434C5.82534 13.0434 5.40328 13.7602 5.28177 14.4828C5.16026 15.2054 5.05137 15.9689 5.12817 16.9527C5.20582 17.9444 5.35345 18.5527 5.47258 18.9877C5.67738 19.7101 6.20781 20.7147 6.20781 20.7147L6.2259 20.6758C6.13674 20.5068 6.06558 20.3289 6.01359 20.145C5.94362 19.8706 5.91767 19.5444 5.85299 19.3968C5.79599 19.2493 5.70024 19.1224 5.65365 18.9411C5.60962 18.7677 5.60245 18.4933 5.46728 18.2888C5.41028 18.2059 5.34031 17.9884 5.31966 17.771C5.29372 17.4447 5.33263 17.0796 5.30157 16.7794C5.24456 16.2797 5.20582 15.9406 5.25753 15.679C5.30925 15.4174 5.57873 14.6746 5.74445 14.0843C5.85316 13.7062 5.78831 13.3878 5.98765 13.0589C6.18699 12.7328 6.30884 12.4454 6.3527 12.246C6.4039 12.0648 5.82466 13.0434 5.82466 13.0434H5.82534Z" fill="#F2E8B0"/>
        <path fill-rule="evenodd" clip-rule="evenodd" d="M7.82678 12.7559C7.82678 12.7559 7.60935 12.8207 7.50576 12.9345C7.40216 13.0433 7.35813 13.1339 7.21835 13.3177C7.07858 13.5015 7.07073 13.6517 6.95672 13.8821C6.84289 14.1074 6.59167 14.4465 6.5606 14.5682C6.52954 14.6899 6.47783 15.2594 6.41315 15.5287C6.35615 15.798 6.47783 16.1294 6.47783 16.1294L6.62529 16.0982C6.62529 16.0982 6.62529 16.2899 6.77291 16.4194C6.92037 16.5462 6.94631 15.9895 6.94631 15.9895L7.49774 14.128L8.32871 13.5636L8.41934 13.1079L7.82644 12.7559H7.82678Z" fill="#F5EEC0"/>
        <path fill-rule="evenodd" clip-rule="evenodd" d="M8.23037 13.6C8.23037 13.6 7.83937 13.6258 7.64788 13.7657C7.57023 13.8226 7.53917 13.8692 7.4564 13.9391C7.30365 14.0659 7.14817 14.1825 7.07325 14.3487C6.9903 14.5143 6.89968 14.7655 6.83756 15.2393C6.81162 15.4386 6.81162 15.6224 6.79353 15.783C6.76758 16.0004 6.72884 16.1738 6.74949 16.295C6.77544 16.5435 7.03178 16.673 7.05669 16.9552L7.58747 16.686L8.08718 14.7157L9.14873 14.0501L8.54798 13.377L8.22969 13.5988L8.23037 13.6Z" fill="#E6DB9D"/>
        <path fill-rule="evenodd" clip-rule="evenodd" d="M5.43035 26.8677C5.43256 26.8482 5.43478 26.8288 5.437 26.8088C5.51449 26.1432 5.52763 25.6387 5.58446 25.3228C5.66723 24.875 5.72423 24.7084 5.71126 24.5408C5.69317 24.2717 5.67252 24.0749 5.69846 23.8677C5.73721 23.5933 6.00652 23.2671 5.99884 23.0419C5.99355 22.8632 5.90292 22.7468 5.82527 22.6381C5.74762 22.5293 5.68549 22.4387 5.68549 22.4387C5.68549 22.4387 6.21627 22.0737 6.21115 20.603C6.22199 20.6061 6.23241 20.6104 6.24221 20.616L6.50367 21.3589L6.68236 21.5763L7.36844 22.8553L8.2513 23.7124L9.55604 24.59L10.3742 25.4803L10.457 27.8545L9.38776 29.2422L9.21266 29.5593C7.82151 28.8609 6.54582 27.9531 5.43018 26.8675L5.43035 26.8677Z" fill="#E5CB7A"/>
        <path fill-rule="evenodd" clip-rule="evenodd" d="M8.69678 29.1392C8.69678 29.1392 8.71487 28.8441 8.95824 28.6525C8.99715 28.7172 9.02292 28.7795 9.01524 28.8259C9.05927 28.7484 9.36733 28.2512 10.0638 28.1217C10.7603 27.9949 10.9286 27.4875 10.9286 27.4875L12.4067 26.1438L14.0974 24.5879L16.153 23.8654L17.1137 23.6298C17.1137 23.6298 17.1318 23.6997 17.0956 23.855C17.2741 23.8422 17.6703 23.7516 18.0819 23.6065C18.2476 23.5419 18.4031 23.5159 18.4859 23.6014C18.6076 23.7153 18.6257 23.9846 18.6333 24.145C18.8327 24.101 19.0631 23.9095 19.2477 23.9276C19.543 23.9586 19.8044 24.3056 20.1048 24.3056C20.5009 24.3056 20.6795 24.0622 20.9566 23.8706C21.1223 23.7567 21.3604 23.6146 21.4951 23.5185C21.8161 23.2828 25.2129 22.2446 25.2129 22.2446L26.4038 22.3223L26.5954 23.6013L26.493 26.9446C26.4804 26.9567 26.4678 26.9694 26.455 26.9815L21.0401 29.8096L13.5342 30.9602C11.8528 30.6855 10.2303 30.1274 8.73569 29.3097L8.69729 29.1391L8.69678 29.1392Z" fill="#D8C173"/>
        <path fill-rule="evenodd" clip-rule="evenodd" d="M5.88574 27.2932C5.99241 27.0702 6.08832 26.8836 6.10522 26.8169C6.11853 26.9514 6.14294 27.2465 6.19209 27.5601C6.08889 27.4724 5.98678 27.3834 5.88574 27.2931V27.2932Z" fill="#F1D789"/>
        <path fill-rule="evenodd" clip-rule="evenodd" d="M11.3684 30.4397L12.3391 30.1697L12.4219 30.1957C12.4219 30.1957 12.4659 30.2216 12.4659 30.3095C12.5876 30.2397 12.6912 30.2525 12.7663 30.2061C12.8051 30.2889 12.8438 30.5633 13.0148 30.5969C13.1933 30.6358 13.385 30.5193 13.5792 30.3718C13.7707 30.219 13.9888 30.0274 14.1538 29.9497C14.2144 30.0611 14.268 30.176 14.3144 30.294C14.5319 30.1206 14.9099 29.4164 15.4483 29.4292C15.604 29.0614 15.864 28.7473 16.1962 28.5257C16.6959 28.1866 17.0091 28.1606 17.4001 28.1917C17.5554 27.99 17.7467 27.8188 17.9645 27.6869C18.0292 27.7128 18.2078 27.8215 18.4306 27.7179C18.6558 27.6145 18.9095 27.2131 19.2435 27.1614C19.4234 27.1366 19.6064 27.175 19.7613 27.2701C19.7613 27.2701 20.7341 26.3043 21.4053 25.9833C21.3793 25.9056 21.3276 25.6131 22.1146 24.9658C22.1586 25.0047 22.1276 25.1134 22.1586 25.1194C22.1714 25.1194 22.3634 25.0366 22.6064 24.85C22.9068 24.6249 23.2666 24.3892 23.484 24.3246C23.8936 24.2029 24.3281 24.4514 24.3281 24.4514C24.3651 24.4255 24.4063 24.4062 24.4498 24.3944C24.5532 24.3763 24.6283 24.3633 24.6853 24.3432C24.6802 24.4778 24.7553 24.7082 24.6853 24.9076C24.7664 24.9531 24.8522 24.9896 24.9413 25.0163C24.8975 25.112 24.8016 25.3554 24.6411 25.472C24.7756 25.5366 24.7937 25.6117 24.9854 25.6768C24.9077 25.7855 24.7806 25.972 24.7239 26.0864C24.6669 26.208 24.4623 26.7129 24.3716 26.9044C24.2759 27.096 24.1465 27.4481 24.0842 27.5188C24.0219 27.5894 23.7968 27.8889 23.6234 28.0364C23.777 27.9794 24.4054 27.7879 24.672 27.7154C24.5927 27.8318 24.1904 28.4286 23.8037 29.0025C21.952 30.1124 19.8851 30.8148 17.7406 31.0631C15.5962 31.3113 13.4234 31.0997 11.3672 30.4423L11.3684 30.4397Z" fill="#E0CD81"/>
        <path fill-rule="evenodd" clip-rule="evenodd" d="M8.29448 13.5302C8.29448 13.5302 8.06937 13.5302 8.02534 13.5613C7.98131 13.5923 8.25062 13.6572 8.33339 13.6882C8.41616 13.7193 8.59485 13.8616 8.64144 13.9756C8.68548 14.0844 10.2595 14.7185 10.2595 14.7185L11.3728 14.6615L11.7566 14.1313L11.0265 13.4918L11.5385 11.9824L10.8603 12.0911L9.22922 13.0639L8.41104 13.3773L8.29448 13.5302Z" fill="#DFC57C"/>
        <path fill-rule="evenodd" clip-rule="evenodd" d="M10.7393 14.0299C10.7553 14.056 10.778 14.0773 10.805 14.0919C10.8319 14.1064 10.8622 14.1136 10.8929 14.1127C11.1233 14.1127 11.3354 14.1697 11.4235 14.2861C11.5711 14.4726 11.9802 15.0681 11.9802 15.0681L12.9588 15.4202L13.0219 14.2678L11.9527 13.5249L10.7358 13.9727V14.0297H10.7386L10.7393 14.0299Z" fill="#E5CC7C"/>
        <path fill-rule="evenodd" clip-rule="evenodd" d="M10.5471 14.4571C10.5471 14.4571 10.7257 14.47 10.9509 14.3871C11.1762 14.3041 11.5464 14.1256 11.707 14.1956C11.9321 14.2913 11.8855 14.5917 12.1291 14.8612C12.2765 15.0269 12.5458 15.0218 12.6986 15.2005C12.8513 15.3792 13.3768 15.2962 13.3768 15.2962L13.5761 16.3714L12.7762 17.3968L12.5146 18.6705H11.4329L10.4447 18.2785L9.95801 17.1009L10.2014 15.9099L10.5471 14.4571Z" fill="#D2C281"/>
        <path fill-rule="evenodd" clip-rule="evenodd" d="M12.6397 14.5087C12.6665 14.517 12.6944 14.5214 12.7224 14.5217C12.6914 14.5476 12.6265 14.6045 12.6525 14.7521C12.6784 14.8997 12.7612 15.0861 12.6914 15.1999C12.7471 15.2609 12.7886 15.3334 12.8131 15.4122C12.8571 15.5392 12.8701 15.6556 13.1573 15.6739C13.1158 15.6994 13.0776 15.7298 13.0435 15.7645C13.0435 15.7645 13.2428 15.9379 13.3438 16.0983C13.4473 16.0939 13.7217 16.0085 13.7217 16.0085L13.7787 16.0475L13.9004 15.9963C13.9004 15.9963 13.7865 15.9522 13.8693 15.6752C13.947 15.4319 14.0169 15.4448 14.0229 15.4267C14.0289 15.4087 14.0799 15.1523 14.0799 15.0487C14.1187 14.9142 14.1497 14.5051 14.1497 14.5051L14.0669 13.6016L13.601 13.3194L13.2221 12.9536L12.8648 13.6267L12.6294 13.8614L12.6113 14.4439L12.6397 14.5087Z" fill="#E2C270"/>
        <path fill-rule="evenodd" clip-rule="evenodd" d="M13.7607 13.7527C13.7607 13.7527 13.8435 13.9882 13.8747 14.1695C13.8858 14.1343 13.8918 14.0977 13.8928 14.0608C13.8928 14.0608 13.9575 14.4181 13.9703 14.5658C13.9963 14.5605 14.0215 14.5528 14.0273 14.5786C14.0331 14.6043 14.0922 14.8919 14.0785 15.0523C14.1863 14.8745 14.3355 14.7253 14.5134 14.6175C14.617 14.5526 14.7387 14.4828 14.8656 14.4775C15.065 14.4724 15.2099 14.6045 15.4481 14.6045C16.0228 14.6045 16.5433 14.1825 16.9264 14.0531C17.2085 13.9572 17.4519 13.8874 17.6228 13.7319C17.7057 13.6621 17.8533 13.5068 17.9878 13.2762C18.1665 12.969 18.3529 12.7016 18.5394 12.668C18.455 12.6835 18.3691 12.6895 18.2834 12.6861C18.2834 12.6861 18.3404 12.629 18.437 12.5514C18.5336 12.4737 18.6493 12.378 18.8149 12.378C19.1101 12.378 19.2576 12.4219 19.4233 12.4219C19.589 12.4167 19.6848 12.378 19.6848 12.378C19.6848 12.378 19.8583 12.4997 20.2491 12.4997C20.6401 12.5048 20.9016 12.5384 21.1062 12.5567C21.3109 12.5749 21.9968 12.4997 22.1936 12.5055C22.3218 12.5104 22.4478 12.5413 22.5639 12.5961L21.9295 10.7529L19.6508 8.76123L18.2942 9.72174L16.2072 11.8085L14.1879 12.5567L13.7659 13.0305V13.7527H13.7607Z" fill="#CCB360"/>
        <path fill-rule="evenodd" clip-rule="evenodd" d="M18.2913 12.6966C18.2913 12.6966 18.3483 12.6397 18.4439 12.5621C18.5395 12.4844 18.6564 12.3885 18.8219 12.3885C19.117 12.3885 19.2647 12.4326 19.4304 12.4326C19.5961 12.4274 19.6918 12.3885 19.6918 12.3885C19.6918 12.3885 19.8656 12.51 20.2562 12.51C20.6472 12.5152 20.9087 12.5488 21.1133 12.5669C21.3179 12.585 22.0039 12.51 22.2006 12.5157C22.3289 12.5205 22.4548 12.5513 22.5708 12.6063L22.2834 11.7751L21.9496 11.1409L20.9968 10.0975C20.9968 10.0975 19.8533 9.42438 19.8446 9.41926C19.8395 9.41414 19.4485 9.31055 19.4485 9.31055L18.4129 9.93706L17.4732 12.3682L17.4551 12.8802L18.0633 13.1676C18.2161 12.9116 18.3845 12.7068 18.5424 12.6809C18.3999 12.6964 18.2912 12.6964 18.2912 12.6964L18.2913 12.6966Z" fill="#D5B457"/>
        <path fill-rule="evenodd" clip-rule="evenodd" d="M18.2786 12.8702C18.188 12.8753 18.1131 12.8572 18.0922 12.7925C18.0146 12.5751 17.9525 12.544 17.8874 12.544C17.8224 12.544 17.7347 12.6838 17.6826 12.6966C17.6306 12.7094 17.5688 12.5362 17.5688 12.5362L17.5118 12.5103C17.5118 12.5103 17.1778 12.7277 16.9423 12.984C16.7068 13.2404 16.3209 13.6754 16.1475 13.7529C15.9741 13.8304 15.3785 13.8565 15.1747 13.9005C14.9709 13.9445 14.745 14.0922 14.7139 14.1258C14.6828 14.1594 14.8047 14.1956 14.8228 14.2292C14.8409 14.2603 14.6233 14.2473 14.6052 14.2804C14.5924 14.3063 14.6564 14.4538 14.6881 14.5289C14.7437 14.5013 14.8046 14.4862 14.8666 14.4849C15.066 14.4797 15.2111 14.6118 15.4491 14.6118C16.0239 14.6118 16.5443 14.1898 16.9274 14.0602C17.2097 13.9645 17.4531 13.8945 17.6239 13.7392C17.7067 13.6694 17.8543 13.5139 17.989 13.2835C18.0873 13.1257 18.1832 12.9781 18.2791 12.8693L18.2786 12.8702Z" fill="#D2B257"/>
        <path fill-rule="evenodd" clip-rule="evenodd" d="M10.0352 25.6832C10.0352 25.6832 9.984 25.4915 9.50955 24.9971C9.3749 24.8573 9.29212 24.7411 9.2015 24.658C8.97622 24.4455 8.84412 24.3887 8.6837 24.267C8.33161 24.0055 7.94846 24.0055 7.65338 23.6845C7.3583 23.3635 7.0144 22.7501 6.77547 22.1232C6.53995 21.4967 6.4751 21.2974 6.4751 21.2793C6.4751 21.2612 6.53995 21.1395 6.62272 21.1576C6.7055 21.1757 6.7055 21.3361 6.72632 21.375C6.76756 21.4385 6.81433 21.4983 6.8661 21.5535C6.98778 21.6935 7.16118 21.8607 7.24924 22.1103C7.23115 21.8979 7.15862 21.6624 7.15862 21.6624C7.15862 21.6624 7.6143 21.9498 8.00256 22.25C8.39356 22.5504 8.55399 22.654 8.66816 22.8455C8.78234 23.037 9.05131 23.542 9.18016 23.6896C9.30902 23.8372 11.0746 24.3938 11.0746 24.3938L11.9144 25.0199L12.3314 25.9339L12.005 26.4459L11.3785 26.5805L10.361 26.1248L10.0352 25.683V25.6832Z" fill="#D2B159"/>
        <path fill-rule="evenodd" clip-rule="evenodd" d="M7.7749 22.5347C7.7749 22.5347 7.98721 22.8738 8.50501 23.1948C8.9711 23.4771 9.7089 23.7335 10.3666 23.8862C10.7445 23.9768 11.1225 24.0466 11.4616 24.0519C12.3756 24.0647 13.0046 23.8034 13.7841 23.7179C14.2061 23.6739 14.7239 23.6403 15.2624 23.5131C15.9536 23.3474 16.3627 23.1609 16.9194 22.8987C17.3232 22.7124 17.6935 22.5726 17.9937 22.3939C18.4158 22.1454 18.7239 21.8684 19.0812 21.7856C19.0372 21.9073 18.9906 22.1248 18.6385 22.35C18.8249 22.3447 19.0812 22.3319 19.0812 22.3319C19.0812 22.3319 18.8327 22.4794 18.3951 22.8108C18.1258 23.0156 17.7686 23.3623 17.4036 23.5927C17.1679 23.7403 16.9115 23.8487 16.7433 23.9371C16.3337 24.1623 16.1685 24.2762 15.8993 24.5515C15.9951 24.5463 16.0029 24.5515 16.0029 24.5515C16.0029 24.5515 15.6636 24.5955 15.4204 24.7249C15.3692 24.7249 15.2805 24.7068 15.1252 24.7508C15.0035 24.7895 14.8429 24.8778 14.6773 24.9242C14.4417 24.9942 14.3642 24.9631 14.3642 24.9631L14.4029 25.0408C14.4029 25.0408 14.0957 25.0355 13.9933 25.0459C14.0114 25.051 14.0063 25.0589 14.0063 25.0589C13.9883 25.0619 13.971 25.068 13.9551 25.077C13.9058 25.1089 13.8516 25.1325 13.7947 25.1468C13.7636 25.1519 13.7377 25.1519 13.6987 25.1597C13.7117 25.1908 13.8127 25.3645 13.8593 25.4669C13.8206 25.4929 13.2379 25.933 13.2379 25.933C13.256 25.9615 13.2708 25.9919 13.282 26.0236C13.3001 26.0805 13.3079 26.1634 13.326 26.2022C13.3699 26.2798 13.3958 26.2928 13.3958 26.2928C13.3958 26.2928 13.326 26.3058 13.2042 26.3368C13.1007 26.3628 12.9738 26.4066 12.7946 26.4326C12.7396 26.4397 12.6843 26.444 12.6288 26.4455C12.6548 26.5025 12.7686 26.72 12.5589 26.971C12.3491 27.2221 12.2844 27.2586 12.2197 27.419C12.1872 27.3944 12.1525 27.3727 12.1162 27.3542C12.0463 27.3231 11.9504 27.2767 11.9168 27.2144C11.8972 27.2974 11.8713 27.3787 11.8392 27.4578C11.7745 27.6311 11.6787 27.8022 11.6606 27.9315C11.5907 27.8539 11.4613 27.7011 11.2826 27.7322C11.1039 27.7632 10.9616 28.0066 10.9305 28.0766C10.9305 28.0326 10.8995 27.9989 10.8918 28.0506C10.8865 28.1076 10.7882 28.7029 10.2393 29.1846C10.2342 29.0629 10.2342 28.7936 10.2212 28.7057C10.17 28.7569 10.1074 28.8325 9.7345 28.9931C9.36944 29.1535 9.4273 29.3141 9.4273 29.3141C9.4273 29.3141 9.39624 29.0581 9.59301 28.7884C9.79235 28.5193 9.91404 28.3923 9.91404 28.3717C9.91082 28.3506 9.90184 28.3309 9.8881 28.3147C9.86216 28.2887 9.81044 28.2577 9.81044 28.237C9.84151 28.2242 10.1496 28.0766 10.1315 27.7709C10.1134 27.4967 9.99698 27.3542 9.91404 27.2533C9.90124 27.2403 10.0359 27.1446 10.0176 27.1135C10.0047 27.0954 9.83912 26.9736 9.8183 26.9087C9.82319 26.87 9.83188 26.8319 9.84424 26.7949C9.86233 26.7379 9.8753 26.699 9.87018 26.6602C9.85721 26.5955 9.78723 26.4169 9.76658 26.3988C9.78467 26.4039 9.91404 26.3988 9.91404 26.3988C9.91404 26.3988 9.81061 26.233 9.79235 26.1554C9.77409 26.0777 9.73535 25.8731 9.7147 25.8344C9.75873 25.8395 9.86745 25.8472 9.86745 25.8344C9.87274 25.7955 9.7717 25.7308 9.81625 25.6808C9.84731 25.6859 9.90687 25.7118 9.9637 25.7844C9.93264 25.7014 9.88093 25.541 9.77204 25.4763C9.82324 25.4582 9.99732 25.4115 10.1501 25.5021C10.3028 25.5927 10.3549 25.7195 10.3549 25.7195C10.3549 25.7195 10.4455 25.7895 10.5854 25.8931C10.7459 26.0199 10.9503 26.2003 11.2766 26.3279C11.3466 26.3669 11.5251 26.3669 11.6547 26.3409C11.7111 26.3275 11.7651 26.3057 11.8151 26.2762C11.8331 26.2656 11.8522 26.2569 11.8721 26.2503C11.8443 26.1944 11.8123 26.1407 11.7764 26.0897C11.8204 26.0897 11.8721 26.095 11.8721 26.095C11.8721 26.095 11.9032 26.025 11.7634 25.8902C11.7944 25.8591 11.8334 25.839 11.8334 25.7866C11.7893 25.7815 11.7117 25.7168 11.6936 25.6908C11.7194 25.6727 11.7583 25.6132 11.8023 25.5951C11.7634 25.564 11.6676 25.4345 11.6236 25.4217C11.6657 25.4061 11.7064 25.387 11.7453 25.3647C11.7453 25.3647 11.5279 25.3077 11.4579 25.2611C11.3879 25.2099 11.2845 25.1213 11.2224 25.0954C11.1575 25.0694 11.0437 25.0566 10.9971 25.0048C11.041 25.0177 11.1109 25.0048 11.1628 25.0048C11.2015 25.0048 11.2198 25.0099 11.2326 25.0099C11.2275 24.9918 11.2275 24.9529 11.3285 24.9401C11.3771 24.9328 11.4243 24.9179 11.4683 24.896C11.4683 24.896 11.3724 24.8909 11.2635 24.7873C11.1546 24.6837 11.0642 24.601 11.002 24.588C10.9374 24.575 10.8157 24.632 10.7406 24.6267C10.637 24.6139 10.593 24.5621 10.593 24.5621C10.593 24.5621 10.2487 24.5931 9.48498 24.1272C8.82467 23.7232 8.53727 23.366 8.53727 23.366C8.47548 23.3436 8.41575 23.3158 8.35875 23.2831C8.11026 23.1537 7.76586 22.8844 7.77627 22.5321L7.7749 22.5347Z" fill="#C2A44D"/>
        <path fill-rule="evenodd" clip-rule="evenodd" d="M17.3 6.9953C17.3599 7.01475 17.4131 7.05065 17.4536 7.09889C17.5753 7.23867 17.6529 7.50269 17.3759 7.78497C17.4846 7.82371 17.5295 7.83617 17.6244 7.82371C17.5287 7.93772 17.3112 8.18109 17.2983 8.3934C17.2853 8.5668 17.394 8.61868 17.394 8.61868C17.394 8.61868 17.2283 8.81017 17.2206 9.13068C17.2989 9.04243 17.3845 8.96101 17.4766 8.88731C17.6683 8.73456 17.9323 8.56116 18.111 8.45245C18.1086 8.49802 18.1147 8.54363 18.1291 8.58694C18.1291 8.58694 18.4629 8.3125 18.7435 8.43436C18.8703 8.49136 18.8133 8.66988 18.8133 8.66988C18.8133 8.66988 18.9868 8.6052 19.1085 8.72688C19.2302 8.84857 19.4023 9.16242 19.4905 9.28411C19.5292 9.34111 19.6303 9.44983 19.7337 9.6181C19.875 9.8537 19.993 10.1025 20.0859 10.361C20.0911 10.2264 20.1247 10.0168 20.508 10.1487C20.8911 10.2834 21.326 10.5656 21.6911 11.1215C22.0561 11.6774 22.1466 12.3049 22.3304 12.5438C22.5167 12.7742 22.7084 13.1574 22.7214 13.318C22.7343 13.4786 22.6644 13.9962 23.0475 15.3969C23.1562 14.962 23.322 13.9962 23.322 13.9962L23.4126 13.1444L23.5162 10.5088L20.764 8.22239L18.6126 6.66113L17.2119 6.79579L17.2998 6.99513L17.3 6.9953Z" fill="#CAA13E"/>
        <path fill-rule="evenodd" clip-rule="evenodd" d="M22.4132 10.9179C22.4132 10.9179 22.3743 10.6619 21.7271 10.2267C21.0798 9.79695 20.575 9.79695 20.109 9.4319C19.7517 9.14449 19.3789 8.48418 19.1362 8.26675C18.9006 8.05188 18.8618 7.43049 18.8618 7.43049L19.6566 6.76489L20.8386 5.05634L21.8379 3.95605L22.3168 4.62165L22.9824 5.40348L23.3526 6.97242L23.4872 9.26891L22.412 10.9181L22.4132 10.9179Z" fill="#B59544"/>
        <path fill-rule="evenodd" clip-rule="evenodd" d="M23.2132 13.6706C23.2328 13.3223 23.1898 12.9734 23.0862 12.6403C22.9156 12.1095 22.5427 11.1671 22.3694 10.8142C22.2995 10.4232 22.3513 10.3921 22.4264 10.3481C22.5015 10.304 22.7838 10.1433 22.9384 9.57921C23.0931 9.01516 23.5728 8.99673 23.5728 8.99673L23.8679 8.7793L24.3159 9.90024L24.7067 10.9126L24.8284 11.6868L24.919 12.3469L24.7067 13.7425L23.6583 14.69L23.213 13.6706H23.2132Z" fill="#C89D3A"/>
        <path fill-rule="evenodd" clip-rule="evenodd" d="M8.58301 29.225V29.1963C8.60479 29.1827 8.62403 29.1654 8.63984 29.1451C8.65793 29.1192 8.67107 29.0881 8.68387 29.0805C8.70981 29.0675 8.8315 29.0292 8.89618 29.0415C8.96086 29.0538 9.13187 29.1243 9.2225 29.1192C9.40886 29.1141 9.62629 28.9716 9.9707 29.0364C10.4885 29.1322 10.6102 29.4842 10.9106 29.6836C11.1154 29.8235 11.3273 29.7612 11.3584 29.7612H11.4282C11.4412 29.7612 11.5369 29.6525 11.5888 29.6578C11.6924 29.6629 11.7026 29.7484 11.7673 29.7536C11.9201 29.7716 12.2153 29.6759 12.3629 29.7148C12.4067 29.7285 12.4465 29.7526 12.479 29.785C12.5114 29.8175 12.5355 29.8573 12.5493 29.901C12.5804 29.9968 12.5544 30.1184 12.4793 30.1884C12.3189 30.3359 12.1662 30.4758 12.1351 30.598C12.1746 30.6281 12.2125 30.6603 12.2488 30.6943C10.9678 30.3679 9.73527 29.8744 8.58301 29.2265V29.225Z" fill="#CEB052"/>
        <path fill-rule="evenodd" clip-rule="evenodd" d="M22.3691 24.052C22.3691 24.052 22.7729 23.5135 22.9129 23.2468C23.0527 22.9718 22.4702 19.4902 22.4702 19.4902L23.6404 15.656L23.6092 14.4081C23.6092 14.4081 23.6662 13.2559 23.8009 12.7562C23.9615 13.0436 24.4612 13.3906 24.5699 13.5744C24.6211 13.2222 24.795 12.4792 24.7692 11.687C24.865 11.8345 25.0954 13.3181 25.0954 13.3181L25.3258 14.3173L25.6261 15.3789L25.9601 16.5L26.1595 17.2741L26.2733 17.4605L26.3692 17.7866L26.4598 18.1389L26.7213 18.9647L26.8749 19.643L26.9966 20.8728C27.0231 20.967 27.0421 21.0631 27.0536 21.1602C27.0587 21.2949 27.0355 21.3725 27.0355 21.3959C27.0355 21.4193 27.0795 21.691 27.0614 21.8956C27.0355 22.1004 27.0355 22.2607 26.8749 22.4076C26.7143 22.5546 26.6134 23.4328 26.6134 23.4328L26.326 23.2413C26.326 23.2413 26.383 22.9797 26.2484 22.7416C26.1137 22.5035 25.8523 22.4542 25.7046 22.4931C25.5572 22.5242 25.2621 22.5706 25.1662 22.6535C25.0756 22.7363 24.853 22.9927 24.6484 23.1092C24.3924 23.2628 23.9753 23.2749 23.7527 23.3266C23.5275 23.3778 23.279 23.5314 23.0173 23.7098C22.8122 23.8426 22.5956 23.9568 22.3702 24.0511L22.3691 24.052Z" fill="#CCA847"/>
        <path fill-rule="evenodd" clip-rule="evenodd" d="M22.3691 29.7086C22.3691 29.7086 22.3862 29.7197 22.4191 29.7378C24.2585 28.876 25.9066 27.6545 27.2661 26.1452C27.2512 25.6213 27.2319 25.0842 27.2108 24.8852C27.1669 24.4632 27.198 24.0334 27.185 23.7849C27.172 23.5364 27.0323 22.524 26.9676 22.2626C26.8976 22.0011 26.7628 21.8716 26.7423 21.8716C26.7242 21.8769 26.6153 22.3636 26.6153 22.486C26.6153 22.6084 26.5894 22.9029 26.5894 22.978C26.5713 22.9727 26.5636 22.9268 26.5636 22.908C26.5377 22.9727 26.5066 23.0867 26.4936 23.0997C26.4807 23.1127 26.5117 22.991 26.4936 22.965C26.4756 22.9391 26.4424 22.9521 26.4496 22.8874C26.4527 22.849 26.4587 22.811 26.4677 22.7736C26.4677 22.7736 26.39 22.8874 26.3332 23.1774C26.2762 23.4648 26.2762 23.4726 26.2556 23.4984C26.2375 23.5296 26.1339 23.633 26.1286 23.6719C26.1235 23.7417 26.2245 23.8117 26.2322 23.8505C26.2373 23.9153 26.1416 24.2155 26.1105 24.3625C26.0794 24.5094 26.0924 24.7973 26.0593 24.9449C26.0334 25.0796 26.0081 25.1573 25.9195 25.2141C25.9842 25.2271 26.0463 25.2451 26.0463 25.2451C26.0463 25.2451 26.1369 25.6283 25.9065 25.9546C25.8238 26.0684 25.8031 26.1203 25.7151 26.2239C25.5415 26.4154 25.4068 26.6335 25.3939 26.7753C25.3849 26.7335 25.3789 26.6911 25.3758 26.6484C25.3758 26.6484 25.1066 26.9617 24.9926 27.1404C24.8452 27.3708 24.6405 27.3578 24.583 27.4148C24.5255 27.4718 24.5131 27.5753 24.5318 27.6582C24.4806 27.671 24.3844 27.6893 24.3195 27.8886C24.2885 27.992 24.2108 28.0934 24.0891 28.163C23.9674 28.2327 23.8198 28.2537 23.7447 28.2718C23.8094 28.2898 23.8353 28.2898 23.8664 28.3105C23.8277 28.3752 23.649 28.4762 23.4496 28.6057C23.2503 28.7274 23.1544 28.906 23.1052 29.0225C23.054 29.1312 22.9784 29.2012 22.8567 29.2142C22.9079 29.2452 22.9837 29.3176 23.0225 29.341C22.9654 29.3539 22.8689 29.3539 22.6963 29.5016C22.5151 29.6518 22.4529 29.6958 22.37 29.7088L22.3691 29.7086Z" fill="#C39D3C"/>
        <path fill-rule="evenodd" clip-rule="evenodd" d="M18.7665 30.9087C18.8656 30.8392 18.973 30.7823 19.0861 30.7392C19.4899 30.5788 19.9171 30.5478 20.0854 30.496C20.246 30.4448 20.3728 30.3742 20.5721 30.3354C20.5668 30.3808 20.5624 30.4235 20.5576 30.4638C19.9699 30.6485 19.3715 30.7971 18.7656 30.9087H18.7665Z" fill="#D2BA6B"/>
        <path fill-rule="evenodd" clip-rule="evenodd" d="M26.2145 20.2876C26.2145 20.2876 26.1318 20.7354 25.9841 21.0177C25.8365 21.3 25.6769 21.6908 25.6769 21.6908C25.6779 21.6027 25.6883 21.515 25.708 21.4292C25.5216 21.5379 25.0685 21.7995 24.94 21.9159C24.8183 22.0246 24.6137 22.2163 24.562 22.3069C24.6837 21.9497 24.8105 21.6287 24.8313 21.481C24.6449 21.6157 23.7749 22.3328 23.3219 22.8066L21.9108 23.9484C21.748 24.0362 21.5803 24.1147 21.4086 24.1836C21.1654 24.287 20.878 24.375 20.6657 24.458C20.7227 24.3052 20.8131 24.1704 20.9401 24.041C21.0747 23.9142 21.4785 23.4767 21.5407 23.273C21.5977 23.0607 21.6106 22.9339 21.5355 22.7552C21.4656 22.7733 21.3051 22.7812 21.1964 22.8122C21.0877 22.8433 20.9712 22.9597 20.9712 22.9597C20.9712 22.9597 21.0539 22.4859 21.2326 22.0381C21.098 22.0432 20.8676 22.082 20.8676 22.082C20.8676 22.082 21.1886 21.5435 21.738 21.1682C21.5697 21.204 21.4051 21.2551 21.2461 21.3208C20.9251 21.4554 20.573 21.6548 20.3115 21.7635C20.459 21.5587 21.4946 20.0807 22.1109 18.7033C22.7253 17.3286 22.9548 16.9765 23.0895 16.2387C23.1593 15.8736 23.1407 15.3341 23.1593 14.851C23.1774 14.3719 23.2369 13.9422 23.1982 13.6548C23.3586 13.8541 23.9594 14.416 23.98 15.6717C23.9981 16.9273 23.4054 18.6232 22.7761 19.537C22.9297 19.581 23.3277 19.6329 23.7366 18.9226C24.1456 18.2123 24.1406 18.014 24.2882 17.7187C24.3063 17.8663 24.301 17.918 24.301 17.918C24.301 17.918 24.8967 17.1958 25.1788 16.287C25.2358 16.678 25.404 17.0224 25.1399 17.7395C24.9043 18.3867 24.5963 18.5447 24.5963 18.5447C24.5963 18.5447 24.749 18.5188 24.9741 18.3841C25.013 18.4799 25.0054 18.5889 25.0701 18.6275C25.1347 18.6661 25.2228 18.7311 25.2358 18.7932C25.3056 18.6896 25.4143 18.5575 25.4481 18.4592C25.4221 18.664 25.404 19.5595 25.4993 20.0152C25.6988 19.9971 25.9032 19.9841 26.043 19.6242C25.9473 19.9764 25.9473 20.1886 26.012 20.489C26.1181 20.4166 26.2139 20.2871 26.2139 20.2871L26.2145 20.2876Z" fill="#C0993A"/>
        <path fill-rule="evenodd" clip-rule="evenodd" d="M19.4874 6.0169C19.4874 6.0169 19.288 6.09967 18.9489 6.09967C18.6538 6.09967 18.7366 5.98584 18.2758 5.98584C17.5665 5.98584 15.0888 6.39544 14.6538 6.38964C14.3715 6.38452 15.6064 6.51132 15.6064 6.51132L18.7626 6.55535L19.3968 6.50415L19.6324 6.02458L19.4874 6.0169Z" fill="#A88F33"/>
        <path fill-rule="evenodd" clip-rule="evenodd" d="M11.3039 12.1862C11.3039 12.1862 10.9 12.4943 10.7291 12.73C10.5583 12.9657 10.4677 13.1208 10.2734 13.3125C10.319 13.3142 10.3646 13.3081 10.4081 13.2944C10.4081 13.2944 10.4081 13.3456 10.377 13.3591C10.4039 13.3561 10.431 13.3591 10.4566 13.368C10.4821 13.3768 10.5053 13.3913 10.5245 13.4103C10.4675 13.4413 10.3122 13.5968 10.4339 13.7806C10.5245 13.9204 10.7161 13.9332 10.7161 13.9332C10.7161 13.9332 10.6721 14.0602 10.8559 14.0472C11.252 14.0291 11.6947 13.8555 11.8992 13.8996C12.104 13.9508 12.2204 13.9695 12.3653 14.2208C12.5189 14.4692 12.6527 14.5082 12.6527 14.5082C12.6527 14.5082 12.7433 14.2776 12.7227 13.9334C12.797 13.7478 12.8382 13.5506 12.8444 13.3509L12.7097 12.3593L12.1221 11.6162L11.3609 12.0383L11.3039 12.1857V12.1862Z" fill="#E3C571"/>
        <path fill-rule="evenodd" clip-rule="evenodd" d="M12.0259 12.0391C12.0259 12.0391 12.0829 12.1737 12.3211 12.1865C12.2952 12.2435 12.2952 12.2514 12.303 12.2952C12.3082 12.3393 12.3158 12.4039 12.3158 12.4039C12.3421 12.3912 12.3658 12.3739 12.3858 12.3527C12.3988 12.4097 12.3728 12.5002 12.3858 12.565C12.3938 12.6045 12.4068 12.6427 12.4246 12.6789C12.4283 12.67 12.4327 12.6614 12.4375 12.6531C12.4426 12.6401 12.4887 12.7929 12.6162 12.9091C12.6161 12.8912 12.6205 12.8736 12.629 12.8579C12.631 12.8904 12.6417 12.9217 12.6601 12.9485C12.6505 12.944 12.6418 12.9379 12.6343 12.9304C12.6343 12.9304 12.6471 13.34 12.7171 13.5518C12.7288 13.5382 12.7392 13.5234 12.7481 13.5078C12.7481 13.495 12.743 13.6218 12.73 13.7126C12.712 13.8032 12.7249 13.93 12.7249 13.93C12.7716 13.8933 12.8229 13.8628 12.8775 13.8394C12.9552 13.8082 13.0823 13.7124 13.1598 13.5001C13.2047 13.3799 13.2394 13.2561 13.2634 13.13C13.2884 13.1781 13.3057 13.23 13.3146 13.2836C13.3199 13.3482 13.4416 13.3146 13.4416 13.3146L13.4675 13.0323L13.6211 12.3928L13.7609 11.9967L14.434 10.9483L15.6502 10.0117L16.7117 10.2551L17.6074 9.03822L16.0644 8.11133L14.6041 8.26407L13.2789 10.0996L12.2175 11.7644L12.0259 12.0389V12.0391Z" fill="#D8B65B"/>
        <path fill-rule="evenodd" clip-rule="evenodd" d="M19.6739 9.38235C19.6739 9.38235 19.5833 9.40045 19.3218 9.53595C19.0604 9.67146 18.8791 9.71447 18.7781 9.91381C18.677 10.1131 18.6694 10.2712 18.6694 10.2712C18.6694 10.2712 18.8481 10.1935 18.9516 10.1676C19.0604 10.1418 19.182 10.1495 19.1691 10.1935C19.1566 10.2237 19.1393 10.2517 19.1179 10.2763C19.1179 10.2763 19.3227 10.2712 19.3172 10.3722C19.3118 10.4733 19.2785 10.5845 19.2397 10.6337C19.2008 10.6849 19.0404 10.7607 19.0223 10.8202C18.9783 10.9419 19.0404 10.947 19.017 11.0453C18.9989 11.1412 18.9136 11.3276 18.6339 11.6538C18.3465 11.9801 18.2243 12.2105 18.2243 12.2105C18.2243 12.2105 18.0845 11.949 18.012 11.7237C17.9608 11.7495 17.6858 11.9022 17.6858 11.9022L17.0489 9.68358L17.0617 9.53595C17.0617 9.53595 17.1187 9.46615 17.1317 9.33662C17.0359 9.30555 17.0229 9.27961 16.896 9.1581C16.769 9.03658 16.6656 8.88879 16.4534 8.78775C16.4224 8.73075 16.3835 8.65327 16.2281 8.62203C16.0728 8.5908 15.9797 8.5652 15.9797 8.5652C15.9797 8.5652 16.0624 8.53397 16.1013 8.46929C16.0054 8.48226 15.9279 8.51332 15.7182 8.5082C15.5059 8.50291 15.4825 8.49523 15.3661 8.51332C15.2497 8.53141 15.1101 8.58329 15.0581 8.4046C15.0011 8.36057 14.8794 8.39948 14.7758 8.55206C14.6722 8.70464 14.636 8.82649 14.4367 8.88606C14.4226 8.97392 14.3919 9.05828 14.346 9.13455C14.289 9.23046 14.1984 9.32621 14.0767 9.46854C13.8851 9.69382 13.9161 10.064 13.6106 10.3463C13.3026 10.6284 13.6618 9.56428 13.6618 9.56428L14.1537 8.38669L15.5544 7.01709L17.7292 6.86963L17.9415 7.99603L19.003 8.36109L19.6736 9.38372L19.6739 9.38235Z" fill="#D3AE4D"/>
        <path fill-rule="evenodd" clip-rule="evenodd" d="M20.0181 9.63114L19.1042 8.31343L18.4647 7.82139C18.4647 7.82139 18.0091 6.98274 17.978 6.9568C17.9521 6.93871 17.5223 6.89211 17.2479 6.87402L17.2991 7.00083C17.359 7.02029 17.4122 7.05618 17.4527 7.10442C17.5744 7.2442 17.652 7.50822 17.375 7.7905C17.4837 7.82924 17.5286 7.8417 17.6235 7.82924C17.5278 7.94325 17.3104 8.18662 17.2974 8.39893C17.2844 8.57233 17.3931 8.62404 17.3931 8.62404C17.3931 8.62404 17.2274 8.8157 17.2197 9.13604C17.298 9.04779 17.3836 8.96637 17.4757 8.89267C17.6674 8.73907 17.9314 8.56635 18.1101 8.45764C18.1077 8.50326 18.1138 8.54894 18.1282 8.5923C18.1282 8.5923 18.462 8.31786 18.7426 8.43955C18.8694 8.49655 18.8124 8.67524 18.8124 8.67524C18.8124 8.67524 18.986 8.61056 19.1076 8.73224C19.2293 8.85393 19.4027 9.1671 19.4908 9.28896C19.5295 9.34596 19.6306 9.45467 19.734 9.62278C19.8753 9.85842 19.9933 10.1073 20.0862 10.3659C20.0914 10.2623 20.1122 10.1174 20.291 10.1174L20.0192 9.63063L20.0181 9.63114Z" fill="#CAA13E"/>
        <path fill-rule="evenodd" clip-rule="evenodd" d="M6.31732 13.3748C6.31732 13.3748 6.25264 13.2142 6.31732 12.901C6.382 12.5878 6.48304 12.4402 6.51666 11.9794C6.55028 11.5186 6.85066 10.9438 6.85066 10.9438L7.68163 10.5659L8.26941 10.7263L8.4428 11.5135L7.69972 11.9231C7.69972 11.9231 7.66098 12.0965 7.45123 12.2362C7.24148 12.376 6.95152 12.4847 6.88172 12.6272C6.83999 12.7145 6.80953 12.8067 6.79109 12.9017C6.79109 12.9017 6.57878 12.8576 6.45198 12.9974C6.31732 13.1399 6.32244 13.2667 6.31732 13.3754V13.3748Z" fill="#F4EFC8"/>
        <path fill-rule="evenodd" clip-rule="evenodd" d="M7.99515 13.1648C7.99515 13.1648 7.92517 13.2089 7.87346 13.3184C7.82226 13.2357 7.6999 12.7436 7.69477 12.3009C7.68966 11.8582 7.6632 11.7485 7.7656 11.5959C7.868 11.4433 8.26958 11.2825 8.21258 11.0078C8.15558 10.7463 7.91732 10.6376 7.6248 10.7127C7.42 10.7639 7.2676 11.1994 7.05529 11.4169C6.89469 11.5826 6.7032 11.5566 6.65149 11.6473C6.58152 11.7689 6.6462 11.8906 6.62555 11.9683C6.62026 11.9942 6.55557 12.134 6.43901 12.3023C6.20349 12.6414 5.80481 13.1205 5.75293 13.5502C5.77102 13.3068 5.75822 13.3017 5.8229 13.0324L5.78399 12.9677L6.03999 12.1289L6.20571 11.4377L6.57605 10.2802L7.22834 9.09716L7.86271 8.3877L8.52285 8.43173L8.6005 9.4233L8.97853 11.2849L9.77332 12.2635L8.49947 13.1208L7.99464 13.1648H7.99515Z" fill="#EBCC73"/>
        <path fill-rule="evenodd" clip-rule="evenodd" d="M8.39134 13.5168C8.39134 13.5168 8.28262 13.5427 8.24371 13.522C8.2048 13.5014 8.16623 13.478 8.17903 13.4521C8.19183 13.4261 8.2618 13.3823 8.2618 13.3614C8.26324 13.3426 8.25729 13.324 8.24521 13.3095C8.23313 13.295 8.21588 13.2858 8.19712 13.2838C8.13756 13.2761 8.11947 13.3149 8.11947 13.3149C8.11947 13.3149 8.06246 13.271 8.01604 13.2637C8.04351 13.2603 8.07114 13.2585 8.09881 13.2584C8.02727 13.226 7.95138 13.2042 7.87354 13.1937C7.93822 13.1549 8.06519 13.0409 8.14797 13.0409C8.23074 13.0409 8.28262 13.0281 8.26965 12.9841C8.25668 12.9401 8.192 12.8754 8.1222 12.8494C8.14797 12.8184 8.16623 12.7718 8.10411 12.6446C8.03925 12.5178 8.06519 12.4323 8.08601 12.4014C8.10411 12.3625 8.16879 12.2927 8.19985 12.2487C8.23091 12.2047 8.25685 12.1451 8.30856 12.114C8.33451 12.096 8.41728 12.0628 8.50022 12.0313C8.59085 12.0002 8.66594 11.9613 8.71765 12.0002C8.77466 12.0389 8.74871 12.0908 8.74871 12.0908C8.74871 12.0908 8.9274 12.026 9.08783 12.1089C9.24843 12.1864 9.63942 12.2357 9.63942 12.2357L9.77954 12.518L8.85265 13.3128L8.4695 13.5045L8.39185 13.5173L8.39134 13.5168Z" fill="#E5C66B"/>
        <path fill-rule="evenodd" clip-rule="evenodd" d="M9.6779 12.2175C9.6779 12.2175 9.3905 12.4091 9.32582 12.4789C9.36456 12.4842 9.42924 12.5102 9.4033 12.5489C9.37224 12.5877 9.18587 12.7223 9.08228 12.8493C8.97356 12.9761 8.86997 13.1367 8.83379 13.2143C8.79504 13.2841 8.49979 13.4888 8.39893 13.5145C8.61124 13.5145 9.03841 13.2531 9.19884 13.2531C9.19372 13.3307 9.24287 13.4188 9.3335 13.4265C9.42412 13.4342 9.68558 13.4835 10.0377 13.2661C10.3898 13.0537 10.2734 12.8957 10.4208 12.7923C10.7031 12.6057 10.8169 12.44 10.9722 12.3366C11.1275 12.2332 11.2079 12.2096 11.2079 12.2096C11.2079 12.2096 11.213 12.132 11.2591 12.1398C11.2717 12.1413 11.2837 12.1461 11.2938 12.1539C11.3038 12.1617 11.3115 12.172 11.3161 12.1839C11.3161 12.1839 11.5854 11.9922 11.9305 11.9405C11.9225 11.9369 11.916 11.9304 11.9124 11.9224C11.9124 11.9224 11.9382 11.9094 11.9435 11.8965C11.9435 11.8965 11.9616 11.8705 11.9746 11.8835C11.9875 11.8965 12.0056 11.9922 12.0316 12.0311C12.0886 12.0052 12.1973 11.7618 12.1973 11.7618L12.4589 11.0136V10.3301L12.2541 10.369L10.7181 11.0213L9.78593 11.9871L9.67722 12.2175H9.6779Z" fill="#E6BD62"/>
        <path fill-rule="evenodd" clip-rule="evenodd" d="M14.0999 8.86482C14.1829 8.84466 14.2626 8.81234 14.3362 8.7689C14.3052 8.85184 14.3052 8.94247 14.1705 9.13925C14.0359 9.33603 14.0307 9.36453 13.922 9.56899C13.8133 9.7813 13.8003 10.0868 13.6967 10.2213C13.7432 10.1987 13.793 10.1839 13.8442 10.1774C13.8442 10.1774 13.7408 10.268 13.6967 10.3638C13.6527 10.4595 13.5751 10.6589 13.3836 10.7807C13.1921 10.9026 12.9485 10.9801 12.6871 11.2675C12.4255 11.5496 12.1563 11.9069 12.0215 12.0355C12.0915 11.9138 12.1872 11.6704 12.2131 11.51C12.2391 11.3496 12.2079 11.1577 12.2519 10.9456C12.2959 10.7334 12.2959 10.5805 12.5079 10.2102C12.7199 9.83983 13.0827 8.55318 13.0827 8.55318L13.8645 8.30469L14.1002 8.86396L14.0999 8.86482Z" fill="#B6933F"/>
        <path fill-rule="evenodd" clip-rule="evenodd" d="M13.5354 8.39094C13.5354 8.39094 13.2999 8.73005 13.2352 9.03043C13.1706 9.3308 13.2299 9.30486 13.1912 9.45249C13.168 9.5425 13.168 9.63691 13.1912 9.72692C13.2728 9.59551 13.3845 9.48541 13.517 9.40572C13.7397 9.27124 13.921 9.17532 14.029 9.06149C14.1377 8.9398 14.2283 8.74047 14.4639 8.58772C14.3681 8.57475 14.2335 8.53072 14.2079 8.53652C14.3038 8.4278 14.591 8.26209 14.881 8.06275C15.1684 7.85795 15.1503 7.77535 15.6164 7.57089C15.4636 7.59683 15.3911 7.55792 15.2641 7.57089C15.3153 7.46217 15.4945 7.41029 15.6737 7.23177C15.8529 7.05325 15.5599 6.78906 15.5599 6.78906L14.1946 7.61492L13.5344 8.39162L13.5354 8.39094Z" fill="#C49937"/>
        <path fill-rule="evenodd" clip-rule="evenodd" d="M9.83057 7.77467L9.86163 7.52618L10.2526 6.89966L10.6617 5.79937V4.29512L10.6307 3.42523L10.6953 2.85554L10.7445 2.67447L10.7964 2.60449L11.1302 2.77789L11.5912 3.40441L11.6352 4.61358L11.1872 6.52163L9.90822 7.91717L9.83057 7.77467Z" fill="#DFC068"/>
        <path fill-rule="evenodd" clip-rule="evenodd" d="M10.848 2.53474C10.848 2.53474 10.6432 2.54003 10.5995 3.39183C10.5558 4.24362 10.5346 4.69145 10.5036 5.11351C10.4725 5.53557 10.4001 5.79174 10.3638 6.0404C10.3274 6.28906 10.3068 6.62801 10.1904 6.8352C10.1392 6.93094 10.0298 7.23131 9.77344 7.45659C9.48604 7.70508 9.05664 7.87865 8.99161 7.89162C8.87761 7.91739 8.30024 7.9744 8.06472 8.10393C7.98195 8.14796 7.83944 8.19968 7.68158 8.3473C7.36823 8.62941 6.95147 9.13425 6.65109 9.74267C6.19029 10.6515 5.72949 13.2171 5.72949 13.2171L5.83309 13.0437C5.83309 13.0437 5.84606 12.8133 6.07646 12.4093C6.30174 12.0055 6.23705 11.5524 6.55023 10.7783C6.67191 10.4832 6.82466 10.1 7.01103 9.77373C7.30628 9.24296 7.66349 8.78728 8.02342 8.53879C8.61103 8.13499 9.25837 8.04693 9.25837 8.04693L9.95486 7.58613C9.95486 7.58613 10.0765 7.35061 10.2371 7.0813C10.4623 6.70344 10.7491 6.28138 10.8118 5.66784C10.9077 4.75904 10.6771 4.16358 10.6901 3.62513C10.7031 3.08667 10.7082 2.69056 10.8171 2.59464C10.926 2.49873 10.8481 2.53508 10.8481 2.53508L10.848 2.53474Z" fill="#A88F33"/>
        <path fill-rule="evenodd" clip-rule="evenodd" d="M10.848 6.59911C10.848 6.59911 11.1552 5.84306 11.2958 5.17251C11.3218 5.03785 11.3735 4.90337 11.3864 4.79465C11.4511 4.16028 11.4692 3.89882 11.3864 3.55186C11.3218 3.29586 11.0733 3.06512 10.9437 2.88626C10.8169 2.69972 10.7574 2.63026 10.7833 2.591C10.8093 2.55175 10.9101 2.48758 11.0084 2.49526C11.1129 2.4983 11.2157 2.52256 11.3105 2.56657C11.4054 2.61058 11.4902 2.67342 11.56 2.75126C11.7594 2.98166 11.9172 3.76365 11.9172 3.76365L12.0833 4.79551L12.5053 6.09513L10.8483 6.60013L10.848 6.59911Z" fill="#C99E3D"/>
        <path fill-rule="evenodd" clip-rule="evenodd" d="M13.7345 5.81248C13.7345 5.81248 13.6775 5.83825 13.5741 5.81248C13.5785 5.85474 13.5712 5.8974 13.5529 5.93577C13.5346 5.97413 13.5061 6.0067 13.4705 6.0299C13.3618 5.98587 12.3441 6.07394 12.3441 6.07394C12.3441 6.07394 11.8703 5.99099 11.7227 5.36448C11.6193 4.94754 11.8004 4.3729 11.7408 3.99488C11.6502 3.43816 11.5234 3.32928 11.5104 3.15605C11.4974 2.98282 11.4845 2.93862 11.4845 2.8299C11.4275 2.81693 11.3938 2.79884 11.337 2.79884C11.324 2.74764 11.3498 2.70293 11.293 2.6123C11.324 2.62528 11.5363 2.65122 11.7848 2.88674C11.9896 3.0784 11.9896 3.1482 12.0205 3.18711C12.0593 3.22585 12.3726 3.49431 12.5073 3.76192C12.6419 4.02952 12.9034 4.88285 12.9629 5.02263C12.981 5.07963 13.0199 5.13664 13.1165 5.266C13.2667 5.45254 13.4867 5.76093 13.7352 5.81213L13.7345 5.81248Z" fill="#B58634"/>
        <path fill-rule="evenodd" clip-rule="evenodd" d="M12.0571 3.2002C12.214 3.45355 12.3549 3.71643 12.479 3.98731C12.6318 4.33154 12.7224 4.61383 12.914 4.84423C12.8105 4.54402 12.6266 3.95369 12.5179 3.74394C12.3962 3.52207 12.1478 3.28314 12.0571 3.20037V3.2002Z" fill="#A88F33"/>
        <path fill-rule="evenodd" clip-rule="evenodd" d="M10.2964 7.45623C10.2964 7.45623 10.035 7.52091 9.54821 7.77725C9.38762 7.86002 9.23504 7.92983 9.08741 7.99468C8.70393 8.16808 8.29262 8.32833 7.96631 8.41674C7.99225 8.4478 8.00505 8.4606 8.00505 8.4606C8.00505 8.4606 8.00505 8.58757 8.07502 8.65994C8.03628 8.69885 7.51831 9.05093 7.67122 10.2289C7.77465 10.1901 7.89633 10.1383 7.91442 10.1383C7.94566 10.1435 7.95334 10.2289 7.99208 10.2289C8.03082 10.2289 8.15779 10.1777 8.29245 10.0036C8.28733 10.0736 8.20968 10.7777 8.62644 11.2515C8.7041 11.1609 8.90088 10.8605 8.90088 10.8605L8.906 10.7648C8.906 10.7648 8.92409 10.4308 9.03297 10.1253C9.14186 9.81979 9.354 9.59451 9.354 9.59451L10.4618 8.0126L10.2961 7.45605L10.2964 7.45623Z" fill="#E6C367"/>
        <path fill-rule="evenodd" clip-rule="evenodd" d="M9.26115 9.77899C9.21043 9.81483 9.15455 9.84274 9.09543 9.86177C9.07734 9.79708 9.0514 9.57436 9.20415 9.35694C9.38284 9.0953 9.77366 8.75619 9.88238 8.48654C9.95235 8.31297 9.92129 7.87811 10.5427 7.32139C11.1641 6.76468 11.4073 6.57319 11.4073 6.57319L12.4118 6.06836L13.6468 6.5551L13.0332 8.95979L12.5569 10.0862L10.6625 9.72899L9.26098 9.77899H9.26115Z" fill="#DCBA5A"/>
        <path fill-rule="evenodd" clip-rule="evenodd" d="M9.98389 9.1264L10.2196 8.83132V8.62157C10.2196 8.62157 10.481 8.5516 10.7632 8.26419C11.0453 7.97679 11.4363 7.42537 11.7807 7.45899C12.1251 7.4979 12.1587 8.20719 12.1717 8.4067C12.1846 8.60621 12.2287 9.05899 12.2985 9.30253C12.3761 9.5459 11.4596 10.4675 11.4596 10.4675L10.8372 10.9413L9.98389 9.1264Z" fill="#E9CE77"/>
        <path fill-rule="evenodd" clip-rule="evenodd" d="M10.7134 11.5832C10.7134 11.5832 10.905 11.2828 10.7646 11.2182C10.8474 11.0318 11.0001 10.835 11.0001 10.835C11.0001 10.835 11.1088 10.5659 11.4609 10.2344C11.813 9.903 12.0306 9.68284 12.0876 9.46029C12.1227 9.31525 12.1418 9.16679 12.1446 9.01758C12.1827 9.04867 12.2234 9.07637 12.2663 9.10035C12.3233 9.12629 12.5924 9.34884 12.5537 9.79684C12.5149 10.2448 12.3489 10.4312 12.3489 10.4312C12.3489 10.4312 12.1885 10.5916 12.0746 10.6746C11.9528 10.7574 11.9089 10.8531 11.7043 10.8609C11.7253 10.8442 11.7489 10.8311 11.7742 10.822C11.7742 10.822 11.5619 10.7963 11.4479 10.8997C11.3339 11.0031 11.0916 11.3217 10.9699 11.4177C10.8482 11.4953 10.7139 11.5834 10.7139 11.5834L10.7134 11.5832Z" fill="#CDAE50"/>
        <path fill-rule="evenodd" clip-rule="evenodd" d="M19.3217 6.54752C19.0158 6.43604 18.6944 6.37316 18.3691 6.36115C17.8253 6.34306 17.0305 6.37412 16.2513 6.37924C15.4124 6.38436 14.6513 6.09184 13.595 6.04013C13.4216 5.93653 12.9806 5.48341 11.604 6.44392C11.6868 6.4388 12.6034 6.23161 12.9217 6.63046C13.2427 7.02658 13.1521 7.69969 13.1083 7.86012C13.0253 8.21749 12.756 8.73785 12.6475 9.10291C12.5389 9.46797 12.5645 9.6598 12.4869 9.9158C12.4092 10.1718 12.2384 10.2989 12.3392 10.594C12.4739 10.5113 12.544 10.5113 12.769 10.0064C12.9939 9.50159 12.9477 9.14165 13.3206 8.71447C13.6856 8.28473 14.2934 7.69696 14.5245 7.54933C14.7555 7.40171 16.5904 6.44904 18.5116 7.35784C18.9749 7.30869 19.3219 6.54735 19.3219 6.54735L19.3217 6.54752Z" fill="#D2A83E"/>
        <path fill-rule="evenodd" clip-rule="evenodd" d="M12.3783 6.19523C12.3764 6.17577 12.3721 6.15663 12.3655 6.13823C12.3475 6.10036 12.3239 6.06544 12.2955 6.03463C12.2955 6.03463 11.8398 5.95186 11.6094 5.97763C11.2054 6.02166 10.8404 6.52137 10.6695 6.77771C10.4987 7.03406 10.2864 7.43 10.056 7.63463C10.0585 7.6147 10.0539 7.59451 10.043 7.57763C10.043 7.57763 10.056 7.59572 10.0302 7.62166C10.0045 7.6476 10.0043 7.6604 10.0173 7.67286L10.0562 7.7116C10.069 7.7116 10.4263 7.55101 10.9131 7.0972C11.4309 6.62343 11.827 6.3804 12.0342 6.29712C12.1447 6.25016 12.2602 6.21598 12.3784 6.19523H12.3783Z" fill="#C29637"/>
        <path fill-rule="evenodd" clip-rule="evenodd" d="M21.2172 4.24854C21.2172 4.24854 21.1343 4.35196 21.0307 4.46596C20.8003 4.70933 20.4999 4.9836 20.2436 5.26588C20.0004 5.53519 19.7259 5.74494 19.4177 6.09703C19.1095 6.44911 18.7521 6.83994 18.6617 6.95394C18.5789 7.06795 18.5142 7.25432 18.5142 7.35006C18.4702 7.319 18.4185 7.28538 18.4185 7.28538C18.4402 7.32602 18.4663 7.36424 18.4961 7.39938C18.5608 7.49001 18.6617 7.60418 18.7135 7.67382C18.7772 7.76246 18.8229 7.8627 18.848 7.9689C18.8791 7.97402 19.0784 8.01293 19.3271 7.60384C19.5757 7.19475 19.9017 6.74692 19.9017 6.74692L20.4195 5.9779L20.7458 5.32561L21.1554 4.5955L21.2177 4.24854H21.2172Z" fill="#AC8132"/>
        <path fill-rule="evenodd" clip-rule="evenodd" d="M21.7479 3.72559C21.7479 3.72559 21.4346 3.98159 21.3129 4.13519C21.1912 4.28879 20.9033 4.6919 20.9033 4.6919L21.0069 4.67893L21.5326 4.21301L21.7374 3.84795L21.7478 3.72627L21.7479 3.72559Z" fill="#A88F33"/>
        <path fill-rule="evenodd" clip-rule="evenodd" d="M21.6518 24.3002C21.6518 24.3002 21.6466 24.0879 21.7658 23.9611C21.8874 23.8341 22.1955 23.6477 22.4959 22.9487C22.7962 22.2496 22.8297 22.0918 22.8297 22.0918C22.8297 22.0918 22.2912 22.5526 21.9593 22.6613C22.037 22.5007 22.081 22.3868 22.1199 22.3039C22.0759 22.2652 21.8895 22.2211 21.8714 22.2005C21.9748 22.0969 22.0318 21.8431 22.2416 21.6748C22.5109 21.47 23.0028 21.1181 23.385 20.8044C23.7673 20.4907 24.519 19.7611 24.6149 19.5488C24.6719 19.6316 24.6847 19.6833 24.6847 19.6833C24.6847 19.6833 24.3068 20.1753 24.11 20.4885C23.9365 20.7578 23.9494 20.9106 23.9494 20.9106L24.3068 20.757C24.3068 20.757 24.4102 21.1401 23.9418 21.7228C24.1466 21.6451 24.2292 21.6917 24.3456 21.6269C24.1539 21.7487 23.8899 21.9144 23.6414 22.3699C23.398 22.8256 23.0666 23.3564 22.5075 23.6877C21.9637 24.0372 21.6504 24.2987 21.6504 24.2987L21.6518 24.3002Z" fill="#A67A2E"/>
        <path fill-rule="evenodd" clip-rule="evenodd" d="M20.2489 6.81688C20.2489 6.81688 20.0366 7.25942 20.0055 7.60382C20.0004 7.68677 19.9796 7.75145 19.9796 7.84719C19.9745 8.15525 19.9977 8.49965 19.9284 8.66008C19.9024 8.5954 19.8895 8.55136 19.8635 8.52559C19.8248 8.63431 19.7548 8.97342 19.6978 9.10023C19.672 9.01745 19.615 8.73005 19.6203 8.39094C19.6256 8.05182 19.6331 7.98697 19.6331 7.91717C19.6203 8.02059 19.5504 8.16054 19.5244 8.24331C19.4857 8.17351 19.4416 8.08288 19.3898 8.00779C19.3587 8.05899 19.32 8.1346 19.2863 8.17351C19.281 8.14245 19.2682 8.0595 19.2604 7.94311C19.2553 7.80845 19.2474 7.63505 19.2553 7.5987C19.2681 7.5289 19.377 7.25447 19.6074 7.00325C19.8818 6.70287 20.1641 6.12568 20.2469 5.94699C20.3296 5.7683 20.6817 5.02539 20.6817 5.02539H20.951L20.56 5.91593C20.56 5.91593 20.3245 6.40267 20.2028 6.58153C20.0811 6.76039 19.8248 7.2729 19.7108 7.47224C19.7936 7.36352 19.8635 7.30652 19.9465 7.20293C20.0267 7.13039 20.2492 6.81722 20.2492 6.81722L20.2489 6.81688Z" fill="#8C6228"/>
        <path fill-rule="evenodd" clip-rule="evenodd" d="M21.7531 3.69189C21.7091 3.82729 21.6396 3.953 21.5483 4.06224C21.3877 4.2539 21.0433 4.51007 20.8752 4.71453C20.7216 4.91387 20.4144 5.45761 20.554 6.10222C20.6052 5.96244 20.7016 5.68545 20.958 5.37211C21.2143 5.05876 21.4888 4.699 21.6236 4.41945C21.7581 4.13716 21.7762 3.91461 21.7762 3.91461L21.8274 3.84993L21.7963 3.7023L21.7523 3.69189H21.7531Z" fill="#CBA94C"/>
        <path fill-rule="evenodd" clip-rule="evenodd" d="M26.9955 20.8646C26.9955 20.8646 26.8919 20.5825 26.8608 20.3262C26.8298 20.0698 26.912 20.019 26.8168 19.7256C26.7598 19.5469 26.6564 19.572 26.6304 19.5469C26.6045 19.5218 26.5864 19.2518 26.5915 19.1042C26.5966 18.9566 26.5864 18.7651 26.5605 18.6822C26.5217 18.6511 26.4958 18.6252 26.4388 18.4337C26.3741 18.242 26.343 18.1463 26.312 18.0894C26.2809 18.0326 26.1901 17.9807 26.1901 17.9237C26.1901 17.8097 26.2937 17.7503 26.2937 17.7189C26.2886 17.6542 26.2109 17.7061 26.1901 17.6879C26.1643 17.6568 26.255 17.4704 26.2214 17.4445C26.2084 17.4317 26.1178 17.5404 26.0944 17.5093C26.0684 17.4781 26.0374 17.17 25.9908 16.9656C25.9469 16.7663 25.9002 16.6214 25.895 16.5618C25.8899 16.5048 25.5377 15.5002 25.4523 15.2569C25.3836 15.0512 25.3257 14.8421 25.2789 14.6304C25.253 14.5087 25.2349 14.26 25.2219 14.286C25.209 14.3119 25.2168 14.4387 25.196 14.4336C25.1779 14.4283 25.1132 13.9857 25.0926 13.9158C25.0745 13.8458 24.9656 13.6086 24.939 13.4369C24.913 13.2633 24.8562 12.8102 24.8173 12.5021C24.7784 12.1941 24.7603 12.0673 24.7603 11.9901C24.7666 11.8015 24.7562 11.6126 24.7292 11.4257C24.678 11.0994 24.5756 10.7033 24.4858 10.4731C24.3124 10.0381 23.8515 8.9248 23.769 8.64781C23.769 8.57783 23.8597 8.61675 23.8597 8.61675C23.8597 8.61675 24.0848 9.18114 24.2505 9.616C24.4111 10.051 24.5638 10.4342 24.6027 10.4731C24.6338 10.5118 24.8772 10.939 24.9859 11.6381C25.0946 12.3371 25.1334 12.9817 25.1982 13.4115C25.2293 13.6163 25.2552 13.8335 25.3199 14.0509C25.3897 14.2866 25.4984 14.53 25.6409 14.9027C25.7626 15.2161 25.8532 15.4775 25.9024 15.7028C25.9594 15.9902 25.9594 16.2077 25.993 16.3502C26.0242 16.4719 26.0707 16.7151 26.1795 17.067C26.2884 17.4189 26.4487 17.8722 26.5574 18.1543C26.7699 18.7187 26.8646 19.1899 26.8967 19.4411C26.925 19.7 27.0209 20.5958 26.995 20.865L26.9955 20.8646Z" fill="#A88F33"/>
        <path fill-rule="evenodd" clip-rule="evenodd" d="M21.7658 3.66085L21.7528 3.69192C21.7528 3.69192 21.7916 3.70489 21.7839 3.75677C21.7844 3.82775 21.7801 3.89869 21.7709 3.96908C21.7581 4.0597 21.7322 4.1295 21.727 4.18651C21.727 4.30819 21.7451 4.44797 21.5734 4.79493C21.5222 4.89068 21.4907 4.97345 21.4647 5.03045C21.4 5.17023 21.3871 5.19105 21.3301 5.25573C21.4207 5.20453 21.747 4.99973 21.9126 5.03045C21.7987 5.09514 21.6252 5.22211 21.5164 5.38783C21.5424 5.39295 21.6511 5.41377 21.8236 5.38783C22.111 5.3438 22.4321 5.2402 22.7142 5.26085C23.0224 5.27894 22.9007 4.89068 22.9007 4.89068L22.5451 4.10885L21.8719 3.63525L21.7658 3.66102V3.66085Z" fill="#BE9C44"/>
        <path fill-rule="evenodd" clip-rule="evenodd" d="M23.5213 9.51699C23.5213 9.51699 23.2209 9.21662 23.0992 8.18579C22.9776 7.15018 23.0035 5.62579 23.0035 5.62579L22.7601 5.03033C22.7601 5.03033 22.7089 4.63422 22.5814 4.48676C22.454 4.33931 22.2036 4.09064 22.0896 3.96896C21.9756 3.84727 21.8462 3.68156 21.7686 3.65561C21.8073 3.59093 21.9809 3.22588 22.6461 3.22076C23.3114 3.21564 23.5165 3.58581 23.586 3.72047C23.6554 3.85512 23.9691 4.43727 24.0855 5.5466C24.1942 6.65457 24.1995 6.73751 24.1814 7.12066C24.1685 7.33297 24.0985 7.82483 23.9766 8.35031C23.8654 8.79575 23.7437 9.29291 23.521 9.51801L23.5213 9.51699Z" fill="#A17C34"/>
        <path fill-rule="evenodd" clip-rule="evenodd" d="M22.5792 10.4002C22.6793 10.4074 22.7793 10.3849 22.8666 10.3354C22.9624 10.3302 23.3093 10.3743 23.5759 10.0352C23.594 10.1126 23.6408 10.3226 23.5189 10.5089C23.5838 10.4441 23.6795 10.4183 23.6925 10.4002C23.6976 10.496 23.7882 10.791 23.4051 11.5082C23.5085 11.3943 23.6302 11.3995 23.7389 11.3865C23.7442 11.5212 23.8166 11.9741 23.6251 12.2176C23.4983 12.3834 23.2911 12.3315 23.2911 12.3315C23.2941 12.2953 23.2941 12.2589 23.2911 12.2228C23.286 12.1528 23.26 12.083 23.2783 12.0364C23.1782 11.9907 23.087 11.9275 23.009 11.8499C22.7837 11.6375 22.4912 11.2752 22.4705 11.0059C22.4446 10.7055 22.7139 10.6409 22.7139 10.6409C22.6913 10.6207 22.6721 10.5971 22.6569 10.5709C22.6439 10.527 22.6309 10.457 22.5792 10.4002Z" fill="#8C6228"/>
        <path fill-rule="evenodd" clip-rule="evenodd" d="M20.5823 7.1431C20.5823 7.1431 20.5693 7.12501 20.4995 7.20778C20.5125 7.12501 20.5255 7.04718 20.5306 6.97209C20.5636 6.90257 20.6064 6.83809 20.6575 6.7806C20.6186 6.85808 20.5927 6.92806 20.5927 6.92806C20.5927 6.92806 20.6886 6.74937 20.8284 6.64066C20.9241 6.563 21.0458 6.52682 21.0975 6.45429C21.1545 6.37663 21.1416 6.36366 21.1545 6.35069C21.1545 6.35069 21.2815 6.26792 21.4757 6.02438C21.5015 5.99332 21.5404 5.9597 21.5663 5.92863C21.6102 5.91054 21.7138 5.86395 21.8355 5.80166C21.9625 5.73186 22.1048 5.63611 22.1929 5.59686C22.3663 5.51921 22.5502 5.52706 22.6356 5.4052C22.7003 5.38711 22.7701 5.19289 22.7573 5.02734C22.853 5.06609 23.3449 5.37158 23.5133 6.03957C23.635 6.51334 23.4174 7.24345 23.3268 7.59571C23.2362 7.94796 23.2234 8.20925 23.0964 8.36968C22.9358 8.58216 22.4181 8.88168 22.2912 9.02999C22.1825 9.15167 21.8563 9.45973 21.8691 9.68228C21.8821 9.84799 22.0865 9.93828 22.1307 9.96968C22.1749 10.0011 22.1746 10.0397 22.2575 10.0209C22.3405 10.0021 22.3714 9.96388 22.4052 9.96388C22.4439 9.969 22.4439 9.97685 22.462 9.97685C22.4751 9.97646 22.4882 9.97468 22.5009 9.97156C22.5009 9.97156 22.4879 10.2072 21.9365 10.2788C21.8976 10.284 21.8589 10.2968 21.8095 10.3047C21.8744 10.2736 21.9131 10.2736 21.9831 10.1779C21.9055 10.1649 21.6827 10.152 21.6257 10.1339C21.6438 10.1028 21.7034 10.0199 21.7525 9.98111C21.7966 9.94237 21.7474 9.92991 21.7087 9.95005C21.642 9.99543 21.578 10.0447 21.517 10.0975C21.4523 10.1545 21.3953 10.2322 21.2917 10.3023C21.2607 10.1987 21.2658 10.0019 21.3877 9.8596C21.3564 9.86472 21.2969 9.95534 21.24 9.93725C21.2298 9.84282 21.2359 9.74732 21.2581 9.65497C21.2892 9.5384 21.4575 9.33395 21.4575 9.33395L22.2703 7.8814L22.4437 6.78111L20.5823 7.14276V7.1431Z" fill="#92723A"/>
        <path fill-rule="evenodd" clip-rule="evenodd" d="M20.5386 7.20513C20.5386 7.20513 20.4946 7.23619 20.5826 7.29575C20.5697 7.31384 20.5386 7.37853 20.4997 7.42256C20.4558 7.47376 20.4091 7.5055 20.391 7.54953C20.3522 7.64016 20.3212 7.70228 20.3212 7.74119C20.3212 7.7801 20.3082 8.02859 20.1995 8.18902C20.1606 8.24602 20.1165 8.34177 20.0855 8.40645C20.0208 8.52028 19.9638 8.61125 19.9508 8.66245C19.925 8.75307 19.907 9.00156 19.907 9.00156C19.907 9.00156 19.964 8.93159 19.9846 8.90582C19.9534 8.9705 19.9198 9.04031 19.8706 9.09219C19.9017 9.06625 19.9923 9.00156 20.145 8.86691C20.3573 8.68839 20.6888 8.38802 21.0927 8.15011C20.9709 8.19414 20.8675 8.19414 20.7847 8.20711C20.8494 8.14243 21.4319 7.45891 21.7374 7.39423C21.7559 7.37071 21.7651 7.34118 21.7633 7.31128L21.5017 7.28551L20.9709 7.39935L20.8934 6.98975L20.5386 7.20462V7.20513Z" fill="#B18E3E"/>
        <path fill-rule="evenodd" clip-rule="evenodd" d="M21.3828 9.53556C21.3828 9.53556 21.3128 9.60536 21.2481 9.77893C21.1983 9.72693 21.1556 9.66856 21.1211 9.60536C21.0254 9.44493 20.8779 9.2403 20.5335 9.35687C20.5284 9.24815 20.5205 9.19115 20.5335 9.1135C20.5905 9.1007 20.7639 8.96092 20.9373 8.75629C21.0592 8.61652 21.173 8.45592 21.2507 8.25146C21.3019 8.21255 21.3904 8.14787 21.5067 8.07277C21.6724 7.95894 21.8717 7.80346 21.9028 7.63006C21.8251 7.66112 21.6594 7.73878 21.4107 7.72598C21.5067 7.68195 21.6541 7.63535 21.636 7.4437C21.6749 7.41775 21.706 7.39966 21.706 7.39966C21.6768 7.38993 21.6461 7.38554 21.6154 7.38669C21.6101 7.3686 21.6024 7.34283 21.5584 7.35563C21.5143 7.36843 21.5072 7.3686 21.5014 7.38669C21.4833 7.39198 21.4237 7.38669 21.3797 7.41792C21.3357 7.44916 21.214 7.55241 21.1674 7.5705C21.1855 7.53944 21.2112 7.49302 21.2112 7.49302C21.2112 7.49302 21.0844 7.50582 20.9938 7.54422C20.8281 7.60122 20.6366 7.70481 20.4424 7.80568C20.4605 7.77462 20.4683 7.75448 20.4811 7.74868C20.4939 7.74287 20.5252 7.73588 20.5252 7.73059C20.5252 7.7253 20.5124 7.67939 20.52 7.66078C20.5781 7.53777 20.6466 7.41998 20.7248 7.3087C20.8155 7.18684 20.8335 7.01344 20.8335 7.01344L21.2297 6.81411L22.3429 6.55811L23.0654 6.60214L22.9747 7.10185L22.5481 7.9743L22.183 8.76909L21.7661 9.256L21.3829 9.53556H21.3828Z" fill="#543E26"/>
        <path fill-rule="evenodd" clip-rule="evenodd" d="M23.1874 7.37287C23.1874 7.37287 22.7524 7.91132 22.6307 7.99427C22.7084 7.82855 23.1874 6.8421 23.3608 6.56766C23.3221 6.5366 23.2702 6.5366 23.3919 6.05566C23.2885 6.29886 23.2521 6.42584 23.1668 6.49052C23.0814 6.55521 23.0709 6.53455 23.0132 6.53455C23.0241 6.51485 23.0285 6.49224 23.026 6.46987C23.026 6.46987 22.6609 6.42584 22.4116 6.42584C22.1622 6.42584 21.6687 6.5605 21.3941 6.66921C21.1766 6.75983 21.0549 6.75983 20.9773 6.81667C20.8996 6.88135 20.8556 6.95132 20.8167 6.96941C20.7856 6.9875 20.6382 7.0341 20.6044 7.08325C20.5733 7.13445 20.5216 7.19196 20.5216 7.20493C20.5216 7.2179 20.5086 7.23617 20.5475 7.22302C20.5603 7.2179 20.6563 7.16602 20.765 7.10134C20.9124 7.01857 21.0911 6.92282 21.2207 6.86582C21.5908 6.71819 21.7074 6.74413 21.8729 6.71307C22.0463 6.68201 22.295 6.60948 22.4606 6.60948C22.6263 6.60436 22.9396 6.60948 23.0121 6.62245C22.9811 6.64839 22.9551 6.67945 22.9681 6.78817C22.9681 6.81923 22.9422 6.85285 22.9169 6.92794C22.8394 7.14025 22.6918 7.49234 22.6097 7.67102C22.4959 7.91422 22.3665 8.11885 22.3025 8.24566C22.2385 8.37246 22.0977 8.70646 21.9583 8.88515C21.8188 9.06383 21.746 9.17255 21.7023 9.21146C21.6586 9.25037 21.3449 9.4806 21.3683 9.56355C21.4253 9.54546 21.7852 9.40995 22.0465 9.11572C22.3078 8.82149 22.3599 8.64195 22.5643 8.48135C22.7688 8.32075 22.9294 8.05161 23.0251 7.82906C23.1053 7.62187 23.0872 7.55719 23.1881 7.37338L23.1874 7.37287Z" fill="#806031"/>
        <path fill-rule="evenodd" clip-rule="evenodd" d="M13.8126 11.3915C13.8126 11.3915 13.7556 11.627 13.6261 11.7436C13.4993 11.8576 13.274 11.9559 13.2482 12.1475C13.2172 12.339 13.4735 12.4349 13.4735 12.4349C13.4735 12.4349 13.3335 12.6653 13.3335 12.8387C13.3335 13.0174 13.3284 13.0511 13.3465 13.2219C13.326 13.2351 13.3085 13.2526 13.2953 13.2731C13.2953 13.2731 13.3081 13.4388 13.4351 13.5422C13.5621 13.6457 13.6706 13.7079 13.7353 13.682C13.7452 13.7031 13.7538 13.7248 13.7612 13.7469C13.7612 13.7469 13.8572 13.5035 13.9218 13.2912C13.9865 13.0738 14.0435 13.1046 14.0693 12.8121C14.0951 12.5196 14.3765 12.0173 14.3765 12.0173L14.5685 11.5881L14.2553 11.3447L13.8126 11.3913V11.3915Z" fill="#B6903C"/>
        <path fill-rule="evenodd" clip-rule="evenodd" d="M14.395 11.8135C14.3305 11.8798 14.2708 11.9507 14.2167 12.0258C14.1339 12.1398 14.0692 12.2432 13.9476 12.2874C13.8259 12.3316 13.7482 12.3313 13.7559 12.4531C13.7636 12.575 13.8776 12.6265 13.9423 12.6887C14.0122 12.7533 14.0692 12.8621 14.0382 12.9839C14.0769 12.9658 14.1469 12.945 14.2116 12.8052C14.2763 12.6654 14.7287 11.8136 14.7287 11.8136H14.395V11.8135Z" fill="#685026"/>
        <path fill-rule="evenodd" clip-rule="evenodd" d="M16.1792 9.84852C16.1792 9.84852 16.2179 9.74509 16.1792 9.67C16.1403 9.59234 15.9047 9.5664 15.7882 9.47834C15.6665 9.38772 15.5189 9.32474 15.3972 9.36451C15.4153 9.32047 15.4878 9.22456 15.4282 9.20391C15.3712 9.18582 15.1591 9.28156 15.1021 9.32559C15.0451 9.36963 14.9156 9.42134 14.8898 9.45257C14.864 9.4838 14.8198 9.54319 14.7939 9.51725C14.7679 9.49916 14.7551 9.45257 14.7111 9.47834C14.6671 9.50411 14.4551 9.67768 14.416 9.77871C14.3769 9.87975 14.289 10.105 14.025 10.3612C13.761 10.6174 13.647 10.7833 13.7246 10.879C13.8023 10.9747 13.8386 10.9049 13.8516 10.9877C13.8616 11.069 13.8572 11.1514 13.8386 11.2311C13.8076 11.3657 13.7559 11.4925 13.8257 11.5185C14.0044 11.5755 14.1779 11.4673 14.2167 11.5004C14.2943 11.5702 14.1726 11.8214 14.3564 11.8706C14.543 11.9218 14.7268 11.8265 14.7268 11.8265L15.405 11.4615L16.0575 11.1173L16.3913 10.4569L16.2123 9.90552L16.1781 9.84852H16.1792Z" fill="#D4B968"/>
        <path fill-rule="evenodd" clip-rule="evenodd" d="M15.5394 11.425C15.5394 11.425 15.4254 11.2516 15.5653 11.0987C15.7053 10.9458 15.9044 10.8813 15.9821 10.7856C15.9673 10.7673 15.9475 10.7539 15.9251 10.7468C15.9766 10.6546 16.0553 10.5804 16.1504 10.5343C16.1116 10.4956 16.0597 10.4645 16.0029 10.4645C15.8759 10.4645 15.7981 10.5422 15.6817 10.5422C15.5679 10.5422 15.5549 10.4852 15.5549 10.4852C15.5549 10.4852 15.7466 10.4671 15.7283 10.3816C15.7102 10.291 15.6771 10.291 15.6771 10.291C15.6771 10.291 16.0473 10.1374 16.112 10.0554C16.1767 9.97353 16.169 9.87676 16.1819 9.83802C16.2258 9.83802 16.4821 9.70336 16.5857 9.76036C16.6893 9.81737 16.6168 9.97267 16.6168 9.97267C16.6168 9.97267 16.9303 9.73698 17.0901 9.5059C17.2298 9.51887 17.2949 9.41016 17.3973 9.41016C17.5242 9.41016 17.7236 9.58355 17.7623 9.95373C17.7883 10.166 17.827 10.2877 17.7883 10.6632C17.7702 10.8755 17.7753 11.3288 17.8395 11.5537C17.8833 11.7324 17.9869 11.7143 17.9869 11.7143C17.971 11.7688 17.9395 11.8174 17.8963 11.8541C17.8263 11.9188 17.8186 12.0898 17.8263 12.1545C17.8366 12.2018 17.8496 12.2484 17.8652 12.2943C17.8652 12.2943 17.7825 12.39 17.7616 12.4548C17.7435 12.5195 17.6582 12.5636 17.5959 12.5636C17.5336 12.5636 17.5649 12.5583 17.4821 12.5636C17.3993 12.5689 17.3734 12.5817 17.3215 12.5636C17.2696 12.5455 17.2309 12.5247 17.2517 12.3588C17.2698 12.193 16.6122 11.8073 16.6122 11.8073L15.537 11.4242L15.5394 11.425Z" fill="#CCA849"/>
        <path fill-rule="evenodd" clip-rule="evenodd" d="M14.3046 13.0617C14.3046 13.0617 14.5401 13.375 15.5084 13.375C15.9692 13.375 16.1298 13.331 16.2252 13.305C16.3288 13.2791 16.7171 13.1265 17.1081 12.6655C17.4602 12.2488 17.3825 12.0779 17.3825 12.0779L17.1777 12.0469L16.5121 12.1375L14.5426 12.9763L14.3037 13.0617H14.3046Z" fill="#585136"/>
        <path fill-rule="evenodd" clip-rule="evenodd" d="M15.0268 13.1389C15.0268 13.1389 14.188 13.3255 14.188 12.7947C14.188 12.2769 14.7058 11.7332 14.8353 11.6374C14.97 11.5415 15.291 11.4326 15.291 11.4326H16.0652L16.2126 11.8236L16.1479 12.6676L15.0268 13.1388V13.1389Z" fill="#252211"/>
        <path fill-rule="evenodd" clip-rule="evenodd" d="M15.8009 11.5908C15.8009 11.5908 15.6404 11.4432 15.2754 11.642C14.9103 11.8408 14.6151 12.2564 14.597 12.6337C14.5789 12.9676 14.8714 13.2162 15.3271 13.2292C15.6662 13.242 15.8708 13.2033 15.9744 13.178C15.9485 13.1469 15.8138 12.9787 15.8138 12.9787L15.801 11.591L15.8009 11.5908Z" fill="#C3B378"/>
        <path fill-rule="evenodd" clip-rule="evenodd" d="M15.643 11.6738C15.643 11.6738 15.6043 11.6427 15.4894 11.7048C15.3937 11.756 15.2539 11.8914 15.1452 11.9871C15.0752 12.0441 15.0312 12.0699 14.9916 12.1139C14.831 12.3056 14.6963 12.6189 14.7742 12.7742C14.852 12.9295 15.1081 13.1082 15.7606 12.9865L15.6411 11.674L15.643 11.6738Z" fill="#E6D89C"/>
        <path fill-rule="evenodd" clip-rule="evenodd" d="M15.4305 11.9947C15.4305 11.9947 15.3269 12.1553 15.3269 12.4116C15.3269 12.6731 15.4745 13.0898 16.0182 13.1209C16.435 13.1468 16.7146 12.5203 17.0175 12.2769C17.2479 12.0906 17.3877 12.0853 17.3877 12.0853C17.3877 12.0853 17.1521 11.8293 16.5231 11.4977C15.9017 11.1637 15.2052 11.1196 14.8271 11.6323C15.0058 11.6194 15.5832 11.4717 15.5832 11.4717L15.8655 11.5624L15.4305 11.9948V11.9947Z" fill="#252211"/>
        <path fill-rule="evenodd" clip-rule="evenodd" d="M16.2433 12.334C16.2252 12.2953 16.2122 12.2434 16.2873 12.2306C16.3624 12.2178 16.396 12.2253 16.422 12.2818C16.4479 12.3383 16.4732 12.3854 16.4348 12.4088C16.396 12.4294 16.295 12.4088 16.2431 12.3337L16.2433 12.334ZM16.1216 11.969C16.1216 11.969 16.0956 11.9871 16.1086 11.9509C16.1137 11.907 16.1475 11.8292 16.2303 11.8475C16.3131 11.8657 16.2952 11.9562 16.2815 11.9821C16.2678 12.0081 16.1987 12.0519 16.1468 12.0333C16.1403 12.0316 16.1342 12.0284 16.1291 12.0239C16.124 12.0195 16.12 12.0139 16.1175 12.0075C16.1149 12.0012 16.1139 11.9944 16.1145 11.9877C16.1151 11.9809 16.1173 11.9744 16.1209 11.9686L16.1216 11.969Z" fill="#6F674D"/>
        <path fill-rule="evenodd" clip-rule="evenodd" d="M9.11377 12.1346C9.11377 12.1346 9.31857 12.2882 9.55648 12.2822C9.792 12.2769 10.0949 12.0337 10.2347 11.8783C10.3175 11.7876 10.3883 11.6919 10.4651 11.6168C10.53 11.5521 10.5738 11.5211 10.6049 11.477C10.6489 11.4258 10.6955 11.3296 10.7189 11.2983C10.6619 11.3424 10.5791 11.4202 10.4936 11.4719C10.4108 11.5231 10.2321 11.6194 10.1596 11.6453C10.0898 11.6712 9.36482 12.0549 9.36482 12.0549L9.11377 12.1346Z" fill="#AC924C"/>
        <path fill-rule="evenodd" clip-rule="evenodd" d="M9.42676 10.2215C9.42676 10.2215 9.54059 10.1439 9.76075 10.0945C9.97306 10.0433 10.4002 10.0039 10.4002 10.0039L10.7523 10.1575L10.8921 10.6883L10.6361 11.2399L10.31 11.4447L9.93961 10.8492L9.42761 10.2225L9.42676 10.2215Z" fill="#9F8E57"/>
        <path fill-rule="evenodd" clip-rule="evenodd" d="M8.96609 10.695L8.84424 10.786C8.84424 10.786 8.87547 10.729 8.90124 10.5556C8.92701 10.3822 9.06184 9.96012 9.25862 9.71675C9.4554 9.47338 9.45028 9.48635 9.45028 9.48635C9.43217 9.48304 9.41356 9.48362 9.3957 9.48807C9.37784 9.49251 9.36113 9.50071 9.34668 9.51212C9.37262 9.45478 9.53834 9.24998 9.70406 9.14758C9.86977 9.04518 9.93446 9.01292 10.1079 9.09638C10.2813 9.17983 10.3253 9.22318 10.4523 9.21806C10.5792 9.21294 10.6878 9.07828 10.6878 9.07828C10.6878 9.07828 10.7137 9.16106 10.618 9.35272C10.5222 9.54438 10.1442 9.9352 10.1442 9.9352L9.35709 10.4737L8.96609 10.6955V10.695Z" fill="#EAC970"/>
        <path fill-rule="evenodd" clip-rule="evenodd" d="M9.54805 10.1565C9.54805 10.1565 10.1177 10.2341 10.2911 10.0737C10.2962 10.0918 10.3171 10.0918 10.3171 10.1048C10.3157 10.1146 10.3111 10.1236 10.3041 10.1305C10.323 10.1275 10.342 10.1258 10.3611 10.1254C10.3839 10.1322 10.4074 10.1366 10.4311 10.1384C10.4502 10.138 10.4692 10.1362 10.4881 10.1331C10.4863 10.146 10.4819 10.1583 10.4752 10.1695C10.4685 10.1806 10.4597 10.1903 10.4492 10.198C10.4751 10.198 10.5004 10.2031 10.5004 10.2237C10.5004 10.2444 10.5055 10.3067 10.4744 10.3196C10.4487 10.3268 10.4213 10.3249 10.3968 10.3144C10.3988 10.3634 10.4121 10.4113 10.4357 10.4543C10.4869 10.55 10.5961 10.6591 10.7429 10.6277C10.7429 10.6277 10.8204 10.8141 10.4942 11.2283C10.4504 11.2853 10.4036 11.3629 10.3468 11.4276C10.3243 11.4766 10.3071 11.5278 10.2956 11.5804C10.2956 11.5804 10.8472 11.368 11.005 10.8839C11.1656 10.3971 11.1967 9.91824 11.1656 9.47041C11.1603 9.34343 11.1397 9.25298 11.1086 9.18812C11.031 9.02753 10.8134 9.05347 10.7255 9.14409C10.5985 9.27107 10.3862 9.5868 10.0911 9.80423C9.79073 10.0217 9.77793 10.0602 9.54736 10.1565H9.54805Z" fill="#D7BC6B"/>
        <path fill-rule="evenodd" clip-rule="evenodd" d="M8.86489 10.8556C8.86489 10.8556 8.75617 10.9203 8.69917 11.1628C8.64217 11.4113 8.75037 11.7142 8.81301 11.8099C8.87564 11.9057 9.01781 12.1673 9.31272 12.1803C9.38571 12.1799 9.4579 12.1649 9.52503 12.1363C9.62798 12.089 9.72455 12.029 9.81243 11.9576C9.93941 11.8618 10.0428 11.779 10.0299 11.7712C9.9988 11.7582 9.24804 11.1368 9.24804 11.1368L8.96575 10.8218L8.86472 10.8559L8.86489 10.8556Z" fill="#585136"/>
        <path fill-rule="evenodd" clip-rule="evenodd" d="M9.57451 11.886C9.57451 11.886 9.72726 11.8732 9.81788 11.8162C9.90851 11.7592 9.28711 11.1431 9.28711 11.1431L9.33114 11.8087L9.57451 11.886Z" fill="#453A25"/>
        <path fill-rule="evenodd" clip-rule="evenodd" d="M8.9142 10.8091C8.9142 10.8091 8.83655 10.9567 8.83655 10.9956C8.82358 11.1224 8.86249 11.5211 8.89355 11.6479C8.92461 11.7825 9.09289 11.987 9.31049 11.987C9.44497 11.987 9.63151 11.9042 9.63151 11.8836C9.63151 11.8576 9.43985 11.8324 9.38814 11.7359C9.35708 11.6847 9.34411 11.5574 9.33694 11.4287C9.33182 11.346 9.33182 11.2553 9.36288 11.2239C9.43286 11.1463 9.44566 10.9236 9.44566 10.9236L9.69415 10.4619H9.36732L8.97632 10.7053L8.9142 10.8091Z" fill="#84754B"/>
        <path fill-rule="evenodd" clip-rule="evenodd" d="M8.81836 10.9517C8.81836 10.9517 9.07436 10.6125 9.3051 10.5347C9.53584 10.4569 9.6391 10.5037 9.6391 10.5037L9.50444 10.8481L9.31278 11.0604L9.32575 11.1691C9.32575 11.1691 9.29452 11.4565 9.48618 11.6558C9.67784 11.8552 9.82017 11.8475 9.90312 11.8475C9.98606 11.8475 10.2241 11.7775 10.3458 11.4901C10.4545 11.221 10.5452 10.8757 10.3277 10.5296C10.1153 10.1852 9.73996 10.1719 9.66743 10.1719C9.59489 10.1719 9.02538 10.2004 8.81836 10.9511V10.9517Z" fill="#252211"/>
        <path fill-rule="evenodd" clip-rule="evenodd" d="M15.3918 12.1033C15.2961 12.0592 15.3867 11.7901 15.4824 11.7072C15.5782 11.6242 15.6999 11.5286 15.9124 11.5155C15.9898 11.5104 16.0649 11.5595 16.0521 11.6114C16.034 11.7072 15.8994 11.8418 15.7777 11.9376C15.6094 12.0697 15.5005 12.1524 15.3918 12.1033Z" fill="#F7F7E7"/>
        <path fill-rule="evenodd" clip-rule="evenodd" d="M10.2136 10.6356C10.2835 10.6305 10.3742 10.6868 10.3923 10.7626C10.4103 10.8453 10.3482 11.011 10.2136 11.011C10.1049 11.011 10.0479 10.8764 10.0479 10.8376C10.0491 10.8058 10.058 10.7747 10.0738 10.747C10.0789 10.7392 10.0919 10.6485 10.2136 10.6356Z" fill="#F8F6DE"/>
        <path fill-rule="evenodd" clip-rule="evenodd" d="M9.20406 10.6953C9.20406 10.6953 9.02537 10.7781 8.9426 10.9513C8.88345 11.0792 8.86556 11.2224 8.8914 11.3609C8.90437 11.4256 8.96905 11.586 9.01308 11.643C9.05711 11.7 9.11668 11.7389 9.16071 11.7336C9.20474 11.7284 9.29519 11.612 9.29519 11.5422C9.29519 11.4724 9.30049 11.1771 9.38582 11.0165C9.46091 10.8561 9.20457 10.6955 9.20457 10.6955L9.20406 10.6953Z" fill="#D4C38B"/>
        <path fill-rule="evenodd" clip-rule="evenodd" d="M9.23017 10.6821C9.19911 10.7002 9.1474 10.7261 9.1602 10.7597C9.17317 10.7908 9.28189 10.8109 9.3208 10.8867C9.36483 10.9644 9.36483 11.0471 9.35186 11.0861C9.38568 11.07 9.41636 11.048 9.44248 11.0212C9.49949 10.9565 9.56929 10.8686 9.62885 10.8686C9.66776 10.8686 9.7065 10.8867 9.74286 10.8867C9.79986 10.8867 9.85669 10.8686 9.86454 10.8091C9.87734 10.7314 9.75583 10.6614 9.68585 10.6744C9.69882 10.6232 9.71691 10.5476 9.65991 10.4957C9.60291 10.4438 9.42439 10.5346 9.38548 10.5606C9.34657 10.5865 9.23017 10.6823 9.23017 10.6823V10.6821Z" fill="#E2D59D"/>
        <path fill-rule="evenodd" clip-rule="evenodd" d="M13.3441 16.1215L13.7272 16.0083L13.8359 16.086C13.8359 16.086 13.9134 16.2517 14.0353 16.2723C13.9964 16.3551 13.8953 16.4259 13.9006 16.4846C13.9059 16.5433 13.9576 16.5882 13.9576 16.5882C13.9576 16.5882 13.6132 17.1577 14.2916 17.7317C14.131 17.7964 13.9265 17.8853 13.8178 17.9365C13.8953 17.9546 14.061 17.9877 14.131 18.0505C14.201 18.1133 14.201 18.1333 14.2657 18.1722C14.3303 18.2111 14.3691 18.2628 14.3563 18.286C14.3123 18.2601 14.1646 18.1826 14.1389 18.255C14.1131 18.3273 13.4994 18.299 13.4994 18.299L12.4638 18.4983C12.4638 18.4983 12.5025 18.3947 12.3938 18.299C12.267 18.1852 12.1117 18.3041 11.946 18.1773C11.7285 18.0116 11.7207 17.8199 11.6509 17.7476C11.7207 17.7035 11.8632 17.6389 12.2023 17.594C12.1893 17.568 12.1453 17.4904 12.1712 17.4206C12.2023 17.3299 12.3317 17.2729 12.2929 17.1646C12.3499 17.1516 12.3757 17.1516 12.5182 16.9729C12.6529 16.7942 12.7356 16.7555 12.8392 16.7425C12.9428 16.7295 13.0049 16.7425 13.1966 16.5638C13.3311 16.437 13.2872 16.3283 13.2872 16.3283C13.2872 16.3283 13.3751 16.2998 13.3442 16.1211L13.3441 16.1215Z" fill="#CBAC5A"/>
        <path fill-rule="evenodd" clip-rule="evenodd" d="M12.2125 16.1791C12.2176 16.1531 12.2385 16.1401 12.3782 16.1531C12.518 16.1661 13.4034 16.0703 13.6442 16.0574C13.8876 16.0393 14.7445 16.0521 15.1615 16.1401C15.5784 16.2282 16.0003 16.3318 16.2047 16.3835C16.4095 16.4405 16.4741 16.461 16.4662 16.4869C16.4611 16.5129 16.415 16.5381 16.3886 16.531C16.3628 16.5259 15.6844 16.3187 15.4748 16.275C15.2652 16.2313 14.5401 16.1144 14.1436 16.1214C13.7734 16.1267 13.6258 16.1163 13.3126 16.1524C12.9993 16.1913 12.4815 16.2431 12.3262 16.2224C12.1726 16.2043 12.2043 16.2043 12.2122 16.1784L12.2125 16.1791Z" fill="#D6BC6F"/>
        <path fill-rule="evenodd" clip-rule="evenodd" d="M14.2968 18.2084C14.2968 18.2084 14.8275 18.4958 15.0192 18.8479C15.159 19.1094 14.9364 19.2389 14.9364 19.2389C14.9364 19.2389 15.2368 19.2389 15.1979 19.4046C15.1798 19.508 14.6801 19.7876 14.3461 19.9352C14.007 20.0828 14.0199 20.0752 13.8542 20.1009C13.6936 20.1269 13.2535 20.0497 13.1628 20.1786C13.0722 20.3074 13.1116 20.4402 13.1369 20.4609C13.1628 20.479 13.3726 20.5049 13.3726 20.5049C13.3726 20.5049 13.3286 20.6266 12.8937 20.6396C12.4588 20.6525 12.35 20.6834 12.324 20.7302C12.2981 20.774 12.4068 20.7483 12.6063 20.7814C12.8056 20.8124 13.0852 20.8326 13.0852 20.8326C13.0852 20.8326 12.9946 20.9102 12.7591 20.9724C12.4897 21.0422 12.0677 21.107 11.9409 21.1847C12.0056 21.2287 12.1015 21.2934 12.1457 21.2985C12.037 21.3244 11.884 21.3814 11.8583 21.4021C11.897 21.428 11.9489 21.4591 11.9489 21.4591C11.9489 21.4591 11.7313 21.7206 11.6045 21.7854C11.4777 21.8503 10.7476 22.1892 10.4964 22.1245C9.86983 21.9588 9.79218 21.2727 9.63943 21.221C9.40903 21.1434 9.30032 21.2985 9.09569 21.1898C9.18631 21.1251 9.23564 21.0864 9.33138 21.0423C9.22779 20.9911 8.69189 20.6513 8.69189 20.6513C8.63585 20.5292 8.57365 20.41 8.50553 20.2941C8.40193 20.1154 8.24953 19.8772 8.13518 19.6674C7.88669 19.2066 7.87372 18.9943 7.64844 18.7329C7.68735 18.6817 7.82183 18.6888 7.82183 18.6888L9.70941 19.3102L13.0564 19.4072L13.9268 18.1646L14.2969 18.2086L14.2968 18.2084Z" fill="#DFC677"/>
        <path fill-rule="evenodd" clip-rule="evenodd" d="M9.33887 20.1035C9.35906 20.1259 9.38261 20.1452 9.40867 20.1605C9.47352 20.2045 9.56927 20.2564 9.63395 20.3339C9.65989 20.2951 9.72457 20.2252 9.83875 20.3339C9.95293 20.4426 10.0948 20.3651 10.183 20.3909C10.2736 20.4221 10.2787 20.4349 10.2787 20.4349C10.2787 20.4349 10.3299 20.3909 10.4444 20.3443C10.5144 20.3183 10.5972 20.3002 10.6878 20.2745C10.7706 20.2564 10.8612 20.2304 10.9235 20.2304C10.9805 20.2692 11.185 20.4864 12.0057 20.1658C12.7798 19.8654 12.9584 19.8318 13.0879 19.8782C13.1009 19.8471 13.1138 19.7876 13.3132 19.7954C13.3132 19.7126 13.1475 19.4304 13.1475 19.4304L12.2335 19.1172H11.7337L10.2347 19.3916L9.40406 19.8656L9.33938 20.1045L9.33887 20.1035Z" fill="#C4A859"/>
        <path fill-rule="evenodd" clip-rule="evenodd" d="M8.83887 19.5781C8.83887 19.5781 8.85696 19.7179 9.06415 19.8655C9.26895 20.0129 9.33329 20.101 9.33329 20.101C9.33329 20.101 9.3722 20.0498 9.40326 19.9976C9.43432 19.9406 9.46026 19.8759 9.51198 19.8578C9.61557 19.8138 9.85109 19.8966 9.90297 19.8836C9.94701 19.8708 9.93403 19.7802 9.98063 19.7802C10.0893 19.7749 10.1591 19.85 10.1981 19.85C10.237 19.85 10.3325 19.8448 10.3455 19.8242C10.3585 19.8035 10.3636 19.5885 10.5112 19.4849C10.6718 19.3711 10.8686 19.4202 10.9208 19.4462C10.9208 19.4849 10.9259 19.5808 11.0295 19.5859C11.1331 19.5911 11.1434 19.573 11.2343 19.604C11.3253 19.6351 11.4337 19.5989 11.4828 19.7515C11.5269 19.7387 11.6305 19.7257 11.6045 19.5781C11.6557 19.5393 11.7004 19.5134 11.8093 19.3607C11.8353 19.3219 11.8791 19.2779 11.9129 19.2209C12.0035 19.2209 12.1123 19.2028 12.2571 19.3296C12.2131 19.3607 12.1872 19.3808 12.1744 19.4124C12.2123 19.4499 12.2469 19.4906 12.2778 19.5341C12.3167 19.5853 12.3427 19.6481 12.3918 19.661C12.5005 19.6921 12.6792 19.6481 12.8785 19.661C13.0702 19.674 13.2306 19.7438 13.3006 19.7878C13.3265 19.775 13.3265 19.7697 13.3912 19.7827C13.4559 19.7957 13.5051 19.8008 13.4353 19.718C13.474 19.7361 13.518 19.775 13.5569 19.7361C13.5959 19.6972 13.6267 19.6404 13.7355 19.6274C13.8442 19.6144 13.8831 19.6325 13.9271 19.5187C13.9841 19.3789 13.7873 19.3789 13.7873 19.3789C13.7873 19.3789 13.878 19.296 13.979 19.1873C14.1007 19.0734 14.2405 18.9258 14.2741 18.7446C14.3311 18.4106 14.0049 18.3667 14.0049 18.3667L12.423 18.8534L10.489 18.7575L8.83989 19.5783L8.83887 19.5781Z" fill="#927D49"/>
        <path fill-rule="evenodd" clip-rule="evenodd" d="M7.41768 15.0085C7.41768 15.0085 7.36648 15.0732 7.3349 15.226C7.30333 15.3787 7.31681 15.3606 7.29087 15.4693C7.26493 15.5781 6.9463 16.6602 7.06576 17.0253C7.18523 17.3904 7.39208 17.525 7.52144 17.8201C7.54738 17.8848 7.57264 17.9237 7.58613 17.9807C7.63016 18.1722 7.59142 18.3198 7.64313 18.5115C7.66122 18.5762 7.70798 18.6512 7.77778 18.7289C7.93138 18.8893 8.18175 19.0421 8.28978 19.1508C8.44236 19.3114 8.65996 19.6377 8.93695 19.6686C9.08458 19.6867 9.29433 19.6246 9.46773 19.5211C9.62133 19.4252 9.71622 19.2907 9.87733 19.2139C9.99116 19.1569 10.1128 19.1363 10.2216 19.1103C10.4468 19.0663 10.6515 19.0591 10.7732 19.0844C10.9595 19.1233 11.3997 19.258 11.6436 19.258C11.8341 19.2549 12.0236 19.2288 12.2079 19.1803C12.5781 19.0716 13.026 18.8851 13.3212 18.8023C13.4946 18.7511 13.6344 18.7376 13.7769 18.7065C14.0203 18.6495 14.2247 18.5719 14.3413 18.4243C14.2636 18.3336 14.1679 18.1939 13.6499 18.199C13.0623 18.2119 12.3839 18.5381 12.0499 18.59C11.7159 18.6419 11.571 18.6857 11.1981 18.5511C10.8325 18.415 10.8204 18.3251 10.8204 18.3251C10.8204 18.3251 10.4366 18.0566 10.276 17.3723C10.1154 16.6879 10.276 16.1892 10.6929 15.7153C10.8017 15.5936 10.7757 15.4849 10.7757 15.4849C10.7757 15.4849 11.0501 15.1147 10.9751 14.7681C10.8923 14.4237 10.3615 14.4936 10.3615 14.4936L7.41785 15.0085H7.41768Z" fill="#6E6342"/>
        <path fill-rule="evenodd" clip-rule="evenodd" d="M7.86052 16.1606C7.83769 16.2036 7.82696 16.2519 7.82946 16.3004C7.83458 16.3702 7.8554 16.4608 8.06498 16.6655C8.24366 16.844 8.20475 17.0433 8.20475 17.0433C8.20475 17.0433 8.29469 17.0614 8.53875 16.9472C8.73041 16.8566 8.79475 17.0172 8.79475 17.0172C8.85054 16.988 8.91101 16.9687 8.97344 16.9602C9.03 16.955 9.08474 16.9375 9.13386 16.909C9.13386 16.909 9.35914 17.1394 9.55592 17.2481C9.73461 17.344 9.8382 17.4087 9.92627 17.344C10.009 17.287 10.009 17.1705 10.0038 17.1188C9.98321 17.071 9.95721 17.0259 9.92627 16.9841C9.86926 16.9013 9.77864 16.8054 9.77267 16.7281C9.7597 16.5496 9.90732 16.3371 9.87609 16.2854C9.84486 16.2337 9.72864 16.2207 9.44123 16.3243C9.14359 16.4226 7.85932 16.1612 7.85932 16.1612L7.86052 16.1606Z" fill="#39331F"/>
        <path fill-rule="evenodd" clip-rule="evenodd" d="M8.53838 17.3178C8.53838 17.3178 8.39093 17.178 8.44264 16.4996C8.50524 16.4987 8.56775 16.5048 8.62901 16.5177C8.62901 16.5177 8.70939 17.0433 8.53838 17.3178Z" fill="#292311"/>
        <path fill-rule="evenodd" clip-rule="evenodd" d="M7.48769 14.4907C7.50827 14.4755 7.52735 14.4583 7.5447 14.4395C7.4935 14.5352 7.25712 14.9184 7.44878 15.5217C7.64044 16.1223 8.12189 16.5701 8.71479 16.5909C9.30768 16.6117 9.61932 16.3216 9.97567 15.8868C10.1154 15.7134 10.276 15.4958 10.4184 15.3483C10.6307 15.1177 10.7964 15.053 10.7964 14.8305C10.7964 14.3748 10.3303 14.1702 9.64424 13.9657C8.95816 13.7613 8.33932 13.7865 8.0183 13.9265C7.70512 14.079 7.57047 14.2396 7.48752 14.4909L7.48769 14.4907Z" fill="#252211"/>
        <path fill-rule="evenodd" clip-rule="evenodd" d="M9.69094 17.5223L9.74214 17.4963C9.74214 17.4963 9.75494 17.2915 9.83788 17.297C9.92066 17.31 9.95957 17.4188 9.95172 17.4576C9.9466 17.4963 9.92595 17.5612 9.843 17.5533C9.73429 17.5559 9.69043 17.5223 9.69043 17.5223H9.69094Z" fill="#3F3824"/>
        <path fill-rule="evenodd" clip-rule="evenodd" d="M9.46045 16.6524C9.46045 16.6524 9.51165 16.6343 9.57428 16.6964C9.62548 16.6964 9.84872 16.6704 9.91869 16.7145C9.98866 16.7585 10.0093 16.7972 10.0093 16.7972C10.0093 16.7972 9.74785 16.8543 9.60535 16.7972C9.46045 16.7481 9.46045 16.6524 9.46045 16.6524Z" fill="#2D2815"/>
        <path fill-rule="evenodd" clip-rule="evenodd" d="M10.6124 16.691C10.6124 16.6781 10.4726 16.5823 10.325 16.5511C10.299 16.546 10.2937 16.5641 10.2738 16.5641C10.2608 16.5589 10.2557 16.52 10.2557 16.52L10.1717 16.5642C10.1717 16.5642 10.1587 16.5823 10.2028 16.6154C10.2415 16.6465 10.3064 16.6724 10.3245 16.7241C10.3425 16.7758 10.3425 16.7939 10.3504 16.8018C10.3555 16.8069 10.4461 16.8018 10.4902 16.7758C10.5342 16.7499 10.6171 16.7076 10.6119 16.6905L10.6124 16.691Z" fill="#82764F"/>
        <path fill-rule="evenodd" clip-rule="evenodd" d="M9.30518 17.2168C9.30518 17.2168 9.33095 17.0383 9.50451 17.0305C9.68303 17.0175 9.71682 17.1909 9.71682 17.1909L9.61323 17.2945C9.61323 17.2919 9.53558 17.1832 9.30603 17.2168H9.30518Z" fill="#2D2816"/>
        <path fill-rule="evenodd" clip-rule="evenodd" d="M10.4312 16.4479C10.4312 16.4479 10.3353 16.5515 10.1231 16.5825C10.105 16.5566 10.0661 16.5049 10.1231 16.4221C10.1801 16.3393 10.2448 16.3134 10.3095 16.3391C10.338 16.3438 10.3646 16.3565 10.3862 16.3757C10.4078 16.395 10.4234 16.42 10.4312 16.4479Z" fill="#574F35"/>
        <path fill-rule="evenodd" clip-rule="evenodd" d="M10.8222 16.5748C10.8275 16.5489 10.8094 16.5437 10.8222 16.5308C10.835 16.5178 10.9051 16.492 10.9181 16.5048C10.9232 16.5101 10.9181 16.5308 10.9181 16.556C10.9181 16.5813 10.9181 16.6072 10.9051 16.6258C10.887 16.6518 10.8353 16.6648 10.8094 16.6571C10.7834 16.6494 10.7783 16.613 10.7783 16.6059C10.7911 16.6008 10.8222 16.5878 10.8222 16.5748ZM11.2642 16.2953C11.2642 16.2823 11.3082 16.2563 11.3342 16.2563C11.3729 16.2563 11.3729 16.2874 11.3782 16.2953C11.391 16.3004 11.391 16.29 11.404 16.3133C11.417 16.3367 11.4352 16.378 11.4221 16.404C11.4089 16.4299 11.3574 16.4478 11.3446 16.4427C11.3265 16.4297 11.2695 16.3133 11.2642 16.2953Z" fill="#82764F"/>
        <path fill-rule="evenodd" clip-rule="evenodd" d="M10.374 16.6344C10.374 16.6344 10.431 16.6472 10.5087 16.7121C10.4827 16.7302 10.4438 16.7508 10.4438 16.7508C10.4438 16.7508 10.4387 16.6913 10.374 16.6343V16.6344Z" fill="#6E6342"/>
        <path fill-rule="evenodd" clip-rule="evenodd" d="M10.2477 16.0647C10.2347 16.0519 10.2864 16.0208 10.3175 16.0259C10.3485 16.0311 10.3615 16.0519 10.3951 16.057C10.4287 16.0621 10.434 16.044 10.4463 16.0311C10.4586 16.0181 10.5033 16.0259 10.511 16.0311C10.5158 16.0367 10.5201 16.0428 10.524 16.0492C10.5245 16.0393 10.5271 16.0297 10.5315 16.0209C10.5359 16.0121 10.5421 16.0043 10.5497 15.998C10.5597 15.9907 10.5711 15.9857 10.5832 15.9835C10.5954 15.9812 10.6078 15.9817 10.6197 15.985C10.6248 16.0031 10.6508 16.0678 10.6456 16.0807C10.6405 16.0937 10.5629 16.112 10.5497 16.0988C10.5627 16.13 10.6197 16.1947 10.6274 16.2075C10.6351 16.2203 10.5704 16.2516 10.5446 16.2464C10.5084 16.2439 10.2857 16.1143 10.247 16.0652L10.2477 16.0647ZM10.5868 15.6349C10.582 15.6219 10.5728 15.6109 10.5608 15.6039C10.5427 15.5988 10.4832 15.6039 10.4832 15.6349C10.4832 15.666 10.5344 15.8397 10.5919 15.9302C10.6567 16.0208 10.7006 16.0957 10.7446 16.1166C10.7585 16.1229 10.7742 16.1237 10.7886 16.1189C10.803 16.1141 10.815 16.104 10.8223 16.0906C10.8274 16.0777 10.8404 15.9819 10.8353 15.7566C10.8301 15.5313 10.8223 15.3139 10.8093 15.3009C10.7963 15.288 10.7446 15.2881 10.7265 15.3139C10.7085 15.3397 10.5919 15.5962 10.5866 15.6349H10.5868Z" fill="#585136"/>
        <path fill-rule="evenodd" clip-rule="evenodd" d="M10.356 16.9604C10.356 16.9604 10.2654 16.9034 10.1773 16.9423C10.0946 16.9812 10.0997 17.134 10.0997 17.134C10.1183 17.1413 10.1384 17.1439 10.1583 17.1416C10.1782 17.1394 10.1972 17.1323 10.2137 17.121C10.2707 17.0823 10.343 17.0176 10.356 16.9606V16.9604Z" fill="#574F35"/>
        <path fill-rule="evenodd" clip-rule="evenodd" d="M10.5268 17.1651C10.5217 17.1139 10.4756 17.1139 10.4756 17.0875C10.4788 17.0748 10.4861 17.0636 10.4964 17.0556C10.5067 17.0476 10.5194 17.0433 10.5324 17.0434C10.5584 17.0434 10.5836 17.0745 10.6154 17.0946C10.6464 17.1127 10.693 17.1458 10.6981 17.1853C10.7033 17.2247 10.6469 17.3327 10.5843 17.3327C10.5217 17.3327 10.5403 17.2161 10.5273 17.1644L10.5268 17.1651ZM11.0265 17.0951C11.0265 17.0951 10.9229 17.1262 10.9306 17.0951C10.9383 17.0641 10.9618 17.0564 10.9954 17.0564C11.0125 17.0385 11.0355 17.0274 11.0601 17.0252C11.0742 17.0245 11.088 17.0291 11.0989 17.0381C11.0989 17.0381 11.1688 17.0071 11.1895 17.0252C11.2101 17.0433 11.1948 17.0433 11.2076 17.0641C11.2239 17.0872 11.2346 17.1138 11.2388 17.1417C11.2388 17.1624 11.1612 17.2064 11.0989 17.1987C11.0265 17.1832 11.0393 17.1081 11.0265 17.0951ZM11.6296 16.9786C11.6296 16.9786 11.6607 16.9967 11.6349 17.0175C11.6168 17.0356 11.5262 17.0687 11.4484 17.0745C11.3707 17.0745 11.3009 17.0873 11.3009 17.0615C11.3009 17.0357 11.3656 16.9839 11.4044 16.9709C11.4121 16.9612 11.422 16.9533 11.4332 16.9479C11.4445 16.9426 11.4568 16.9398 11.4692 16.9398C11.5003 16.9398 11.6218 16.9269 11.6556 16.9217C11.6866 16.9165 11.7126 16.9345 11.6943 16.9605C11.6866 16.9786 11.6296 16.9786 11.6296 16.9786ZM11.8083 16.1792C11.8083 16.1792 11.7694 16.2619 11.7255 16.2619C11.6815 16.2568 11.6815 16.2439 11.6815 16.2309C11.6815 16.2128 11.7255 16.1662 11.7203 16.1532C11.7075 16.1532 11.6762 16.1532 11.6815 16.1222C11.6815 16.0962 11.7255 16.0652 11.7643 16.071C11.7936 16.0469 11.83 16.0333 11.8679 16.0322C11.9119 16.0322 11.9507 16.045 11.9507 16.071C11.9507 16.0969 11.8995 16.1537 11.8807 16.1669C11.86 16.1875 11.8341 16.201 11.8083 16.1797V16.1792ZM11.218 17.7092C11.218 17.7092 11.1668 17.7145 11.1668 17.7403C11.1668 17.7532 11.1796 17.7532 11.1978 17.7455C11.2084 17.745 11.2188 17.7432 11.2289 17.7403C11.234 17.7455 11.234 17.7713 11.2729 17.7713C11.3049 17.767 11.3357 17.7565 11.3636 17.7403C11.3946 17.7275 11.4206 17.7143 11.4206 17.6891C11.4076 17.645 11.3817 17.6242 11.3429 17.6242C11.3231 17.6229 11.3033 17.6275 11.2859 17.6372C11.2859 17.6372 11.2729 17.6112 11.2289 17.6372C11.1849 17.6631 11.19 17.6631 11.203 17.6761C11.2262 17.6967 11.2185 17.7102 11.2185 17.7102L11.218 17.7092ZM10.9255 17.9785C10.9255 17.9655 10.9901 17.9396 11.0082 17.9474C11.0263 17.9526 11.078 18.0509 11.078 18.0613C11.078 18.0743 11.0134 18.1053 10.9874 18.1053C10.9615 18.1053 10.9176 18.0613 10.9176 18.0541C10.9176 18.049 10.9487 18.0413 10.9487 18.036C10.9564 18.0232 10.9255 17.992 10.9255 17.979V17.9785ZM10.7207 17.6005C10.7336 17.5954 10.7336 17.5824 10.7517 17.5694C10.7574 17.5657 10.7638 17.5632 10.7706 17.5623C10.7773 17.5615 10.7842 17.5621 10.7906 17.5643C10.7952 17.5562 10.8015 17.5491 10.8091 17.5437C10.8168 17.5383 10.8255 17.5347 10.8347 17.5331C10.8657 17.5279 10.8917 17.5331 10.8859 17.546C10.8859 17.585 10.9118 17.6107 10.9118 17.6418C10.9118 17.6728 10.8937 17.7118 10.829 17.7377C10.7644 17.7558 10.6763 17.7558 10.6633 17.7507C10.6503 17.7455 10.6374 17.6937 10.6503 17.6677C10.6633 17.6418 10.6995 17.6135 10.7203 17.6005H10.7207Z" fill="#82764F"/>
        <path fill-rule="evenodd" clip-rule="evenodd" d="M10.8031 17.6182C10.8031 17.6182 10.7591 17.6441 10.7591 17.6571C10.7552 17.6696 10.7535 17.6827 10.754 17.6958C10.754 17.7035 10.811 17.6907 10.8187 17.6828C10.8212 17.6777 10.8031 17.6316 10.8031 17.6182Z" fill="#6E6342"/>
        <path fill-rule="evenodd" clip-rule="evenodd" d="M10.4185 17.4964C10.4442 17.5017 10.4883 17.4964 10.5219 17.5094C10.5478 17.5224 10.5659 17.5483 10.54 17.5794C10.514 17.6105 10.4888 17.657 10.4313 17.6492C10.3666 17.6441 10.3045 17.6105 10.3045 17.5845C10.3034 17.5681 10.3056 17.5516 10.3109 17.5361C10.3162 17.5205 10.3246 17.5062 10.3355 17.4939C10.3615 17.4732 10.3743 17.4862 10.4183 17.4964H10.4185Z" fill="#585136"/>
        <path fill-rule="evenodd" clip-rule="evenodd" d="M10.387 17.5225C10.387 17.5225 10.3043 17.5871 10.2834 17.6184C10.2575 17.6494 10.1307 17.8099 10.0919 17.8435C10.1048 17.8208 10.1195 17.7992 10.1358 17.7788C10.0846 17.8115 10.0462 17.8609 10.0271 17.9186C9.99603 18.0145 10.2007 18.0662 10.3351 18.1051C10.4696 18.144 10.5217 18.1563 10.5217 18.1563C10.4722 18.0819 10.4297 18.0031 10.3947 17.9208C10.3435 17.7991 10.3171 17.7861 10.3507 17.7291C10.3766 17.6721 10.4155 17.6334 10.4155 17.5894C10.4 17.5484 10.387 17.5225 10.387 17.5225Z" fill="#574F35"/>
        <path fill-rule="evenodd" clip-rule="evenodd" d="M7.43589 17.7269C7.45473 17.7303 7.47405 17.7303 7.49289 17.7269C7.53163 17.7216 7.9356 17.5733 8.35766 17.5999C8.67362 17.619 8.98678 17.6704 9.29223 17.7535C9.823 17.8933 10.4831 18.1702 10.9103 18.3283C11.0242 18.3721 11.1356 18.45 11.2175 18.4809C11.5438 18.6078 11.5566 18.6078 11.7483 18.6415C11.9736 18.6725 12.204 18.5974 12.4448 18.5457C12.7399 18.4809 13.2447 18.4498 13.6874 18.3851C13.8306 18.3653 13.9718 18.3332 14.1095 18.2894C14.1095 18.2894 13.7574 18.6415 12.9133 18.7683C12.5721 18.8201 12.2253 18.8244 11.8829 18.7812C11.6136 18.7553 11.4351 18.7164 11.3005 18.6776C11.1477 18.6336 10.8344 18.517 10.4487 18.4216C10.1794 18.3517 9.87898 18.3 9.53475 18.2353C8.68551 18.0798 7.76391 17.9013 7.43555 17.7279L7.43589 17.7269Z" fill="#252211"/>
        <path fill-rule="evenodd" clip-rule="evenodd" d="M6.48311 16.127C6.27831 16.3004 6.06105 16.4661 5.84891 16.6265L5.20942 17.1178C4.99199 17.2783 4.77968 17.444 4.56208 17.6046C4.34448 17.7652 4.12723 17.9178 3.89648 18.0654C4.10128 17.892 4.31854 17.7314 4.53597 17.5735C4.7534 17.4157 4.97885 17.2609 5.1886 17.1008L5.82809 16.6087C6.04808 16.4483 6.26039 16.2826 6.48311 16.1273V16.127ZM5.35176 17.9393C5.35176 17.9393 5.58216 17.7476 5.86956 17.4785C6.22677 17.1446 6.66436 16.7173 6.80413 16.6398L5.35159 17.9394L5.35176 17.9393Z" fill="#CFB66C"/>
        <path fill-rule="evenodd" clip-rule="evenodd" d="M5.35156 17.9392C5.46557 17.8254 5.58725 17.7141 5.70894 17.6052L5.89531 17.4448C5.95231 17.3936 6.01716 17.3361 6.07399 17.2791C6.18783 17.1652 6.29927 17.0434 6.41311 16.927C6.46953 16.8684 6.52919 16.8131 6.5918 16.7613C6.6231 16.7336 6.65786 16.71 6.69522 16.6913C6.72645 16.6732 6.76007 16.6401 6.80394 16.6343C6.77817 16.6732 6.7471 16.6913 6.72116 16.7249C6.6901 16.7508 6.66416 16.7819 6.63839 16.8077C6.58139 16.8647 6.5167 16.9164 6.4597 16.9683C6.33802 17.0719 6.21121 17.1731 6.08952 17.2814C5.96784 17.3898 5.854 17.5067 5.73215 17.6154C5.60022 17.7269 5.47854 17.8356 5.35156 17.9397V17.9392ZM6.89985 16.9036C6.89985 16.9036 6.0559 17.7296 5.88234 17.8641L6.89985 16.9036Z" fill="#CFB66C"/>
        <path fill-rule="evenodd" clip-rule="evenodd" d="M6.89984 16.9033C6.82392 16.9912 6.74252 17.0742 6.65613 17.1518L6.40013 17.3952C6.31735 17.478 6.23953 17.5609 6.15164 17.6437C6.06101 17.7213 5.97824 17.7973 5.88232 17.869L6.13081 17.6256C6.21376 17.5428 6.30438 17.473 6.39245 17.3901L6.64094 17.1467C6.72627 17.0614 6.80921 16.9784 6.89984 16.9033ZM6.93858 17.3511C6.86079 17.5683 6.76912 17.7802 6.66415 17.9855C6.44672 18.4205 6.12057 18.9641 5.97807 19.2413L6.93858 17.3511Z" fill="#CFB66C"/>
        <path fill-rule="evenodd" clip-rule="evenodd" d="M6.93842 17.3516C6.93842 17.4473 6.91248 17.5303 6.88142 17.613C6.85114 17.6959 6.81662 17.7771 6.77799 17.8564C6.73908 17.934 6.69505 18.017 6.65102 18.0921C6.60699 18.1672 6.55527 18.2447 6.51636 18.3225L6.2549 18.7833C6.16428 18.9369 6.07621 19.0913 5.98047 19.239C6.04515 19.0732 6.13322 18.9179 6.21616 18.7652C6.30678 18.6116 6.38956 18.458 6.47216 18.2991C6.51249 18.2199 6.54877 18.1388 6.58087 18.0559C6.61962 17.973 6.65836 17.8953 6.68959 17.8202C6.72833 17.7374 6.75939 17.6596 6.7983 17.5847C6.84216 17.5043 6.87852 17.4267 6.93808 17.3516H6.93842Z" fill="#CFB66C"/>
        <path fill-rule="evenodd" clip-rule="evenodd" d="M7.86013 19.4746C7.86013 19.4746 7.60413 19.8137 7.62973 20.2435C7.69953 20.0184 7.7876 19.6739 7.86013 19.4746ZM8.1035 19.8146C8.1035 19.8146 8.01288 20.7362 7.93778 21.1893C8.04394 20.6655 8.06459 20.7096 8.1035 19.8146ZM9.79924 21.2437C9.79924 21.2437 9.4161 22.3701 9.40825 22.6831C9.49119 22.3613 9.65162 21.7037 9.79924 21.2429V21.2437Z" fill="#DEC270"/>
        <path fill-rule="evenodd" clip-rule="evenodd" d="M10.6953 19.4048C10.6953 19.4048 11.3167 20.43 11.7828 21.305C11.6567 20.8647 11.3665 20.0571 10.6953 19.4048Z" fill="#CBAF59"/>
        <path fill-rule="evenodd" clip-rule="evenodd" d="M12.3652 20.9141C12.7064 21.5171 13.0141 22.1386 13.2868 22.7755C13.2351 22.3354 13.0952 21.5821 12.3652 20.9141Z" fill="#E3C677"/>
        <path fill-rule="evenodd" clip-rule="evenodd" d="M17.2741 22.4254C17.3776 22.3607 17.5822 22.0085 17.7609 21.9206C17.9394 21.8299 18.0741 21.8118 18.2347 21.6332C18.3951 21.4466 18.4395 21.3328 18.7912 21.1853C19.2832 20.9729 18.9448 20.6984 18.9448 20.6984C18.999 20.6452 19.0569 20.5959 19.1182 20.551C19.2452 20.4552 19.3926 20.3387 19.3798 20.134C19.3617 19.7898 19.2971 19.2901 19.0148 19.0001C19.2892 18.9431 19.8147 18.9044 20.1412 18.8216C20.519 18.7257 20.6926 18.591 20.6926 18.591C20.6926 18.591 20.4752 18.2209 20.8273 17.8481C21.1793 17.4754 21.4667 17.2527 21.6791 16.8357C21.4357 16.8047 21.0647 16.6753 20.1178 17.0351C20.1689 17.0591 20.2182 17.0868 20.2654 17.1178C20.2654 17.1178 19.6829 17.2784 19.4706 17.4571C19.1003 17.7703 19.0537 18.0266 18.6525 18.2183C18.2512 18.41 17.8472 18.3581 17.5134 18.5134C17.1796 18.6687 17.1303 18.8008 17.0084 18.8578C17.0344 18.8888 17.0033 18.9406 17.0525 18.9846C17.0214 19.0286 16.8401 19.3237 16.6563 19.3237C16.6744 19.3937 16.8297 19.4454 16.8297 19.4454C16.8297 19.4454 16.7159 19.5283 16.4259 19.549C16.5734 19.7026 16.7133 19.87 17.099 20.1134C17.068 20.1781 16.9384 20.274 16.9903 20.3957C17.0473 20.5173 17.1951 20.6831 17.7851 20.8177C17.4847 20.8305 17.1328 20.9005 16.6587 20.8358C16.185 20.7788 16.1073 20.7452 15.8148 20.8177C15.8458 20.8488 15.9286 20.8488 16.0011 20.9316C15.9235 20.9367 15.4367 20.8745 15.271 21.0921C15.0976 21.3173 15.0225 21.6876 15.0355 21.9361C14.9449 21.9801 14.8568 22.0578 14.9009 22.2184C14.9449 22.379 15.1753 22.4307 15.3229 22.5316C15.4704 22.6403 15.4833 22.679 15.6233 22.6532C15.7707 22.6222 15.9882 22.4747 16.1151 22.4747C16.2421 22.4747 16.3326 22.5705 16.3326 22.5705C16.3326 22.5705 16.677 22.4047 16.7106 22.4358C16.7417 22.4669 16.7157 22.6662 16.7493 22.6973C16.7835 22.7207 17.1714 22.4903 17.275 22.4254H17.2741Z" fill="#ECD592"/>
        <path fill-rule="evenodd" clip-rule="evenodd" d="M24.8002 12.0646C23.1821 7.88596 19.182 7.11182 19.182 7.11182H7.7697L7.81373 11.3681H10.0865V20.8723H7.76953V25.1209H18.8661C21.5405 25.1209 23.6842 22.4334 23.6842 22.4334C27.1172 17.5611 24.8 12.0646 24.8 12.0646H24.8002ZM18.9257 19.57C18.9257 19.57 18.0553 20.8257 17.1082 20.8257H15.2138L15.169 11.3785H17.6001C17.6001 11.3785 18.7265 11.614 19.5134 13.8431C19.5134 13.8431 20.5567 17.0345 18.9257 19.57Z" fill="white" fill-opacity="0.8"/>
    </g>
    <defs>
        <clipPath id="clip0_4468_24246">
            <rect width="32" height="32" rx="8" fill="white"/>
        </clipPath>
    </defs>
</svg>
