<svg width="32" height="32" viewBox="0 0 32 32" fill="none" xmlns="http://www.w3.org/2000/svg">
    <rect width="32" height="32" rx="6" fill="#B69F47"/>
    <path fill-rule="evenodd" clip-rule="evenodd"
          d="M5.37012 26.105C5.58151 25.8095 5.80813 25.5252 6.00017 25.3332C6.5335 24.7998 6.66684 23.7776 6.66684 23.3332L7.33351 22.6665L6.66684 21.9998L7.33351 20.6665C6.88906 19.9998 6.00017 18.1332 6.00017 15.9998C6.00017 13.3332 6.66684 12.6665 7.33351 11.9998C7.55572 11.7776 7.77794 11.2591 8.00016 10.6665V11.3332H10.6668L10.6668 20.6665H8.00016V24.6665H17.3335C23.3335 24.6665 25.3335 19.9998 25.3335 16.6665V15.3332C25.3335 8.6665 20.0002 7.33317 17.3335 7.33317H10.0716C10.6886 6.37559 11.3335 4.52105 11.3335 2.6665C12.4002 2.6665 13.5557 4.88873 14.0002 5.99984C14.6668 6.22206 16.1335 6.6665 16.6668 6.6665H19.3335C20.4446 5.33317 22.8002 2.79984 23.3335 3.33317C24.0002 3.99984 24.0002 7.33317 24.0002 8.6665C24.0002 9.39795 24.2008 9.92877 24.492 10.6992C24.7316 11.3332 25.0326 12.1294 25.3335 13.3332C25.7107 14.842 25.8745 15.4972 26.0664 16.144C26.2136 16.6402 26.3774 17.1315 26.6668 17.9998C27.3335 19.9998 27.3335 21.9998 27.3335 23.3332C27.3335 23.8112 27.4674 24.3964 27.6152 24.9566C24.933 28.4297 20.7278 30.6665 16.0002 30.6665C11.8166 30.6665 8.04209 28.9149 5.37012 26.105ZM15.3335 11.3332H17.3335C18.2224 11.3332 20.0002 12.2665 20.0002 15.9998C20.0002 19.7332 18.2224 20.6665 17.3335 20.6665H15.3335V11.3332Z"
          fill="#FBE7A6"/>
</svg>
