<svg width="32" height="32" viewBox="0 0 32 32" fill="none" xmlns="http://www.w3.org/2000/svg">
    <g clip-path="url(#clip0_1777_16781)">
        <rect width="32" height="32" rx="4" fill="#3E6957"/>
        <path d="M11.056 17.6645C11.7467 17.6652 12.418 17.4359 12.964 17.0126L8.58759 12.6394C8.23091 13.101 8.01073 13.6534 7.95202 14.2339C7.89332 14.8145 7.99845 15.3998 8.25548 15.9236C8.51251 16.4473 8.91116 16.8885 9.40617 17.1971C9.90118 17.5056 10.4727 17.6692 11.056 17.6693V17.6645Z"
              fill="#EBEBF0"/>
        <path d="M24.0652 14.5421C24.0652 13.8529 23.8355 13.1833 23.4124 12.6394L19.036 17.0126C19.4976 17.3698 20.05 17.5904 20.6306 17.6493C21.2112 17.7082 21.7966 17.603 22.3205 17.3456C22.8443 17.0883 23.2854 16.6892 23.5939 16.1936C23.9023 15.698 24.0656 15.1259 24.0652 14.5421Z"
              fill="#EBEBF0"/>
        <path d="M26.2648 9.78108L24.3292 11.7174C25.036 12.5624 25.4009 13.6416 25.3521 14.7423C25.3033 15.8431 24.8443 16.8856 24.0654 17.6647C23.2866 18.4438 22.2445 18.903 21.1442 18.9518C20.0438 19.0007 18.9651 18.6356 18.1204 17.9286L16 20.0498L13.8796 17.9286C13.0349 18.6356 11.9562 19.0007 10.8558 18.9518C9.75552 18.903 8.71335 18.4438 7.93454 17.6647C7.15574 16.8856 6.69673 15.8431 6.64792 14.7423C6.5991 13.6416 6.96402 12.5624 7.6708 11.7174L6.676 10.7186L5.7352 9.77748C4.63313 11.5982 4.03478 13.6793 4.00147 15.8075C3.96816 17.9357 4.50109 20.0346 5.54564 21.8889C6.59019 23.7432 8.1088 25.2864 9.94585 26.3602C11.7829 27.4341 13.8723 28 16 28C18.1277 28 20.2171 27.4341 22.0541 26.3602C23.8912 25.2864 25.4098 23.7432 26.4544 21.8889C27.4989 20.0346 28.0318 17.9357 27.9985 15.8075C27.9652 13.6793 27.3669 11.5982 26.2648 9.77748V9.78108Z"
              fill="#EBEBF0"/>
        <path d="M24.682 7.71751C23.5614 6.54265 22.2142 5.60742 20.7219 4.96844C19.2296 4.32946 17.6233 4 16 4C14.3767 4 12.7704 4.32946 11.2781 4.96844C9.78577 5.60742 8.43857 6.54265 7.318 7.71751C7.02083 8.03015 6.74043 8.35834 6.478 8.70069L16 18.2251L25.5244 8.69829C25.2611 8.3567 24.9799 8.02932 24.682 7.71751ZM16 5.5663C17.3712 5.55944 18.73 5.82633 19.9968 6.35135C21.2636 6.87636 22.413 7.64894 23.3776 8.62386L16 16.0006L8.6224 8.62386C9.58703 7.64894 10.7364 6.87636 12.0032 6.35135C13.27 5.82633 14.6288 5.55944 16 5.5663Z"
              fill="#EBEBF0"/>
    </g>
    <defs>
        <clipPath id="clip0_1777_16781">
            <rect width="32" height="32" rx="6" fill="white"/>
        </clipPath>
    </defs>
</svg>
