<svg width="32" height="32" viewBox="0 0 32 32" fill="none" xmlns="http://www.w3.org/2000/svg">
    <g clip-path="url(#clip0_4391_52199)">
        <path d="M28 0C30.2091 0 32 1.79086 32 4V28C32 30.2091 30.2091 32 28 32H4C1.79086 32 0 30.2091 0 28V4C0 1.79086 1.79086 0 4 0H28ZM11.2188 15.9932L9.28711 16.6943L8.66504 19.083L10.5977 18.3809L10.1143 20.2363L9.28906 23.4023H22.5117L23.3369 20.2363H15.1143L16.1191 16.377L18.501 15.5137L19.123 13.125L16.7412 13.9883L18.4561 7.40234H13.4561L11.2188 15.9932Z"
              fill="#3D65AE"/>
    </g>
    <defs>
        <clipPath id="clip0_4391_52199">
            <rect width="32" height="32" rx="6" fill="white"/>
        </clipPath>
    </defs>
</svg>
