<svg width="32" height="32" viewBox="0 0 32 32" fill="none" xmlns="http://www.w3.org/2000/svg">
    <g clip-path="url(#clip0_2383_24753)">
        <rect width="32" height="32" fill="#070C20"/>
        <path d="M23.656 15.6099V11.4514C23.656 11.2068 23.4602 11.0077 23.2144 11.0023C22.962 10.9968 22.7086 11.0012 22.4606 11.0152C21.3978 11.0748 20.372 11.3118 19.4104 11.7199C18.6511 12.0424 17.9321 12.4721 17.275 12.9949C16.8171 13.3596 16.4037 13.7558 16.0469 14.1746C16.0306 14.193 16.0165 14.2125 16.0001 14.2309C15.9849 14.2125 15.9697 14.193 15.9534 14.1746C15.5955 13.7569 15.1832 13.3596 14.7253 12.9949C14.0682 12.471 13.3492 12.0424 12.5899 11.7199C11.6294 11.3107 10.6036 11.0737 9.54084 11.0152C9.29281 11.0012 9.03938 10.9979 8.78701 11.0023C8.54114 11.0077 8.34534 11.2068 8.34534 11.4514V15.6099H4.86768V19.9685H9.24821V16.5396C9.76274 16.598 10.2207 16.7463 10.6341 16.9888C10.9539 17.1771 11.2628 17.4412 11.5794 17.7973C11.7295 17.9661 11.8676 18.1469 12.0145 18.3374C12.1494 18.5117 12.2875 18.6935 12.4387 18.8678C12.4561 18.8883 12.4735 18.9067 12.492 18.9273L12.5159 18.9533L12.8499 18.6578L12.5181 18.9619C13.6494 20.1839 14.734 20.8636 15.7423 20.9827C15.8402 20.9946 15.9381 21 16.0371 21C17.1184 21 18.2769 20.3127 19.4854 18.9533L19.5105 18.9251C19.5279 18.9067 19.5442 18.8872 19.5605 18.8688C19.7117 18.6946 19.8499 18.5138 19.9847 18.3396C20.1316 18.1491 20.2697 17.9683 20.4209 17.7995C20.7375 17.4434 21.0475 17.1782 21.3662 16.9909C21.7796 16.7474 22.2365 16.6002 22.7521 16.5418V19.9707H27.1326V15.612H23.655L23.656 15.6099ZM8.34534 19.0691H5.77055V16.5082H8.34428V19.0691H8.34534ZM19.269 17.7908C19.1363 17.9629 19.0123 18.1253 18.8774 18.28L18.8099 18.3547C17.7145 19.5875 16.6909 20.1882 15.8489 20.0876C15.0744 19.9956 14.1542 19.397 13.1882 18.3558L13.1904 18.3536L13.124 18.279C12.9902 18.1242 12.8651 17.9618 12.7324 17.7886C12.5823 17.5938 12.4278 17.3925 12.256 17.1998C11.8752 16.7723 11.4956 16.4498 11.0931 16.2127C10.547 15.8924 9.92811 15.6986 9.24821 15.6337V11.9017C9.32981 11.9039 9.41031 11.9071 9.49081 11.9114C10.448 11.9645 11.3716 12.1777 12.2364 12.5457C12.9206 12.8369 13.5678 13.2233 14.1618 13.6962C14.5751 14.0253 14.9461 14.3825 15.267 14.757C15.3605 14.8674 15.4497 14.9799 15.5444 15.1001L15.6107 15.1856C15.7075 15.3663 15.8968 15.5503 16.1013 15.7473C17.1543 16.7669 18.3683 17.3633 19.542 17.4401C19.4474 17.557 19.3571 17.6739 19.269 17.7897V17.7908ZM20.9083 16.2138C20.768 16.2961 20.6298 16.3892 20.4938 16.4931C20.3916 16.5082 20.2915 16.5212 20.1947 16.5299C20.1175 16.5374 20.0391 16.5428 19.9597 16.5472C19.8868 16.5504 19.814 16.5515 19.74 16.5504C18.7414 16.5309 17.6721 16.0168 16.729 15.1044C16.7018 15.0784 16.6409 15.0156 16.5767 14.9475C16.6289 14.8825 16.68 14.8187 16.7333 14.757C17.0531 14.3825 17.4252 14.0253 17.8385 13.6962C18.4314 13.2233 19.0797 12.8369 19.7639 12.5457C20.6276 12.1777 21.5522 11.9645 22.5095 11.9114C22.59 11.9071 22.6705 11.9039 22.7521 11.9017V15.6337C22.0711 15.6986 21.4522 15.8924 20.9072 16.2127L20.9083 16.2138ZM26.2309 19.0691H23.6571V16.5082H26.2309V19.0691Z"
              fill="url(#paint0_linear_2383_24753)"/>
    </g>
    <defs>
        <linearGradient id="paint0_linear_2383_24753" x1="18.7438" y1="23.2178" x2="25.8922" y2="4.85637" gradientUnits="userSpaceOnUse">
            <stop stop-color="#54EEF6"/>
            <stop offset="1" stop-color="#72FFA0"/>
        </linearGradient>
        <clipPath id="clip0_2383_24753">
            <rect width="32" height="32" rx="6" fill="white"/>
        </clipPath>
    </defs>
</svg>
