<svg width="32" height="32" viewBox="0 0 32 32" fill="none" xmlns="http://www.w3.org/2000/svg">
    <g clip-path="url(#clip0_1777_16787)">
        <rect width="32" height="32" rx="4" fill="#474747"/>
        <path d="M22.4476 6.42387L17.9913 13.0372C17.6831 13.4876 18.2757 14.0328 18.7024 13.6535L23.0876 9.8372C23.2061 9.74239 23.372 9.8135 23.372 9.97942V21.9024C23.372 22.0683 23.1587 22.1394 23.0639 22.0209L9.78979 6.13942C9.36313 5.61794 8.74683 5.3335 8.05942 5.3335H7.58535C6.35276 5.3335 5.3335 6.35276 5.3335 7.60905V24.3913C5.3335 25.6476 6.35276 26.6668 7.60905 26.6668C8.39127 26.6668 9.12609 26.2639 9.55276 25.5765L14.0091 18.9631C14.3172 18.5128 13.7246 17.9676 13.2979 18.3468L8.91276 22.1394C8.79424 22.2342 8.62831 22.1631 8.62831 21.9972V10.0979C8.62831 9.93201 8.84164 9.8609 8.93646 9.97942L22.2105 25.8609C22.6372 26.3824 23.2772 26.6668 23.9409 26.6668H24.415C25.6713 26.6668 26.6905 25.6476 26.6905 24.3913V7.60905C26.6668 6.35276 25.6476 5.3335 24.3913 5.3335C23.6091 5.3335 22.8742 5.73646 22.4476 6.42387Z"
              fill="white"/>
    </g>
    <defs>
        <clipPath id="clip0_1777_16787">
            <rect width="32" height="32" rx="6" fill="white"/>
        </clipPath>
    </defs>
</svg>
