<svg width="32" height="32" viewBox="0 0 32 32" fill="none" xmlns="http://www.w3.org/2000/svg">
    <g clip-path="url(#clip0_1777_16793)">
        <rect width="32" height="32" rx="4" fill="#EB3431"/>
        <path d="M10.681 20.7088C10.105 20.7088 9.57016 20.631 9.07645 20.4756C8.58273 20.3202 8.16673 20.087 7.82845 19.7762C7.49016 19.4653 7.24788 19.0768 7.10159 18.6105C6.96445 18.1442 6.94616 17.6002 7.04673 16.9785C7.11988 16.5853 7.19759 16.1922 7.27988 15.799C7.37131 15.4059 7.46273 15.0082 7.55416 14.6059C7.85588 13.3716 8.39988 12.4345 9.18616 11.7945C9.97245 11.1545 11.033 10.8345 12.3679 10.8345C12.9439 10.8345 13.4742 10.9168 13.9587 11.0813C14.4524 11.2368 14.8684 11.4745 15.2067 11.7945C15.5542 12.1145 15.7964 12.5076 15.9336 12.9739C16.0799 13.4402 16.0982 13.9842 15.9884 14.6059C15.9244 15.0082 15.8467 15.4059 15.7553 15.799C15.673 16.1922 15.5862 16.5853 15.4947 16.9785C15.1839 18.231 14.6353 19.1682 13.849 19.7899C13.0627 20.4025 12.0067 20.7088 10.681 20.7088ZM10.8593 18.7339C11.353 18.7339 11.7873 18.5876 12.1622 18.295C12.537 18.0025 12.8022 17.5362 12.9576 16.8962C13.0582 16.4939 13.145 16.1145 13.2182 15.7579C13.3004 15.4013 13.3736 15.031 13.4376 14.647C13.5564 14.007 13.5016 13.5408 13.273 13.2482C13.0444 12.9556 12.6833 12.8093 12.1896 12.8093C11.6959 12.8093 11.2616 12.9556 10.8867 13.2482C10.521 13.5408 10.2604 14.007 10.105 14.647C10.0044 15.031 9.91302 15.4013 9.83073 15.7579C9.75759 16.1145 9.68445 16.4939 9.61131 16.8962C9.50159 17.5362 9.55645 18.0025 9.77588 18.295C9.99531 18.5876 10.3564 18.7339 10.8593 18.7339Z"
              fill="white"/>
        <path d="M16.6867 20.5716C16.5953 20.5716 16.5221 20.5396 16.4673 20.4756C16.4124 20.4116 16.3941 20.3293 16.4124 20.2288L18.305 11.3145C18.3233 11.2139 18.3736 11.1316 18.4558 11.0676C18.5381 11.0036 18.625 10.9716 18.7164 10.9716H22.3644C22.9221 10.9716 23.425 11.0356 23.873 11.1636C24.3301 11.2916 24.7096 11.4882 25.0113 11.7533C25.313 12.0185 25.5233 12.3522 25.6421 12.7545C25.761 13.1476 25.7656 13.6093 25.6558 14.1396C25.4273 15.191 24.961 15.9682 24.257 16.471C23.5621 16.9739 22.625 17.2253 21.4456 17.2253H19.5941L18.9633 20.2288C18.945 20.3293 18.8947 20.4116 18.8124 20.4756C18.7393 20.5396 18.6524 20.5716 18.5518 20.5716H16.6867ZM19.9507 15.3328H21.5278C21.9027 15.3328 22.2364 15.2322 22.529 15.031C22.8307 14.8299 23.0273 14.5236 23.1187 14.1122C23.1644 13.8745 23.1736 13.6642 23.1461 13.4813C23.1187 13.2985 23.0227 13.1522 22.8581 13.0425C22.7027 12.9328 22.4604 12.8779 22.1313 12.8779H20.4856L19.9507 15.3328Z"
              fill="white"/>
    </g>
    <defs>
        <clipPath id="clip0_1777_16793">
            <rect width="32" height="32" rx="6" fill="white"/>
        </clipPath>
    </defs>
</svg>
