<svg width="32" height="32" viewBox="0 0 32 32" fill="none" xmlns="http://www.w3.org/2000/svg">
    <g clip-path="url(#clip0_1777_16796)">
        <path d="M28 0C30.2091 6.31369e-06 32 1.79087 32 4V28C32 30.2091 30.2091 32 28 32H4C1.79087 32 7.3446e-06 30.2091 0 28V4C0 1.79086 1.79086 1.28851e-07 4 0H28ZM11.8672 6.8418C11.4736 6.60869 10.9622 6.60877 10.5293 6.8418L6.00293 9.40625C5.56997 9.63939 5.33301 10.0669 5.33301 10.5332V15.7012C5.33305 16.1674 5.57 16.595 6.00293 16.8281L10.5293 19.3926C10.9228 19.6255 11.4343 19.6256 11.8672 19.3926L14.9375 17.6436L17.0234 16.4395L20.0938 14.6904C20.4872 14.4575 20.9988 14.4575 21.4316 14.6904L23.833 16.0508C24.2264 16.2839 24.502 16.7116 24.502 17.1777V19.9365C24.5019 20.4028 24.2659 20.8303 23.833 21.0635L21.4316 22.4619C21.038 22.695 20.5266 22.695 20.0938 22.4619L17.6924 21.1025C17.2988 20.8694 17.0235 20.4418 17.0234 19.9756V18.1875L14.9375 19.3926V21.1797C14.9375 21.646 15.1735 22.0735 15.6064 22.3066L20.1328 24.8711C20.5263 25.1042 21.0378 25.1041 21.4707 24.8711L25.9971 22.3066C26.3906 22.0735 26.667 21.646 26.667 21.1797V16.0117C26.6669 15.5455 26.4299 15.1179 25.9971 14.8848L21.4316 12.2812C21.0381 12.0483 20.5265 12.0483 20.0938 12.2812L17.0234 14.0693L14.9375 15.2344L11.8672 17.0225C11.4737 17.2555 10.9621 17.2553 10.5293 17.0225L8.08887 15.623C7.69526 15.3899 7.41895 14.9624 7.41895 14.4961V11.7373C7.41904 11.2711 7.65599 10.8434 8.08887 10.6104L10.4893 9.25098C10.8829 9.01783 11.3952 9.01783 11.8281 9.25098L14.2285 10.6104C14.622 10.8434 14.8973 11.2711 14.8975 11.7373V13.5254L16.9844 12.3203V10.5332C16.9844 10.0669 16.7474 9.63939 16.3145 9.40625L11.8672 6.8418Z"
              fill="#8247E5"/>
    </g>
    <defs>
        <clipPath id="clip0_1777_16796">
            <rect width="32" height="32" rx="6" fill="white"/>
        </clipPath>
    </defs>
</svg>
