<svg width="32" height="32" viewBox="0 0 32 32" fill="none" xmlns="http://www.w3.org/2000/svg">
    <rect x="0.25" y="0.25" width="31.5" height="31.5" rx="7.75" fill="white"/>
    <rect x="0.25" y="0.25" width="31.5" height="31.5" rx="7.75" stroke="#CECECE" stroke-width="0.5"/>
    <path d="M26.5122 21.3382L23.0054 25.002C22.9292 25.0816 22.837 25.145 22.7345 25.1884C22.632 25.2318 22.5214 25.2541 22.4097 25.254H5.78601C5.70669 25.254 5.6291 25.2315 5.56277 25.1891C5.49644 25.1467 5.44426 25.0864 5.41265 25.0155C5.38103 24.9447 5.37135 24.8663 5.3848 24.7902C5.39825 24.714 5.43425 24.6434 5.48836 24.5869L8.99775 20.9231C9.07378 20.8437 9.16571 20.7804 9.26787 20.737C9.37004 20.6937 9.48025 20.6712 9.5917 20.671H26.2144C26.2938 20.671 26.3714 20.6936 26.4377 20.7359C26.504 20.7783 26.5561 20.8387 26.5879 20.9095C26.6194 20.9804 26.6291 21.0587 26.6157 21.1349C26.6022 21.211 26.5662 21.2817 26.5122 21.3382ZM23.0054 13.9604C22.9292 13.8808 22.837 13.8173 22.7345 13.774C22.632 13.7306 22.5214 13.7083 22.4097 13.7083H5.78601C5.70669 13.7083 5.6291 13.7309 5.56277 13.7733C5.49644 13.8156 5.44426 13.876 5.41265 13.9468C5.38103 14.0177 5.37135 14.096 5.3848 14.1722C5.39825 14.2483 5.43425 14.319 5.48836 14.3755L8.99775 18.0393C9.07378 18.1187 9.16571 18.182 9.26787 18.2253C9.37004 18.2687 9.48025 18.2912 9.5917 18.2913H26.2144C26.2938 18.2913 26.3714 18.2688 26.4377 18.2264C26.504 18.184 26.5561 18.1237 26.5879 18.0528C26.6194 17.982 26.6291 17.9036 26.6157 17.8275C26.6022 17.7513 26.5662 17.6807 26.5122 17.6242L23.0054 13.9604ZM5.78601 11.3287H22.4097C22.5214 11.3287 22.632 11.3064 22.7345 11.263C22.837 11.2196 22.9292 11.1562 23.0054 11.0766L26.5122 7.41279C26.5662 7.35629 26.6022 7.28563 26.6157 7.20947C26.6291 7.13332 26.6194 7.055 26.5879 6.98413C26.5561 6.91326 26.504 6.85293 26.4377 6.81056C26.3714 6.76818 26.2938 6.74561 26.2144 6.74561H9.5917C9.48025 6.74579 9.37004 6.76826 9.26787 6.81161C9.16571 6.85497 9.07378 6.9183 8.99775 6.99767L5.48927 10.6615C5.43521 10.7179 5.39923 10.7885 5.38575 10.8646C5.37226 10.9406 5.38186 11.0189 5.41337 11.0897C5.44487 11.1606 5.49691 11.2209 5.56311 11.2633C5.6293 11.3058 5.70677 11.3285 5.78601 11.3287Z" fill="url(#paint0_linear_4468_24299)"/>
    <defs>
        <linearGradient id="paint0_linear_4468_24299" x1="7.17203" y1="25.6952" x2="24.0963" y2="6.11122" gradientUnits="userSpaceOnUse">
            <stop offset="0.08" stop-color="#9945FF"/>
            <stop offset="0.3" stop-color="#8752F3"/>
            <stop offset="0.5" stop-color="#5497D5"/>
            <stop offset="0.6" stop-color="#43B4CA"/>
            <stop offset="0.72" stop-color="#28E0B9"/>
            <stop offset="0.97" stop-color="#19FB9B"/>
        </linearGradient>
    </defs>
</svg>
