<svg width="24" height="24" viewBox="0 0 24 24" fill="none" xmlns="http://www.w3.org/2000/svg">
    <g clip-path="url(#clip0_1370_14093)">
        <path d="M20 0C22.2091 2.57702e-07 24 1.79086 24 4V20C24 22.2091 22.2091 24 20 24H4C1.79086 24 6.44266e-08 22.2091 0 20V4C2.57706e-07 1.79086 1.79086 6.44256e-08 4 0H20ZM6.96875 15.1885C6.83053 15.1886 6.69739 15.2441 6.59961 15.3418L4.07617 17.8633C3.91282 18.0276 4.02901 18.3079 4.26074 18.3086H17.0303C17.1685 18.3086 17.3016 18.2538 17.3994 18.1562L19.9229 15.6348C20.0872 15.4704 19.9707 15.1887 19.7383 15.1885H6.96875ZM4.26074 10.4492C4.02881 10.4499 3.9122 10.7313 4.07617 10.8955L6.59961 13.416C6.69739 13.5137 6.83053 13.5692 6.96875 13.5693H19.7383C19.9707 13.5691 20.0873 13.2874 19.9229 13.123L17.3994 10.6025C17.3015 10.5049 17.1686 10.4492 17.0303 10.4492H4.26074ZM6.96875 5.77051C6.83052 5.77064 6.69739 5.82513 6.59961 5.92285L4.07617 8.44434C3.91275 8.60864 4.02897 8.889 4.26074 8.88965H17.0303C17.1685 8.88965 17.3015 8.83487 17.3994 8.7373L19.9229 6.21582C20.0871 6.05143 19.9706 5.77073 19.7383 5.77051H6.96875Z"
              fill="url(#paint0_linear_1370_14093)"/>
    </g>
    <defs>
        <linearGradient id="paint0_linear_1370_14093" x1="24" y1="0" x2="0" y2="24" gradientUnits="userSpaceOnUse">
            <stop offset="0.145833" stop-color="#70EFAD"/>
            <stop offset="0.854167" stop-color="#C740F5"/>
        </linearGradient>
        <clipPath id="clip0_1370_14093">
            <rect width="24" height="24" rx="6" fill="white"/>
        </clipPath>
    </defs>
</svg>
