<svg width="32" height="32" viewBox="0 0 32 32" fill="none" xmlns="http://www.w3.org/2000/svg">
    <g clip-path="url(#clip0_4391_52250)">
        <path d="M32 32H0V0H32V32ZM9.29199 20.252C9.1077 20.2521 8.93021 20.3249 8.7998 20.4551L5.43555 23.8174C5.21701 24.0366 5.37211 24.4107 5.68164 24.4111H22.707C22.8913 24.4111 23.0687 24.3382 23.1992 24.208L26.5635 20.8457C26.7827 20.6265 26.6274 20.252 26.3174 20.252H9.29199ZM5.68164 13.9326C5.37199 13.9331 5.21661 14.3082 5.43555 14.5273L8.7998 17.8887C8.93022 18.019 9.10764 18.0917 9.29199 18.0918H26.3174C26.6275 18.0918 26.7828 17.7173 26.5635 17.498L23.1992 14.1367C23.0687 14.0064 22.8915 13.9326 22.707 13.9326H5.68164ZM9.29199 7.69336C9.10762 7.69348 8.93023 7.76712 8.7998 7.89746L5.43555 11.2588C5.21691 11.4779 5.37207 11.8521 5.68164 11.8525H22.707C22.8914 11.8525 23.0687 11.7796 23.1992 11.6494L26.5635 8.28809C26.7829 8.06884 26.6275 7.69336 26.3174 7.69336H9.29199Z" fill="url(#paint0_linear_4391_52250)"/>
    </g>
    <defs>
        <linearGradient id="paint0_linear_4391_52250" x1="32" y1="0" x2="0" y2="32" gradientUnits="userSpaceOnUse">
            <stop offset="0.145833" stop-color="#70EFAD"/>
            <stop offset="0.854167" stop-color="#C740F5"/>
        </linearGradient>
        <clipPath id="clip0_4391_52250">
            <rect width="32" height="32" rx="8" fill="white"/>
        </clipPath>
    </defs>
</svg>
