<svg width="32" height="32" viewBox="0 0 32 32" fill="none" xmlns="http://www.w3.org/2000/svg">
    <g clip-path="url(#clip0_3064_29284)">
        <rect width="32" height="32" fill="#63A1F8"/>
        <path fill-rule="evenodd" clip-rule="evenodd"
              d="M20.8021 14.3413L20.8017 14.3421C21.636 15.3652 22.1347 16.661 22.1347 18.0704C22.1347 19.5008 21.6211 20.8142 20.7643 21.8442L20.6906 21.9329L20.671 21.8202C20.6543 21.7243 20.6348 21.6275 20.6121 21.53C20.1833 19.6874 18.7862 18.1075 16.4868 16.8282C14.934 15.9666 14.0452 14.9292 13.8118 13.7506C13.6611 12.9884 13.7732 12.2229 13.9897 11.5672C14.2061 10.9117 14.5282 10.3625 14.8017 10.0318L15.6964 8.96194C15.8532 8.77435 16.1468 8.77435 16.3037 8.96194L20.8021 14.3413ZM22.2169 13.2725L16.2216 6.10267C16.1072 5.96578 15.8928 5.96578 15.7784 6.10267L9.78287 13.2722L9.76352 13.2963C8.66024 14.6352 8 16.3367 8 18.189C8 22.5028 11.5816 26 16 26C20.4184 26 24 22.5028 24 18.189C24 16.3367 23.3398 14.6352 22.2365 13.2963L22.2169 13.2725ZM11.2174 14.3182L11.7539 13.6766L11.7701 13.7949C11.783 13.8887 11.7985 13.983 11.817 14.0777C12.164 15.8581 13.4035 17.3427 15.4758 18.4924C17.2772 19.4951 18.326 20.648 18.6282 21.9126C18.7543 22.4403 18.7768 22.9595 18.7221 23.4134L18.7188 23.4416L18.6928 23.454C17.8798 23.8424 16.9658 24.0604 15.9998 24.0604C12.6117 24.0604 9.86501 21.3787 9.86501 18.0704C9.86501 16.65 10.3714 15.3449 11.2174 14.3182Z"
              fill="#011829"/>
    </g>
    <defs>
        <clipPath id="clip0_3064_29284">
            <rect width="32" height="32" rx="8" fill="white"/>
        </clipPath>
    </defs>
</svg>
