<svg width="32" height="32" viewBox="0 0 32 32" fill="none" xmlns="http://www.w3.org/2000/svg">
    <g clip-path="url(#clip0_3064_29286)">
        <rect width="32" height="32" fill="#0098EA"/>
        <path d="M21.4024 8H10.597C8.61024 8 7.35101 10.143 8.3505 11.8755L15.0192 23.434C15.4544 24.1887 16.545 24.1887 16.9802 23.434L23.6503 11.8755C24.6484 10.1458 23.3892 8 21.4038 8H21.4024ZM15.0138 19.9678L13.5614 17.1571L10.0571 10.8897C9.82595 10.4885 10.1116 9.97444 10.5956 9.97444H15.0125V19.9691L15.0138 19.9678ZM21.9395 10.8883L18.4366 17.1583L16.9842 19.9678V9.97306H21.4011C21.8852 9.97306 22.1708 10.4871 21.9395 10.8883Z"
              fill="white"/>
    </g>
    <defs>
        <clipPath id="clip0_3064_29286">
            <rect width="32" height="32" rx="8" fill="white"/>
        </clipPath>
    </defs>
</svg>
