<svg width="32" height="32" viewBox="0 0 32 32" fill="none" xmlns="http://www.w3.org/2000/svg">
    <g clip-path="url(#clip0_3064_29304)">
        <path d="M32 32H0V0H32V32ZM28.3174 13.459C27.5236 13.8559 27.0422 14.6872 27.0928 15.5732C27.102 15.7353 27.1064 15.8801 27.1064 16.0068C27.1064 22.1434 22.1317 27.1182 15.9951 27.1182C13.4942 27.1181 11.1856 26.2909 9.3291 24.8955L11.623 23.748C12.914 24.4791 14.4064 24.8954 15.9951 24.8955C20.9039 24.8955 24.8847 20.9156 24.8848 16.0068C24.8848 15.7324 24.8721 15.4621 24.8477 15.1943L5.87793 24.6787C8.32334 27.5281 11.9509 29.333 16 29.333C23.3644 29.333 29.333 23.3644 29.333 16C29.333 15.007 29.2244 14.0395 29.0186 13.1084L28.3174 13.459ZM3.66113 21.0635C3.91444 21.6801 4.21277 22.2737 4.55176 22.8398L28.3418 10.9443C28.0889 10.3276 27.7907 9.7343 27.4521 9.16797L3.66113 21.0635ZM16 2.66699C8.63667 2.66699 2.66699 8.63667 2.66699 16C2.66699 16.996 2.77633 17.9668 2.9834 18.9004L3.6748 18.5537C4.46813 18.1565 4.94912 17.3252 4.89844 16.4395C4.88919 16.2777 4.88477 16.1333 4.88477 16.0068C4.88491 9.8703 9.85952 4.89648 15.9961 4.89648C18.497 4.89655 20.8056 5.72278 22.6621 7.11816L20.3672 8.26562C19.0773 7.53456 17.5849 7.11822 15.9961 7.11816C11.0862 7.11816 7.10659 11.0981 7.10645 16.0068C7.10645 16.2813 7.11911 16.5516 7.14355 16.8193L26.1279 7.32715C23.6826 4.47423 20.0525 2.66699 16 2.66699Z"
              fill="#474747"/>
        <path d="M27.4521 9.16761C27.7907 9.73407 28.0885 10.3277 28.3415 10.9446L4.55193 22.8393C4.21291 22.2731 3.9147 21.6796 3.66139 21.063L27.4521 9.16761ZM26.1278 7.32745L7.14339 16.8192C7.11895 16.5514 7.10673 16.2814 7.10673 16.0069C7.10673 11.0981 11.0856 7.11806 15.9956 7.11806C17.5845 7.11806 19.0767 7.53473 20.3667 8.26584L22.6623 7.11806C20.8056 5.7225 18.4967 4.89584 15.9956 4.89584C9.85895 4.89584 4.8845 9.87028 4.8845 16.0069C4.8845 16.1335 4.88913 16.2778 4.89839 16.4396C4.94908 17.3255 4.46787 18.1566 3.67435 18.5538L2.98276 18.8999C2.7757 17.9663 2.6665 16.9958 2.6665 15.9998C2.6665 8.6365 8.6365 2.6665 15.9998 2.6665C20.0525 2.6665 23.6825 4.47438 26.1278 7.32745ZM29.0187 13.1082C29.2246 14.0392 29.3332 15.0069 29.3332 15.9998C29.3332 23.3643 23.3643 29.3332 15.9998 29.3332C11.9507 29.3332 8.32296 27.5282 5.87756 24.6788L24.8476 15.1943C24.8721 15.4621 24.8843 15.7321 24.8843 16.0065C24.8843 20.9154 20.9043 24.8954 15.9954 24.8954C14.4065 24.8954 12.9143 24.4787 11.6232 23.7476L9.32873 24.8954C11.1854 26.2909 13.4943 27.1176 15.9954 27.1176C22.1321 27.1176 27.1065 22.1432 27.1065 16.0065C27.1065 15.8798 27.1019 15.7354 27.0926 15.5734C27.0419 14.6872 27.5234 13.8558 28.3174 13.4588L29.0187 13.1082Z"
              fill="#E1E1E5"/>
    </g>
    <defs>
        <clipPath id="clip0_3064_29304">
            <rect width="32" height="32" rx="8" fill="white"/>
        </clipPath>
    </defs>
</svg>
