<svg width="32" height="32" viewBox="0 0 32 32" fill="none" xmlns="http://www.w3.org/2000/svg">
    <g clip-path="url(#clip0_5724_43963)">
        <path d="M26 0C29.3137 0 32 2.68629 32 6V21.0537H26.4004V7.59082L16 17.9902L5.59961 7.59082V21.0547H0V6C0 2.68629 2.68629 0 6 0H26Z"
              fill="#E9702D"/>
        <path d="M22.9297 24.3145H32V26C32 28.8547 30.0059 31.2415 27.335 31.8486C25.045 31.9548 22.1961 31.9901 18.7021 32H7.8291C7.04622 32 6.30703 31.9936 5.60938 31.9854C2.4778 31.784 0 29.1824 0 26V24.3145H9.06934V15.8438L16 22.7734L22.9297 15.8438V24.3145Z"
              fill="#808085" fill-opacity="0.5"/>
    </g>
    <defs>
        <clipPath id="clip0_5724_43963">
            <rect width="32" height="32" rx="6" fill="white"/>
        </clipPath>
    </defs>
</svg>
