<svg width="32" height="32" viewBox="0 0 32 32" fill="none" xmlns="http://www.w3.org/2000/svg">
    <rect width="32" height="32" rx="6" fill="#052CC0"/>
    <path d="M13.5158 24.4045C13.3397 24.4044 13.1662 24.3629 13.0096 24.2833C12.8529 24.2037 12.7177 24.0882 12.615 23.9466L8.20757 17.8982H5.3335V15.6966H8.77646C8.9524 15.6964 9.12585 15.7377 9.28248 15.8171C9.43912 15.8965 9.57442 16.0117 9.6772 16.1531L13.2787 21.0934L18.7735 8.659C18.86 8.46295 19.0024 8.29616 19.1832 8.1791C19.3639 8.06204 19.5753 7.9998 19.7913 8H26.6668V10.2016H20.5187L14.535 23.7441C14.4561 23.9227 14.3307 24.0773 14.1717 24.192C14.0126 24.3068 13.8256 24.3776 13.6298 24.3972C13.5903 24.3993 13.5507 24.3993 13.5113 24.3972"
          fill="#00C389"/>
</svg>
