<svg width="32" height="32" viewBox="0 0 32 32" fill="none" xmlns="http://www.w3.org/2000/svg">
    <g clip-path="url(#clip0_1777_16802)">
        <path fill-rule="evenodd" clip-rule="evenodd"
              d="M5.33333 0C2.38781 0 0 2.38782 0 5.33333V26.6667C0 29.6122 2.38782 32 5.33333 32H26.6667C29.6122 32 32 29.6122 32 26.6667V5.33333C32 2.38781 29.6122 0 26.6667 0H5.33333ZM21.8887 23.6767V20.1027L15.0204 20.1013C15.6215 19.442 16.1486 18.8621 16.6718 18.2097L16.6859 18.1927C18.0536 16.5559 19.3886 14.9583 20.7222 13.3212C20.832 13.189 20.956 13.0568 21.0812 12.9232C21.4382 12.5424 21.8056 12.1505 21.8848 11.7182C22.0339 10.9385 22.0059 10.125 21.9771 9.28805C21.9654 8.946 21.9535 8.60002 21.9535 8.25082H17.689V5.33333H14.2714V8.32331H10.3623V11.8973H16.9492C16.6778 12.2111 16.4212 12.5027 16.1723 12.7855C15.8722 13.1264 15.5834 13.4544 15.2939 13.7931C13.9213 15.4358 12.583 17.0388 11.2434 18.6815C11.1304 18.8296 10.9967 18.9778 10.8612 19.1279C10.5313 19.4935 10.1911 19.8705 10.1152 20.2846C9.96576 21.0632 9.99422 21.8778 10.0231 22.7038C10.0348 23.0386 10.0465 23.3753 10.0465 23.7123H14.2753V26.6667H17.8343C17.7999 26.155 17.7731 25.662 17.7462 25.1685C17.7196 24.6779 17.6929 24.1868 17.6586 23.6767H21.8887Z"
              fill="#ECB244"/>
    </g>
    <defs>
        <clipPath id="clip0_1777_16802">
            <rect width="32" height="32" rx="6" fill="white"/>
        </clipPath>
    </defs>
</svg>
